<svg width="133" height="49" viewBox="0 0 133 49" fill="none" xmlns="http://www.w3.org/2000/svg">
<path d="M5.70117 6.09375L12.209 22.3359L18.7168 6.09375H22.1211V26H19.4961V18.248L19.7422 9.88086L13.207 26H11.1973L4.67578 9.92188L4.93555 18.248V26H2.31055V6.09375H5.70117ZM32.293 24.209C33.1953 24.209 33.9837 23.9355 34.6582 23.3887C35.3327 22.8418 35.7064 22.1582 35.7793 21.3379H38.1719C38.1263 22.1855 37.8346 22.9922 37.2969 23.7578C36.7591 24.5234 36.0391 25.1341 35.1367 25.5898C34.2435 26.0456 33.2956 26.2734 32.293 26.2734C30.2786 26.2734 28.6745 25.6035 27.4805 24.2637C26.2956 22.9147 25.7031 21.0736 25.7031 18.7402V18.3164C25.7031 16.8763 25.9674 15.5957 26.4961 14.4746C27.0247 13.3535 27.7812 12.4831 28.7656 11.8633C29.7591 11.2435 30.9303 10.9336 32.2793 10.9336C33.9382 10.9336 35.3145 11.4303 36.4082 12.4238C37.5111 13.4173 38.099 14.707 38.1719 16.293H35.7793C35.7064 15.3359 35.3418 14.5521 34.6855 13.9414C34.0384 13.3216 33.2363 13.0117 32.2793 13.0117C30.9941 13.0117 29.9961 13.4766 29.2852 14.4062C28.5833 15.3268 28.2324 16.6621 28.2324 18.4121V18.8906C28.2324 20.5951 28.5833 21.9076 29.2852 22.8281C29.987 23.7487 30.9896 24.209 32.293 24.209ZM46.4707 16.7441L44.0371 19.2734V26H41.4121V6.09375H44.0371V15.9375L52.8828 6.09375H56.0547L48.2207 14.8848L56.6699 26H53.5254L46.4707 16.7441ZM64.3535 26.2734C62.3483 26.2734 60.7168 25.6172 59.459 24.3047C58.2012 22.9831 57.5723 21.2194 57.5723 19.0137V18.5488C57.5723 17.0814 57.8503 15.7734 58.4062 14.625C58.9714 13.4674 59.7552 12.5651 60.7578 11.918C61.7695 11.2617 62.8633 10.9336 64.0391 10.9336C65.9622 10.9336 67.457 11.5671 68.5234 12.834C69.5898 14.1009 70.123 15.9147 70.123 18.2754V19.3281H60.1016C60.138 20.7865 60.5618 21.9668 61.373 22.8691C62.1934 23.7624 63.2324 24.209 64.4902 24.209C65.3835 24.209 66.14 24.0267 66.7598 23.6621C67.3796 23.2975 67.9219 22.8145 68.3867 22.2129L69.9316 23.416C68.6921 25.321 66.8327 26.2734 64.3535 26.2734ZM64.0391 13.0117C63.0182 13.0117 62.1615 13.3854 61.4688 14.1328C60.776 14.8711 60.3477 15.9102 60.1836 17.25H67.5938V17.0586C67.5208 15.7734 67.1745 14.7799 66.5547 14.0781C65.9349 13.3672 65.0964 13.0117 64.0391 13.0117ZM75.4551 11.207L75.5371 13.0664C76.6673 11.6445 78.1439 10.9336 79.9668 10.9336C83.0931 10.9336 84.6699 12.6973 84.6973 16.2246V26H82.168V16.2109C82.1589 15.1445 81.9128 14.3561 81.4297 13.8457C80.9557 13.3353 80.2129 13.0801 79.2012 13.0801C78.3809 13.0801 77.6608 13.2988 77.041 13.7363C76.4212 14.1738 75.9382 14.748 75.5918 15.459V26H73.0625V11.207H75.4551ZM90.877 23.8535H102.266V26H87.7734V24.0312L98.6836 8.25391H87.9512V6.09375H101.828V8.02148L90.877 23.8535ZM111.111 26.2734C109.106 26.2734 107.475 25.6172 106.217 24.3047C104.959 22.9831 104.33 21.2194 104.33 19.0137V18.5488C104.33 17.0814 104.608 15.7734 105.164 14.625C105.729 13.4674 106.513 12.5651 107.516 11.918C108.527 11.2617 109.621 10.9336 110.797 10.9336C112.72 10.9336 114.215 11.5671 115.281 12.834C116.348 14.1009 116.881 15.9147 116.881 18.2754V19.3281H106.859C106.896 20.7865 107.32 21.9668 108.131 22.8691C108.951 23.7624 109.99 24.209 111.248 24.209C112.141 24.209 112.898 24.0267 113.518 23.6621C114.137 23.2975 114.68 22.8145 115.145 22.2129L116.689 23.416C115.45 25.321 113.59 26.2734 111.111 26.2734ZM110.797 13.0117C109.776 13.0117 108.919 13.3854 108.227 14.1328C107.534 14.8711 107.105 15.9102 106.941 17.25H114.352V17.0586C114.279 15.7734 113.932 14.7799 113.312 14.0781C112.693 13.3672 111.854 13.0117 110.797 13.0117ZM125.959 26.2734C123.954 26.2734 122.322 25.6172 121.064 24.3047C119.807 22.9831 119.178 21.2194 119.178 19.0137V18.5488C119.178 17.0814 119.456 15.7734 120.012 14.625C120.577 13.4674 121.361 12.5651 122.363 11.918C123.375 11.2617 124.469 10.9336 125.645 10.9336C127.568 10.9336 129.062 11.5671 130.129 12.834C131.195 14.1009 131.729 15.9147 131.729 18.2754V19.3281H121.707C121.743 20.7865 122.167 21.9668 122.979 22.8691C123.799 23.7624 124.838 24.209 126.096 24.209C126.989 24.209 127.745 24.0267 128.365 23.6621C128.985 23.2975 129.527 22.8145 129.992 22.2129L131.537 23.416C130.298 25.321 128.438 26.2734 125.959 26.2734ZM125.645 13.0117C124.624 13.0117 123.767 13.3854 123.074 14.1328C122.382 14.8711 121.953 15.9102 121.789 17.25H129.199V17.0586C129.126 15.7734 128.78 14.7799 128.16 14.0781C127.54 13.3672 126.702 13.0117 125.645 13.0117Z" fill="white"/>
<path d="M35.8262 43.8027C35.8262 43.4277 35.6934 43.1387 35.4277 42.9355C35.166 42.7324 34.6914 42.5273 34.0039 42.3203C33.3164 42.1133 32.7695 41.8828 32.3633 41.6289C31.5859 41.1406 31.1973 40.5039 31.1973 39.7188C31.1973 39.0312 31.4766 38.4648 32.0352 38.0195C32.5977 37.5742 33.3262 37.3516 34.2207 37.3516C34.8145 37.3516 35.3438 37.4609 35.8086 37.6797C36.2734 37.8984 36.6387 38.2109 36.9043 38.6172C37.1699 39.0195 37.3027 39.4668 37.3027 39.959H35.8262C35.8262 39.5137 35.6855 39.166 35.4043 38.916C35.127 38.6621 34.7285 38.5352 34.209 38.5352C33.7246 38.5352 33.3477 38.6387 33.0781 38.8457C32.8125 39.0527 32.6797 39.3418 32.6797 39.7129C32.6797 40.0254 32.8242 40.2871 33.1133 40.498C33.4023 40.7051 33.8789 40.9082 34.543 41.1074C35.207 41.3027 35.7402 41.5273 36.1426 41.7812C36.5449 42.0312 36.8398 42.3203 37.0273 42.6484C37.2148 42.9727 37.3086 43.3535 37.3086 43.791C37.3086 44.502 37.0352 45.0684 36.4883 45.4902C35.9453 45.9082 35.207 46.1172 34.2734 46.1172C33.6562 46.1172 33.0879 46.0039 32.5684 45.7773C32.0527 45.5469 31.6504 45.2305 31.3613 44.8281C31.0762 44.4258 30.9336 43.957 30.9336 43.4219H32.416C32.416 43.9062 32.5762 44.2812 32.8965 44.5469C33.2168 44.8125 33.6758 44.9453 34.2734 44.9453C34.7891 44.9453 35.1758 44.8418 35.4336 44.6348C35.6953 44.4238 35.8262 44.1465 35.8262 43.8027ZM44.7734 38.6641H42.1133V46H40.6426V38.6641H38.0059V37.4688H44.7734V38.6641ZM49.9707 44.0137H46.666L45.9746 46H44.4336L47.6562 37.4688H48.9863L52.2148 46H50.668L49.9707 44.0137ZM47.082 42.8184H49.5547L48.3184 39.2793L47.082 42.8184ZM58.6484 38.6641H55.9883V46H54.5176V38.6641H51.8809V37.4688H58.6484V38.6641ZM67.5371 44.0137H64.2324L63.541 46H62L65.2227 37.4688H66.5527L69.7812 46H68.2344L67.5371 44.0137ZM64.6484 42.8184H67.1211L65.8848 39.2793L64.6484 42.8184ZM70.3672 42.7832C70.3672 41.7988 70.5977 41.0137 71.0586 40.4277C71.5234 39.8379 72.1387 39.543 72.9043 39.543C73.627 39.543 74.1953 39.7949 74.6094 40.2988L74.6738 39.6602H75.957V45.8066C75.957 46.6387 75.6973 47.2949 75.1777 47.7754C74.6621 48.2559 73.9648 48.4961 73.0859 48.4961C72.6211 48.4961 72.166 48.3984 71.7207 48.2031C71.2793 48.0117 70.9434 47.7598 70.7129 47.4473L71.3867 46.5918C71.8242 47.1113 72.3633 47.3711 73.0039 47.3711C73.4766 47.3711 73.8496 47.2422 74.123 46.9844C74.3965 46.7305 74.5332 46.3555 74.5332 45.8594V45.4316C74.123 45.8887 73.5762 46.1172 72.8926 46.1172C72.1504 46.1172 71.543 45.8223 71.0703 45.2324C70.6016 44.6426 70.3672 43.8262 70.3672 42.7832ZM71.7852 42.9062C71.7852 43.543 71.9141 44.0449 72.1719 44.4121C72.4336 44.7754 72.7949 44.957 73.2559 44.957C73.8301 44.957 74.2559 44.7109 74.5332 44.2188V41.4297C74.2637 40.9492 73.8418 40.709 73.2676 40.709C72.7988 40.709 72.4336 40.8945 72.1719 41.2656C71.9141 41.6367 71.7852 42.1836 71.7852 42.9062ZM80.2168 46.1172C79.3145 46.1172 78.582 45.834 78.0195 45.2676C77.4609 44.6973 77.1816 43.9395 77.1816 42.9941V42.8184C77.1816 42.1855 77.3027 41.6211 77.5449 41.125C77.791 40.625 78.1348 40.2363 78.5762 39.959C79.0176 39.6816 79.5098 39.543 80.0527 39.543C80.916 39.543 81.582 39.8184 82.0508 40.3691C82.5234 40.9199 82.7598 41.6992 82.7598 42.707V43.2812H78.6172C78.6602 43.8047 78.834 44.2188 79.1387 44.5234C79.4473 44.8281 79.834 44.9805 80.2988 44.9805C80.9512 44.9805 81.4824 44.7168 81.8926 44.1895L82.6602 44.9219C82.4062 45.3008 82.0664 45.5957 81.6406 45.8066C81.2188 46.0137 80.7441 46.1172 80.2168 46.1172ZM80.0469 40.6855C79.6562 40.6855 79.3398 40.8223 79.0977 41.0957C78.8594 41.3691 78.707 41.75 78.6406 42.2383H81.3535V42.1328C81.3223 41.6562 81.1953 41.2969 80.9727 41.0547C80.75 40.8086 80.4414 40.6855 80.0469 40.6855ZM85.1914 39.6602L85.2324 40.3926C85.7012 39.8262 86.3164 39.543 87.0781 39.543C88.3984 39.543 89.0703 40.2988 89.0938 41.8105V46H87.6699V41.8926C87.6699 41.4902 87.582 41.1934 87.4062 41.002C87.2344 40.8066 86.9512 40.709 86.5566 40.709C85.9824 40.709 85.5547 40.9688 85.2734 41.4883V46H83.8496V39.6602H85.1914ZM93.1543 44.9805C93.5098 44.9805 93.8047 44.877 94.0391 44.6699C94.2734 44.4629 94.3984 44.207 94.4141 43.9023H95.7559C95.7402 44.2969 95.6172 44.666 95.3867 45.0098C95.1562 45.3496 94.8438 45.6191 94.4492 45.8184C94.0547 46.0176 93.6289 46.1172 93.1719 46.1172C92.2852 46.1172 91.582 45.8301 91.0625 45.2559C90.543 44.6816 90.2832 43.8887 90.2832 42.877V42.7305C90.2832 41.7656 90.541 40.9941 91.0566 40.416C91.5723 39.834 92.2754 39.543 93.166 39.543C93.9199 39.543 94.5332 39.7637 95.0059 40.2051C95.4824 40.6426 95.7324 41.2188 95.7559 41.9336H94.4141C94.3984 41.5703 94.2734 41.2715 94.0391 41.0371C93.8086 40.8027 93.5137 40.6855 93.1543 40.6855C92.6934 40.6855 92.3379 40.8535 92.0879 41.1895C91.8379 41.5215 91.7109 42.0273 91.707 42.707V42.9355C91.707 43.623 91.8301 44.1367 92.0762 44.4766C92.3262 44.8125 92.6855 44.9805 93.1543 44.9805ZM99.0488 43.9609L100.338 39.6602H101.855L99.3359 46.9609C98.9492 48.0273 98.293 48.5605 97.3672 48.5605C97.1602 48.5605 96.9316 48.5254 96.6816 48.4551V47.3535L96.9512 47.3711C97.3105 47.3711 97.5801 47.3047 97.7598 47.1719C97.9434 47.043 98.0879 46.8242 98.1934 46.5156L98.3984 45.9707L96.1719 39.6602H97.707L99.0488 43.9609Z" fill="white"/>
</svg>
