<svg width="167" height="69" viewBox="0 0 167 69" fill="none" xmlns="http://www.w3.org/2000/svg">
<path d="M22.7012 16.0938L29.209 32.3359L35.7168 16.0938H39.1211V36H36.4961V28.248L36.7422 19.8809L30.207 36H28.1973L21.6758 19.9219L21.9355 28.248V36H19.3105V16.0938H22.7012ZM49.293 34.209C50.1953 34.209 50.9837 33.9355 51.6582 33.3887C52.3327 32.8418 52.7064 32.1582 52.7793 31.3379H55.1719C55.1263 32.1855 54.8346 32.9922 54.2969 33.7578C53.7591 34.5234 53.0391 35.1341 52.1367 35.5898C51.2435 36.0456 50.2956 36.2734 49.293 36.2734C47.2786 36.2734 45.6745 35.6035 44.4805 34.2637C43.2956 32.9147 42.7031 31.0736 42.7031 28.7402V28.3164C42.7031 26.8763 42.9674 25.5957 43.4961 24.4746C44.0247 23.3535 44.7812 22.4831 45.7656 21.8633C46.7591 21.2435 47.9303 20.9336 49.2793 20.9336C50.9382 20.9336 52.3145 21.4303 53.4082 22.4238C54.5111 23.4173 55.099 24.707 55.1719 26.293H52.7793C52.7064 25.3359 52.3418 24.5521 51.6855 23.9414C51.0384 23.3216 50.2363 23.0117 49.2793 23.0117C47.9941 23.0117 46.9961 23.4766 46.2852 24.4062C45.5833 25.3268 45.2324 26.6621 45.2324 28.4121V28.8906C45.2324 30.5951 45.5833 31.9076 46.2852 32.8281C46.987 33.7487 47.9896 34.209 49.293 34.209ZM63.4707 26.7441L61.0371 29.2734V36H58.4121V16.0938H61.0371V25.9375L69.8828 16.0938H73.0547L65.2207 24.8848L73.6699 36H70.5254L63.4707 26.7441ZM81.3535 36.2734C79.3483 36.2734 77.7168 35.6172 76.459 34.3047C75.2012 32.9831 74.5723 31.2194 74.5723 29.0137V28.5488C74.5723 27.0814 74.8503 25.7734 75.4062 24.625C75.9714 23.4674 76.7552 22.5651 77.7578 21.918C78.7695 21.2617 79.8633 20.9336 81.0391 20.9336C82.9622 20.9336 84.457 21.5671 85.5234 22.834C86.5898 24.1009 87.123 25.9147 87.123 28.2754V29.3281H77.1016C77.138 30.7865 77.5618 31.9668 78.373 32.8691C79.1934 33.7624 80.2324 34.209 81.4902 34.209C82.3835 34.209 83.14 34.0267 83.7598 33.6621C84.3796 33.2975 84.9219 32.8145 85.3867 32.2129L86.9316 33.416C85.6921 35.321 83.8327 36.2734 81.3535 36.2734ZM81.0391 23.0117C80.0182 23.0117 79.1615 23.3854 78.4688 24.1328C77.776 24.8711 77.3477 25.9102 77.1836 27.25H84.5938V27.0586C84.5208 25.7734 84.1745 24.7799 83.5547 24.0781C82.9349 23.3672 82.0964 23.0117 81.0391 23.0117ZM92.4551 21.207L92.5371 23.0664C93.6673 21.6445 95.1439 20.9336 96.9668 20.9336C100.093 20.9336 101.67 22.6973 101.697 26.2246V36H99.168V26.2109C99.1589 25.1445 98.9128 24.3561 98.4297 23.8457C97.9557 23.3353 97.2129 23.0801 96.2012 23.0801C95.3809 23.0801 94.6608 23.2988 94.041 23.7363C93.4212 24.1738 92.9382 24.748 92.5918 25.459V36H90.0625V21.207H92.4551ZM107.877 33.8535H119.266V36H104.773V34.0312L115.684 18.2539H104.951V16.0938H118.828V18.0215L107.877 33.8535ZM128.111 36.2734C126.106 36.2734 124.475 35.6172 123.217 34.3047C121.959 32.9831 121.33 31.2194 121.33 29.0137V28.5488C121.33 27.0814 121.608 25.7734 122.164 24.625C122.729 23.4674 123.513 22.5651 124.516 21.918C125.527 21.2617 126.621 20.9336 127.797 20.9336C129.72 20.9336 131.215 21.5671 132.281 22.834C133.348 24.1009 133.881 25.9147 133.881 28.2754V29.3281H123.859C123.896 30.7865 124.32 31.9668 125.131 32.8691C125.951 33.7624 126.99 34.209 128.248 34.209C129.141 34.209 129.898 34.0267 130.518 33.6621C131.137 33.2975 131.68 32.8145 132.145 32.2129L133.689 33.416C132.45 35.321 130.59 36.2734 128.111 36.2734ZM127.797 23.0117C126.776 23.0117 125.919 23.3854 125.227 24.1328C124.534 24.8711 124.105 25.9102 123.941 27.25H131.352V27.0586C131.279 25.7734 130.932 24.7799 130.312 24.0781C129.693 23.3672 128.854 23.0117 127.797 23.0117ZM142.959 36.2734C140.954 36.2734 139.322 35.6172 138.064 34.3047C136.807 32.9831 136.178 31.2194 136.178 29.0137V28.5488C136.178 27.0814 136.456 25.7734 137.012 24.625C137.577 23.4674 138.361 22.5651 139.363 21.918C140.375 21.2617 141.469 20.9336 142.645 20.9336C144.568 20.9336 146.062 21.5671 147.129 22.834C148.195 24.1009 148.729 25.9147 148.729 28.2754V29.3281H138.707C138.743 30.7865 139.167 31.9668 139.979 32.8691C140.799 33.7624 141.838 34.209 143.096 34.209C143.989 34.209 144.745 34.0267 145.365 33.6621C145.985 33.2975 146.527 32.8145 146.992 32.2129L148.537 33.416C147.298 35.321 145.438 36.2734 142.959 36.2734ZM142.645 23.0117C141.624 23.0117 140.767 23.3854 140.074 24.1328C139.382 24.8711 138.953 25.9102 138.789 27.25H146.199V27.0586C146.126 25.7734 145.78 24.7799 145.16 24.0781C144.54 23.3672 143.702 23.0117 142.645 23.0117Z" fill="black"/>
<path d="M52.8262 53.8027C52.8262 53.4277 52.6934 53.1387 52.4277 52.9355C52.166 52.7324 51.6914 52.5273 51.0039 52.3203C50.3164 52.1133 49.7695 51.8828 49.3633 51.6289C48.5859 51.1406 48.1973 50.5039 48.1973 49.7188C48.1973 49.0312 48.4766 48.4648 49.0352 48.0195C49.5977 47.5742 50.3262 47.3516 51.2207 47.3516C51.8145 47.3516 52.3438 47.4609 52.8086 47.6797C53.2734 47.8984 53.6387 48.2109 53.9043 48.6172C54.1699 49.0195 54.3027 49.4668 54.3027 49.959H52.8262C52.8262 49.5137 52.6855 49.166 52.4043 48.916C52.127 48.6621 51.7285 48.5352 51.209 48.5352C50.7246 48.5352 50.3477 48.6387 50.0781 48.8457C49.8125 49.0527 49.6797 49.3418 49.6797 49.7129C49.6797 50.0254 49.8242 50.2871 50.1133 50.498C50.4023 50.7051 50.8789 50.9082 51.543 51.1074C52.207 51.3027 52.7402 51.5273 53.1426 51.7812C53.5449 52.0312 53.8398 52.3203 54.0273 52.6484C54.2148 52.9727 54.3086 53.3535 54.3086 53.791C54.3086 54.502 54.0352 55.0684 53.4883 55.4902C52.9453 55.9082 52.207 56.1172 51.2734 56.1172C50.6562 56.1172 50.0879 56.0039 49.5684 55.7773C49.0527 55.5469 48.6504 55.2305 48.3613 54.8281C48.0762 54.4258 47.9336 53.957 47.9336 53.4219H49.416C49.416 53.9062 49.5762 54.2812 49.8965 54.5469C50.2168 54.8125 50.6758 54.9453 51.2734 54.9453C51.7891 54.9453 52.1758 54.8418 52.4336 54.6348C52.6953 54.4238 52.8262 54.1465 52.8262 53.8027ZM61.7734 48.6641H59.1133V56H57.6426V48.6641H55.0059V47.4688H61.7734V48.6641ZM66.9707 54.0137H63.666L62.9746 56H61.4336L64.6562 47.4688H65.9863L69.2148 56H67.668L66.9707 54.0137ZM64.082 52.8184H66.5547L65.3184 49.2793L64.082 52.8184ZM75.6484 48.6641H72.9883V56H71.5176V48.6641H68.8809V47.4688H75.6484V48.6641ZM84.5371 54.0137H81.2324L80.541 56H79L82.2227 47.4688H83.5527L86.7812 56H85.2344L84.5371 54.0137ZM81.6484 52.8184H84.1211L82.8848 49.2793L81.6484 52.8184ZM87.3672 52.7832C87.3672 51.7988 87.5977 51.0137 88.0586 50.4277C88.5234 49.8379 89.1387 49.543 89.9043 49.543C90.627 49.543 91.1953 49.7949 91.6094 50.2988L91.6738 49.6602H92.957V55.8066C92.957 56.6387 92.6973 57.2949 92.1777 57.7754C91.6621 58.2559 90.9648 58.4961 90.0859 58.4961C89.6211 58.4961 89.166 58.3984 88.7207 58.2031C88.2793 58.0117 87.9434 57.7598 87.7129 57.4473L88.3867 56.5918C88.8242 57.1113 89.3633 57.3711 90.0039 57.3711C90.4766 57.3711 90.8496 57.2422 91.123 56.9844C91.3965 56.7305 91.5332 56.3555 91.5332 55.8594V55.4316C91.123 55.8887 90.5762 56.1172 89.8926 56.1172C89.1504 56.1172 88.543 55.8223 88.0703 55.2324C87.6016 54.6426 87.3672 53.8262 87.3672 52.7832ZM88.7852 52.9062C88.7852 53.543 88.9141 54.0449 89.1719 54.4121C89.4336 54.7754 89.7949 54.957 90.2559 54.957C90.8301 54.957 91.2559 54.7109 91.5332 54.2188V51.4297C91.2637 50.9492 90.8418 50.709 90.2676 50.709C89.7988 50.709 89.4336 50.8945 89.1719 51.2656C88.9141 51.6367 88.7852 52.1836 88.7852 52.9062ZM97.2168 56.1172C96.3145 56.1172 95.582 55.834 95.0195 55.2676C94.4609 54.6973 94.1816 53.9395 94.1816 52.9941V52.8184C94.1816 52.1855 94.3027 51.6211 94.5449 51.125C94.791 50.625 95.1348 50.2363 95.5762 49.959C96.0176 49.6816 96.5098 49.543 97.0527 49.543C97.916 49.543 98.582 49.8184 99.0508 50.3691C99.5234 50.9199 99.7598 51.6992 99.7598 52.707V53.2812H95.6172C95.6602 53.8047 95.834 54.2188 96.1387 54.5234C96.4473 54.8281 96.834 54.9805 97.2988 54.9805C97.9512 54.9805 98.4824 54.7168 98.8926 54.1895L99.6602 54.9219C99.4062 55.3008 99.0664 55.5957 98.6406 55.8066C98.2188 56.0137 97.7441 56.1172 97.2168 56.1172ZM97.0469 50.6855C96.6562 50.6855 96.3398 50.8223 96.0977 51.0957C95.8594 51.3691 95.707 51.75 95.6406 52.2383H98.3535V52.1328C98.3223 51.6562 98.1953 51.2969 97.9727 51.0547C97.75 50.8086 97.4414 50.6855 97.0469 50.6855ZM102.191 49.6602L102.232 50.3926C102.701 49.8262 103.316 49.543 104.078 49.543C105.398 49.543 106.07 50.2988 106.094 51.8105V56H104.67V51.8926C104.67 51.4902 104.582 51.1934 104.406 51.002C104.234 50.8066 103.951 50.709 103.557 50.709C102.982 50.709 102.555 50.9688 102.273 51.4883V56H100.85V49.6602H102.191ZM110.154 54.9805C110.51 54.9805 110.805 54.877 111.039 54.6699C111.273 54.4629 111.398 54.207 111.414 53.9023H112.756C112.74 54.2969 112.617 54.666 112.387 55.0098C112.156 55.3496 111.844 55.6191 111.449 55.8184C111.055 56.0176 110.629 56.1172 110.172 56.1172C109.285 56.1172 108.582 55.8301 108.062 55.2559C107.543 54.6816 107.283 53.8887 107.283 52.877V52.7305C107.283 51.7656 107.541 50.9941 108.057 50.416C108.572 49.834 109.275 49.543 110.166 49.543C110.92 49.543 111.533 49.7637 112.006 50.2051C112.482 50.6426 112.732 51.2188 112.756 51.9336H111.414C111.398 51.5703 111.273 51.2715 111.039 51.0371C110.809 50.8027 110.514 50.6855 110.154 50.6855C109.693 50.6855 109.338 50.8535 109.088 51.1895C108.838 51.5215 108.711 52.0273 108.707 52.707V52.9355C108.707 53.623 108.83 54.1367 109.076 54.4766C109.326 54.8125 109.686 54.9805 110.154 54.9805ZM116.049 53.9609L117.338 49.6602H118.855L116.336 56.9609C115.949 58.0273 115.293 58.5605 114.367 58.5605C114.16 58.5605 113.932 58.5254 113.682 58.4551V57.3535L113.951 57.3711C114.311 57.3711 114.58 57.3047 114.76 57.1719C114.943 57.043 115.088 56.8242 115.193 56.5156L115.398 55.9707L113.172 49.6602H114.707L116.049 53.9609Z" fill="black"/>
</svg>
