<svg width="85" height="49" viewBox="0 0 85 49" fill="none" xmlns="http://www.w3.org/2000/svg">
<g clip-path="url(#clip0)">
<path d="M41.0569 10.5642L41.3886 10.5843L41.5635 10.9503L41.8709 10.8138L42.263 10.7535L42.2779 11.0793H42.9382L43.147 11.1914L43.3748 11.22L43.5063 11.1449L43.9419 11.2993L43.9185 10.5917L44.3764 10.579L44.4972 10.7292L44.7908 10.8477L45.0081 11.0465L45.0643 11.0782L45.184 10.9598L45.131 10.8857L45.1936 10.7768L45.2752 10.8392L45.5327 10.5589L45.5094 10.4584L45.3833 10.4077L45.3377 10.1771L45.6377 10.1835L45.7182 10.0047L45.8062 9.95394L46.033 9.98461L46.0849 9.8175L46.1422 9.80798L46.1814 9.61126L46.3287 9.52241L46.4145 9.51395L46.4495 9.38809L46.5205 9.39338L46.6117 9.3003L46.6679 9.31934L46.8438 9.23156L46.6689 9.03272L46.7823 9.05598L46.6848 8.71859L47.0017 8.42668L46.8809 8.25957L46.954 8.2363L46.9614 8.09246L46.9254 7.97506L46.7823 7.96342L46.8088 7.72016L46.5788 7.70218L46.5142 7.56786L46.4008 7.52978L46.3912 7.41344L46.2428 7.19873L46.3054 7.10249L46.3923 7.09403L46.4516 7.0697L46.4559 6.98297L46.5608 6.90365L46.6149 6.96605L46.6785 6.84019L46.5778 6.84653L46.5714 6.67202L46.8745 6.68048L46.9212 6.62548L46.8661 6.56308L46.883 6.50597L46.8152 6.39914L46.9742 6.41078L46.9922 6.32511L47.1946 6.33991L47.2041 6.44356L47.4946 6.42241L47.4882 6.24578L47.6906 6.26165L47.697 6.40866L47.8263 6.43404L47.8507 6.52289L47.9365 6.5451L47.9736 6.66461L47.9789 6.82538L48.1209 6.86557L48.1877 6.71115L48.0732 6.68683L48.0383 6.52395L48.1252 6.51548L48.1633 6.34309L48.2778 6.36741L48.3266 6.26905L48.4272 6.2627L48.5046 6.18021L48.9519 6.18761L48.972 6.35049L49.0854 6.38962L49.1087 6.74182L49.0589 6.85394L49.1289 6.88884L49.1755 6.82009L49.4309 6.88461L49.5783 6.82432L49.5963 7.0147L49.5073 7.06547L49.5306 7.15537L49.4437 7.16277L49.4521 7.26431L49.3907 7.31825L49.7934 7.30767L49.8252 7.25267L49.8973 7.25796L49.9079 7.31719L50.1177 7.58161L50.1485 7.74449L50.3488 7.71804L50.3106 7.46844L50.4972 7.44094L50.547 7.15431L51.4171 7.12999L51.4087 7.23152L51.4362 7.23364L51.4055 7.43459L51.7383 7.49382L51.7605 7.55516L51.9428 7.55728L52.0202 7.4769L52.0774 7.46738L52.1262 7.39969L52.2544 7.38171L52.3233 7.24316L52.5332 7.24844L52.5205 7.37854L52.9476 7.84179L52.8649 7.96554L52.7982 8.20668L52.8639 8.38754L52.7324 8.44677L52.7346 8.56312L52.8342 8.67523L52.8618 8.80849L53.4627 8.88359L53.9502 8.84657L54.0467 8.59484L54.4441 8.50706L54.5321 8.58956L54.724 8.49437L54.9465 8.49225L55.0133 8.39706L55.0832 8.39072L55.1267 8.49966L55.1278 8.75032L55.2147 8.84868L55.2719 9.45684L55.5358 9.34473L55.9301 9.54462L56.2099 9.53828L56.2353 9.67366L56.389 9.66626L56.5363 9.94865L57.3334 10.0079L57.3397 10.0671L57.4478 10.083L57.4955 12.1941L57.539 12.2861L57.4129 12.3104L57.1235 12.5378L57.0589 12.614L57.0483 13.2369L57.4256 13.0518L57.5305 13.294L57.7732 13.3162L57.9746 13.4315L57.9237 13.5087L57.8135 13.5204L57.7329 13.6208L57.5231 13.5616L57.0641 13.8609L57.0334 14.0957L56.8108 14.358L56.4579 14.2533L56.3244 14.4585L56.265 14.2829L56.2088 14.303L56.2417 14.3633L56.0732 14.4109L56.017 14.3189L55.9174 14.3612L55.8835 14.5251L55.9735 14.5653L56.1007 14.8477L56.0795 14.9144L56.1537 14.9662L56.2639 14.7303L56.3699 14.7451L56.6381 14.8657L56.3318 15.1576L55.7849 15.3343L55.858 15.5109L55.7436 15.5648L55.5665 15.5828L55.4828 15.7245L55.15 15.5839L55.0292 15.8039L54.9476 15.8218L54.9274 15.8747L54.9868 15.9371L54.848 16.0989L54.5501 16.1169L54.5374 16.2259L54.4622 16.1888L54.3572 16.2862L54.4155 16.3623L54.2661 16.4945L54.4897 16.6458L54.3191 16.7346L54.0827 16.5823L54.0011 16.7092L53.8485 16.76L53.8941 17.0667L53.7563 17.1048L53.7849 17.2042L53.5274 17.0085L53.0949 17.054L53.0441 17.1577L52.9158 17.1154L53.1045 16.8499L53.0674 16.6955L53.1299 16.6066L53.1108 16.5358L53.0483 16.5009L53.1893 16.3115L52.9561 16.1053L52.8077 16.1159L52.7801 16.0027L52.6402 16.0556L52.6106 15.9562L52.5152 15.9731L52.5194 16.0556L52.211 16.1867L52.1527 16.4956L52.0054 16.4935L51.9386 16.6235L51.7542 16.6034L51.5931 16.7367L51.6365 16.8361L51.3642 17.0265L51.2179 17.0244L51.1861 17.0752L51.0504 17.1027L51.0239 17.7796L50.8756 17.5204L50.4315 17.7193L50.5597 18.044L50.494 18.173L50.2661 18.2037L49.9704 18.392L49.804 18.4702L49.6768 18.4046L49.6853 18.1751L49.8687 17.9086L49.8252 17.8102L49.7288 17.842L49.6662 17.6601L49.025 17.8451L48.9328 17.8367L48.8629 17.8716L48.7717 17.8494L48.6498 17.879L48.6996 17.6135L48.5799 17.6029L48.5195 17.53L48.4421 17.3459L48.388 17.3554L48.3255 17.458L48.2873 17.2782L48.0075 17.4305L48.0807 17.6675L47.9111 17.7743L47.8189 17.7669L47.7585 17.6939L47.7373 17.787L47.7977 17.86L47.7722 18.0059L47.7182 18.0144L47.6302 17.9403L47.3653 18.0799L47.0982 17.9097L46.9784 17.9001L46.9445 17.8166L46.7791 17.8705L46.7081 17.7436L46.8555 17.5797L46.9413 17.1799L47.0325 17.0381L46.9869 16.7621L47.0865 16.7018L47.1151 15.9815L46.476 15.9995L46.4124 16.1169L46.1612 16.2068L45.714 16.5421L45.52 16.3909L45.2285 16.4522L45.1067 16.43L45.2444 16.6161L45.2593 16.7949L45.0145 16.981L44.1167 17.0974L43.6313 17.4052L43.3388 16.9535L43.5677 16.8182L43.4331 16.4839L43.2561 16.4194L42.7463 16.5675L42.1973 16.3729L42.0341 16.2555L41.7787 16.3232L41.6716 15.8938L41.5137 15.9678L41.4459 15.9096L41.3462 15.9583L41.3505 15.8356L41.2784 15.9001L41.2837 15.7637L41.2604 15.6389L40.8746 15.4125L40.7463 15.8303L40.3362 15.8768L40.2577 15.7087L40.3934 15.0698L39.9546 14.6457L40.0712 14.541L39.8942 14.3104L40.1878 14.0492L40.0903 13.9741L40.2641 13.4696L40.0765 13.0814L39.819 13.0677L39.7151 12.7113L40.0733 12.7462L40.6139 12.4691L40.6987 12.0957L40.7898 11.5658L41.042 11.3553L41.0569 10.5642Z" fill="#EAFF06"/>
<path d="M26.5881 30.6946L26.4122 30.7877L26.197 30.8332L26.0953 30.9009L26.0041 31.0257L25.9024 31.2404L25.8229 31.4667L25.8112 31.6698L25.7211 31.7153L25.6533 31.8285L25.648 31.9162L24.8086 32.1532L21.8367 33.0913L21.541 30.9157L21.3555 30.4027L21.1859 30.0717L21.2241 29.9469L20.9814 29.6338L20.9559 29.2425L19.7466 28.8829L19.328 28.7094L18.7101 28.0886L18.5818 27.5915L18.2744 27.2044L18.4366 25.9658L18.515 25.4846L18.3751 25.2466L18.3296 24.6744L18.0084 24.3159L18.0826 24.0346L17.9681 23.5438L17.8897 23.4105L17.9575 22.9198L18.018 22.8722L18.0084 22.3761L17.6385 22.3444L17.6375 22.2133L17.4827 22.1011L17.4149 22.2154L17.2803 22.1805L17.2866 22.3634L17.2358 22.6332L17.0111 22.6109L16.8871 22.5485L16.3963 22.4967L16.479 22.2873L16.391 22.0874L16.4504 21.9076L16.3073 21.1831L16.1992 21.1577L16.1059 21.3967L15.9798 21.3343L16.0106 21.2508L15.7604 21.1376L15.5972 20.9874L15.5781 20.6945L15.7138 20.2323L15.6417 20.0673L15.77 20.1307L15.8537 19.9171L16.0127 19.7743L16.214 19.7754L16.2511 19.622L16.5055 19.6167L16.6815 19.6484L16.8839 19.5289L16.8362 19.4411L16.9793 19.2613L17.0227 19.1482H17.2506L17.1298 19.0011L17.328 18.6532L17.3206 18.559L17.4128 18.3729L17.3863 18.2121L17.2474 18.1466L17.2411 18.0651L17.1436 18.0355L17.1361 17.7637L17.1743 17.5405L17.0196 17.3258L17.2389 17.0931L17.204 17.0011L17.4636 16.6923L17.4318 16.6468L17.4954 16.6891L17.5336 16.6753L17.6534 16.4881L17.7275 16.4469L17.7678 16.3792L17.7339 16.2343L17.6512 16.045L17.6173 15.8102L17.6799 15.678L17.7222 15.5384L17.7837 15.5606L17.8335 15.5542L17.9045 15.5934L17.9385 15.5923L17.965 15.5733L17.983 15.5902L17.9936 15.6515L18.0413 15.6663L18.0752 15.7192L18.1186 15.7023L18.1155 15.6399L18.1632 15.6283L18.1759 15.5997L18.2098 15.6029L18.2267 15.5786L18.2787 15.5743L18.3052 15.587L18.355 15.5236L18.3444 15.459L18.4324 15.4157L18.4991 15.4548L18.5373 15.5003L18.5479 15.5764L18.5341 15.6135L18.4673 15.697L18.4514 15.7383L18.4673 15.7785L18.5256 15.8313L18.6242 15.8937L19.0556 16.2967L19.0927 16.3115L19.1563 16.2512L19.3237 16.2607L19.3661 16.3602L19.4986 16.4289L19.7106 16.5929L19.7498 16.5939L19.7943 16.5569L19.8356 16.4606L20.001 16.3644L20.1027 16.3348L20.3274 16.2153L20.4355 16.1148L20.5521 16.0302L20.6295 16.0006L20.656 15.972L20.6666 15.9371L20.6539 15.8335L20.6592 15.7266L20.7397 15.4601L20.7726 15.4136L20.815 15.3988L20.9867 15.4865L21.1128 15.4876L21.1711 15.4358L21.1933 15.293L21.223 15.2782L21.3184 15.2983L21.3555 15.2729L21.3672 15.2221L21.3364 15.0846L21.3354 14.9863L21.4043 14.908L21.4148 14.9048L21.4668 14.9704L21.4848 15.037L21.594 15.0963L21.6915 15.2285L21.789 15.2338L21.8865 15.2866L21.9119 15.2655L21.9278 15.1777L21.8865 15.0645L21.8674 14.9492L21.8801 14.9397L21.9999 14.9366L22.0412 14.9217L22.0921 14.9281L22.1981 15.0127L22.2405 15.0212L22.3518 14.9503L22.391 14.9693L22.4355 15.0159L22.4853 15.0265L22.6941 14.9482L22.816 14.8847L22.8552 14.9292L22.8913 15.054L22.958 15.1068L23.0375 15.1396L23.0905 15.2285L23.0948 15.3416L23.1583 15.4241L23.3449 15.5511L23.4869 15.5923L23.5219 15.5796L23.5282 15.5563L23.4996 15.4865L23.5081 15.4612L23.6787 15.3797L23.7837 15.3808L23.8398 15.4844L23.9268 15.4463L23.9585 15.3311L23.9723 14.9196L23.9893 14.7726L24.0391 14.7472L24.1207 14.7409L24.1684 14.8149L24.232 14.8615L24.2649 14.8562L24.2903 14.8234L24.3433 14.8107L24.3814 14.8868L24.4715 14.8847L24.498 14.9239L24.5987 14.8297L24.6284 14.8266L24.6782 14.7843L24.7015 14.8202L24.693 14.89L24.7121 14.9376L24.8669 14.9736L24.8785 14.963L24.8658 14.9281L24.8753 14.8995L24.9294 14.8868L24.9506 14.8583L24.9358 14.7642L24.9856 14.7409L25.0205 14.7049L25.0375 14.7144L25.0555 14.6954L25.0725 14.706L25.0958 14.6711L25.1657 14.6996L25.2293 14.8995L25.259 14.9397L25.312 14.9492L25.4318 14.9217L25.5346 14.9334L25.6173 14.9503L25.6575 14.9968L25.737 15.1618L25.7328 15.2063L25.6904 15.2634L25.6596 15.3871L25.6745 15.5997L25.7264 15.7573L25.7741 15.7859L25.8377 15.7922L26.0179 15.7245L26.0974 15.7309L26.1217 15.7658L26.0974 15.8694L26.1133 15.9382L26.2553 16.0058L26.2977 16.1201L26.3634 16.1708L26.4779 16.1867L26.5669 16.1613L26.6157 16.1645L26.763 16.2174L26.9993 16.2438L27.0534 16.266L27.0884 16.3221L27.1276 16.3337L27.1763 16.2925L27.3533 16.3348L27.4932 16.2967L27.5335 16.2978L27.6639 16.4765V16.5019L27.6194 16.522L27.6141 16.541L27.6172 16.7356L27.6204 16.761L27.6437 16.7663L27.8059 16.6838L28.1673 16.5918L28.2638 16.541L28.3984 16.3168L28.6156 15.7499L28.6771 15.6611L28.7492 15.6314L28.8891 15.6515L28.9813 15.6991L29.0014 15.7287L29.0067 15.8768L29.2579 16.1899L29.3374 16.2343L29.5865 16.265L29.8101 16.2819L30.0242 16.2703L30.1514 16.2956L30.3104 16.2935L30.5149 16.2206L30.6803 16.2121L31.5419 15.862L31.5907 15.8208L31.6225 15.7351L31.684 15.3321L31.8705 14.3929L32.0433 14.3347L32.18 14.4014L32.3316 14.3347L32.4238 14.174L32.5679 14.3961L32.5859 14.6044L32.6877 14.9461L32.8551 15.0116L32.9643 14.8593L33.0194 14.8192L33.3247 15.0021V15.129L33.2558 15.1407L33.1869 15.3787L33.5578 15.7393L33.3247 15.9011L33.366 16.0831L33.3649 16.2777L33.6532 16.1878L33.8419 17.146L34.1143 17.5786L34.1556 17.7436L34.6039 18.412L34.6442 18.577L34.5446 18.926L34.2181 18.6585L33.8896 18.9493L33.8599 19.2878L33.5345 19.4856L33.6013 19.8504L33.6681 19.9456L33.4253 19.8621L33.2505 20.0895L33.3575 20.2111L33.7338 20.8468L33.6659 20.8986L33.6257 20.8584L33.3172 20.9081L33.2642 21.0551L33.5313 21.0308L33.6786 21.5395L34.2531 22.1064L34.6983 21.8642L34.9123 22.0546L34.9251 22.1731L34.7883 22.355L34.8668 22.6205L35.5387 22.8479L35.6585 22.9822L35.9945 23.1091L36.3283 23.3418L36.7724 24.1879L37.1497 24.8468L37.3373 24.9304L36.8805 25.4328L34.4513 27.1272L34.2966 27.1769L34.2065 27.0478L33.614 26.9558L33.703 26.7506L33.1349 26.0293L32.8774 26.0684L32.7078 25.7458L32.3559 25.217L31.1042 25.5047L30.3952 27.3969L29.5335 27.326L29.4741 27.9775L28.8424 28.0293L28.0126 28.7983L27.8387 29.069L27.6013 29.3281L27.1488 30.0061L26.5881 30.6946Z" fill="#EAFF06"/>
<path d="M66.5951 26.9759L66.841 27.1356L66.9438 27.2562L67.2035 27.2795L67.3042 27.5375L68.221 27.4349L68.8675 28.3392L69.8479 27.9976L70.2877 28.1795L70.2793 28.3911L70.9841 28.6999L71.5829 29.0341L72.2231 29.05L72.3386 29.2255L72.4361 29.2224L72.5516 29.1473L72.612 29.2985L72.6788 29.3757L72.771 29.2456L72.8314 29.2467L72.7541 29.3673L72.823 29.3821L72.895 29.3853L72.9671 29.4392L73.0339 29.3165L73.0826 29.3144L73.0445 29.418L72.9406 29.4953L72.9692 29.527L73.0593 29.509L72.9862 29.6052L73.6687 30.4038L73.8298 31.0119L74.1637 31.3747L74.1001 31.8189L74.1255 31.986L74.2008 32.0516L74.4138 31.9755L74.4488 32.0231L74.63 32.132L74.7064 32.1997L75.0625 32.2758L75.0911 32.316L75.1462 32.5254L75.0678 32.8988L74.8494 33.2203L74.7403 33.1442L74.4795 32.9125L74.3693 32.885L74.2029 32.92L74.0842 32.9675L73.8871 33.1029L73.7556 33.1156L73.6952 33.0807L73.6592 32.9739L73.6391 32.9633L73.5288 32.9919L73.4758 32.976L73.4621 32.8586L73.4387 32.8131L73.4133 32.6799L73.337 32.6217L73.2978 32.5529L73.2109 32.5053L73.1907 32.5371L73.1483 32.5582L73.0805 32.5424L72.9819 32.6206L72.9523 32.6788L72.8759 32.6968L72.8452 32.7391L72.7901 32.7719L72.6884 32.7888L72.6566 32.7327L72.6438 32.7349L72.5453 32.8279L72.4806 32.8131L72.4584 32.7941L72.3958 32.8533L72.293 32.8702L72.2527 32.8576L72.2379 32.8787L72.1605 32.903L72.1309 32.9591L72.1086 32.9644L72.01 32.9348L72.0058 32.9697L71.9751 33.0025L71.9698 33.0395L71.9475 33.0638L71.9051 33.0617L71.8246 33.0892L71.6931 33.0849L71.5681 33.1918L71.4928 33.1992L71.4165 33.1505L71.2819 33.1124L71.2353 33.0659L71.2204 33.0723L71.2088 33.1347L71.1685 33.1717L70.983 33.2499L70.8855 33.2373L70.7922 33.251L70.7509 33.2182L70.7032 33.2288L70.6523 33.2722L70.6152 33.3737L70.5198 33.4403H70.4393L70.398 33.3853L70.3704 33.3769L70.3121 33.3991L70.2347 33.4636L70.186 33.4795L70.0959 33.4847L70.045 33.4382L69.974 33.4446L69.9051 33.4266L69.8882 33.4551L69.9136 33.5133L69.9072 33.5397L69.8765 33.5228L69.8458 33.5292L69.7271 33.6593L69.5183 33.7915L69.4854 33.8285L69.4324 33.8443L69.4091 33.8814L69.4324 33.9067L69.4875 33.8676L69.5331 33.8666L69.6009 33.912L69.655 33.9194L69.7154 34.0982L69.7991 34.1437L69.9655 34.1183L70.0312 34.0591L70.186 34.0813L70.2591 34.0263L70.311 34.0326L70.3428 34.0686L70.3312 34.1045L70.3492 34.1141L70.4372 34.0887L70.4859 34.1849L70.6555 34.2695L70.7286 34.3404L70.7392 34.4165L70.5633 34.4758L70.4796 34.5604L70.5675 34.6958L70.541 34.755L70.4859 34.9845L70.4414 35.0628L70.4838 35.2013L70.5241 35.525L70.5654 35.6466V35.8729L70.5951 36.0675L70.6566 36.2209L70.6428 36.2801L70.646 36.3087L70.6756 36.3468L70.6703 36.4272L70.7785 36.6651L70.7721 36.7519L70.806 36.9073L70.8442 36.9348L70.9502 37.1707L71.2109 37.8264L71.2427 37.8687L71.2702 37.9682L71.2459 38.0538L71.249 38.1088L71.1971 38.1617L71.0954 38.3796L71.0996 38.3997L71.124 38.4304L71.2681 38.4208L71.2967 38.4335L71.301 38.5118L71.3434 38.5964L71.3455 38.6673L71.3815 38.7529L71.3349 38.8397L71.2702 38.845L71.2225 38.8852L71.1696 38.8534L71.1123 38.8428L70.9565 38.8873L70.7689 39.0417L70.5792 39.0956L70.5357 39.1453L70.5347 39.2331L70.5675 39.2945L70.6354 39.3611L70.7297 39.4224L70.9056 39.4679L70.9512 39.5473L70.9459 39.5599L70.9237 39.5557L70.8654 39.5874L70.842 39.5631L70.8336 39.5874L70.7975 39.6012L70.7636 39.5864L70.7498 39.616L70.5993 39.6795L70.6004 39.707L70.5548 39.7376L70.523 39.726L70.4679 39.7482L70.4669 39.7249L70.4096 39.7471L70.399 39.7165L70.3799 39.7154L70.2676 39.7345L70.2612 39.8191L70.2273 39.9037L70.186 40.0793L70.1129 40.1501L70.0811 40.2686L70.1023 40.3796L70.168 40.5161L70.2294 40.5732L70.2856 40.5785L70.3079 40.6039L70.2687 40.6493L70.1817 40.6927L70.169 40.7551L70.1658 40.8482L70.2093 40.9085L70.2061 41.0586L70.3026 41.1274L70.2782 41.2109L70.328 41.2797L70.31 41.3812L70.2422 41.4204L70.204 41.4225L70.1669 41.3929L70.1425 41.3918L70.0832 41.4405L70.0514 41.4341L69.9963 41.4722L69.9804 41.4627L69.9666 41.4151L69.9836 41.2776L69.9454 41.2194L69.9115 41.1232L69.8638 41.0925L69.7832 41.0724L69.7006 40.9931L69.6666 40.8958L69.637 40.8429L69.6126 40.827L69.4896 40.8186L69.4706 40.8598L69.443 40.8672L69.4271 40.8471V40.809L69.4123 40.8038L69.3211 40.7963L69.2883 40.7752L69.2385 40.7826L69.2109 40.7382L69.0456 40.7117L68.9459 40.7815L68.858 40.7667L68.7276 40.7688L68.6757 40.6821L68.4912 40.534L68.4414 40.4251L68.416 40.4008L68.2952 40.3077L68.1977 40.2813L68.1595 40.2316L68.1288 40.2199L68.044 40.0718L68.0228 39.9566L68.0323 39.9047L68.0567 39.8709L68.044 39.8593L67.9942 39.8603L67.8839 39.8963L67.8511 39.9671L67.8299 39.9809L67.7673 39.8994L67.7303 39.8783L67.6497 39.8878L67.5904 39.8656L67.5321 39.8825L67.4759 39.8445L67.3678 39.8233L67.3148 39.7947L67.2607 39.8L67.1993 39.7471L67.1367 39.7503L67.107 39.7281L67.0307 39.7556L66.9724 39.6773L66.7615 39.6287L66.7149 39.5547L66.6354 39.525L66.4563 39.5991L66.3906 39.5747L66.3556 39.6435L66.3047 39.6594L65.9899 39.5874L65.9475 39.653L65.8447 39.635L65.7949 39.6509L65.7451 39.707L65.7048 39.6488L65.6677 39.6266L65.6359 39.6276L65.5586 39.6752L65.4929 39.6044L65.4282 39.6245L65.3519 39.5874L65.2809 39.5917L65.2438 39.5758L65.1823 39.506L65.0138 39.5166L64.8877 39.4891L64.7647 39.487L64.6566 39.4468L64.557 39.4584L64.4934 39.4351L64.2751 39.4923L64.1023 39.4975L64.0271 39.4743L63.9666 39.3907L63.9295 39.3685L63.7462 39.3495L63.6561 39.3643L63.4219 39.3029L63.2512 39.305L63.1611 39.3928L63.0647 39.4066L63.0308 39.4944L62.9979 39.5208L62.7605 39.4997L62.6757 39.5081L62.5687 39.4827L62.5093 39.5663L62.4256 39.5747L62.2253 39.6319L62.1755 39.6297L62.1596 39.616L62.1278 39.5198L62.0631 39.4817L61.7875 39.47L61.584 39.5081L61.5586 39.4965L61.5258 39.451L61.4304 39.4404L61.3615 39.3833L61.2968 39.415L61.2279 39.3949L61.1283 39.4457L61.1124 39.4478L61.0912 39.3484L60.9842 39.3949L60.8697 39.323L60.6704 39.3452L60.6471 39.2998L60.7658 39.2638L60.8209 39.1517L60.433 38.9687L60.2338 38.9275L60.185 38.7265L60.1055 38.6916L60.1341 38.57L60.0557 38.5234L60.079 38.2844L60.3525 37.9534L60.2783 37.8286L59.9699 37.8666L60.0006 37.7683L59.884 37.7535L59.8141 37.8011L59.4664 37.6794L59.4654 37.4975L59.9158 37.0702L59.9942 37.0332L60.043 36.901L59.9953 36.6969L60.0864 36.5921L60.1331 36.4695L60.1235 36.1162L59.9094 35.9702L59.7929 35.8127L59.6646 35.7947L59.4675 35.6138L59.4325 35.6096L58.9725 35.5599L58.5793 35.1844L58.5125 35.0797L58.6069 34.7328L58.4097 34.3933L57.7484 33.9311L57.7081 33.8052L57.6275 33.709L57.6106 33.3557L57.0329 33.3409L56.9958 32.8004L57.618 32.8459L57.5056 32.5508L57.4166 31.472L57.6127 31.142L57.778 30.7814L57.9582 30.4842L58.1946 30.2187L58.6323 29.7702L59.193 29.2647L60.3705 28.5888L60.8612 28.6872L61.4908 28.5709L62.1935 28.6946L62.1914 28.7813L62.3101 28.8131L62.451 28.647L62.5083 28.8194L62.5718 28.7422L62.7594 28.8099L62.8241 28.6576L62.9576 28.6787L63.1474 28.7348L63.46 28.8733L63.2374 28.6491L63.3805 28.6227L63.5978 28.7337L63.8024 28.7052L64.008 28.8141L64.0758 28.9876L64.2305 28.9643L64.2274 28.776L64.8516 28.7062L64.7626 27.1536L64.8188 27.0499L65.3508 27.1684L65.6529 26.8299L65.9158 27.106L66.2475 26.684L66.5951 26.9759Z" fill="#EAFF06"/>
<path d="M7.67409 30.0431L7.65925 30.0558L7.62745 30.0484L7.56386 29.9162L7.54266 29.9046L7.55962 29.8845L7.50239 29.7576L7.49179 29.6729L7.44409 29.6211L7.43667 29.5968L7.44833 29.5799L7.48013 29.5682L7.59247 29.6126L7.69422 29.7269L7.7292 29.858L7.67409 30.0431ZM15.5977 20.9874L15.7599 21.1387L16.01 21.2508L15.9793 21.3354L16.1043 21.3978L16.1976 21.1588L16.3057 21.1842L16.4488 21.9086L16.3894 22.0885L16.4763 22.2883L16.3947 22.4978L16.8844 22.5496L17.0084 22.612L17.2331 22.6342L17.284 22.3645L17.2787 22.1815L17.4133 22.2164L17.48 22.1022L17.6358 22.2143V22.3455L18.0057 22.3772L18.0153 22.8732L17.9549 22.9198L17.887 23.4105L17.9655 23.5438L18.0799 24.0345L18.0057 24.3159L18.3269 24.6744L18.3725 25.2466L18.5124 25.4846L18.4339 25.9669L18.2718 27.2044L18.5791 27.5925L18.7074 28.0896L19.3253 28.7094L19.7439 28.8829L20.9532 29.2425L20.9787 29.6338L21.2214 29.9458L21.1832 30.0706L21.3518 30.4017L21.1673 30.2917L21.0062 30.3033L20.9098 30.2134L20.7678 30.2864L20.5494 30.2208L20.4954 30.0558L20.4042 30.0156L20.2993 30.0875L20.1933 30.0251L20.0396 29.9807L20.0057 29.8866L20.0386 29.7237L19.9676 29.5111L19.8669 29.4974L19.8075 29.5291L19.7757 29.582L19.7153 29.601L19.5818 29.5185L19.3327 29.1663L18.8473 29.6465L18.6194 29.6148L17.8054 29.6994L17.4111 29.8527L17.0995 29.8601L16.9088 29.9363L16.7752 29.968L16.6491 29.9617L16.5028 29.9955L16.4615 30.0632L16.1435 30.0241L16.1722 30.1552L16.0609 30.3678L15.5924 30.7158L15.8086 30.8427L15.6751 30.9707L15.4663 31.0965L15.2172 31.2034L15.0699 31.2235L14.9321 31.3144L14.6141 31.2721L14.5484 31.4361L14.2707 31.4212L13.7991 31.3049L13.7959 31.2785L13.8733 31.2912L13.9104 31.2753L13.832 31.2478L13.8192 31.2214L13.8267 31.1505L13.8701 31.1315L13.8638 31.0828L13.8839 31.0659L14.0429 31.05L13.9591 31.0014L13.9454 30.9569L13.9729 30.9284L14.0566 30.9062L14.0111 30.8554L13.9825 30.7824L13.9326 30.7422L13.921 30.7052L13.939 30.6862L14.0291 30.6851L14.0588 30.6301L13.9443 30.5296L13.903 30.5138L13.8404 30.4397L13.8839 30.3826L13.956 30.3837L13.8828 30.3477L13.8743 30.3065L13.8457 30.297L13.868 30.261L13.8638 30.2197L13.922 30.1753L14.0121 30.187L13.9793 30.132L14.0111 30.1108L13.9676 30.096L13.9613 30.0674L14.0333 30.0283L14.0842 29.9437L14.1255 29.9913L14.1192 29.949L14.133 29.9088L14.1202 29.895L14.0916 29.9046L14.0715 29.8707L14.099 29.8263L14.1054 29.7671L14.152 29.7004L14.1595 29.6201L14.2866 29.4836L14.3439 29.4646L14.2898 29.4445L14.2845 29.4265L14.3502 29.417L14.3619 29.4011L14.3184 29.3768L14.2771 29.3102L14.1891 29.2319L14.2188 29.0711L14.1944 28.9632L14.2718 28.8882L14.1902 28.8575L14.2188 28.7877L14.1785 28.6407L14.1573 28.6343L14.1287 28.6491L14.098 28.6343L14.0513 28.666L14.0238 28.6534L14.0482 28.6058L14.0853 28.5941L14.0185 28.5264L13.9962 28.5349L13.9793 28.5233L13.9962 28.4503L14.0354 28.4207L14.01 28.3678L13.9676 28.3509L13.9549 28.3583L13.9051 28.4397L13.8033 28.5L13.7472 28.5888L13.745 28.665L13.7101 28.6618L13.674 28.6364L13.6783 28.5835L13.6603 28.5518L13.6687 28.5169L13.6963 28.4894L13.6836 28.4439L13.6465 28.4196L13.6073 28.4355L13.5808 28.4693L13.5596 28.463L13.5638 28.3836L13.5808 28.3572L13.5437 28.3445L13.5362 28.3149L13.4515 28.2811L13.4398 28.262L13.4493 28.244L13.4875 28.2546L13.532 28.2049L13.514 28.1795L13.5246 28.1288L13.5013 28.0886L13.4536 28.0558L13.1483 28.115L13.0688 28.2017L13.0212 28.225L12.9957 28.2208L12.9586 28.1383L12.912 28.1298L12.8558 28.3847L12.8314 28.4133L12.77 28.4386H12.6799L12.5272 28.3551L12.3238 28.3181L12.1733 28.2345L12.0651 28.2462L12.0185 28.2218L12.0164 28.1986L11.991 28.2091L11.9793 28.1838L11.8468 28.1372L11.6984 28.115L11.6232 28.1192L11.5447 28.0632L11.5575 28.1774L11.6052 28.2239L11.6582 28.2504L11.6868 28.299L11.6793 28.4207L11.6518 28.4767L11.638 28.4672L11.6497 28.501L11.6359 28.5021L11.5999 28.4048L11.6179 28.317L11.5744 28.2715L11.5373 28.2662L11.5267 28.225L11.4854 28.188L11.4356 28.0018L11.4186 28.0029L11.4154 28.0378L11.3932 28.0399L11.3667 28.078L11.3148 28.0875L11.2448 28.1594L11.2225 28.17L11.2098 28.152L11.2649 28.0949L11.3169 28.0653L11.3381 27.9807L11.3571 27.9796L11.3624 27.9627L11.3455 27.9341L11.3805 27.9056L11.3879 27.8485L11.2936 27.8982L11.2172 27.9913L11.2628 27.9024L11.2618 27.8696L11.1441 27.7342L10.8749 27.6549L10.7922 27.6676L10.7647 27.6454L10.7096 27.6697L10.6078 27.6359L10.5612 27.6581L10.5198 27.656L10.3746 27.7808L10.3418 27.7829L10.3121 27.8051L10.2962 27.8823L10.2623 27.8739L10.2294 27.8929L10.1288 27.8897L10.0811 27.8665L10.0302 27.8654L9.91572 27.8093L9.81821 27.8326L9.77582 27.8601L9.7313 27.9225L9.71434 27.931L9.69527 27.9109L9.66347 27.9172L9.56914 28.0928L9.51403 28.1457L9.47269 28.1478L9.45467 28.1277L9.47481 28.0463L9.46633 28.0082L9.43984 27.9944L9.41016 28.0082L9.34233 28.0579L9.28933 28.1277L9.2745 28.2377L9.21832 28.3858L9.19288 28.4111L9.15685 28.4027L9.13459 28.371L9.16109 28.2779L9.14731 28.2578L9.07842 28.3138L9.04768 28.3128L9.0286 28.189L8.97773 28.1118L8.87598 28.2832L8.85479 28.3445L8.81769 28.3836L8.80285 28.3889L8.77741 28.3572L8.79437 28.2631L8.77 28.262L8.7117 28.2969L8.68097 28.3382L8.70004 28.3636L8.63009 28.4207L8.5771 28.5307L8.55272 28.6237L8.51562 28.6809L8.48807 28.6491L8.47959 28.4323L8.34075 28.5793L8.27927 28.6227L8.13089 28.8437L8.10545 28.9347L7.96449 28.8966L7.8903 28.9315L7.80869 29.0605L7.81929 29.161L7.79067 29.2023L7.73662 29.2287L7.7027 29.2774L7.61367 29.2478L7.5575 29.2023L7.584 29.2837L7.5681 29.3482L7.66773 29.4286L7.64653 29.4381L7.584 29.4085L7.56916 29.4254L7.65501 29.4952L7.68786 29.5502L7.67832 29.5735L7.62215 29.5577L7.48967 29.4804L7.44515 29.4752L7.3911 29.5629L7.35506 29.5577L7.32645 29.527L7.30313 29.5333L7.28405 29.619L7.31161 29.6698L7.27345 29.71L7.24802 29.6941L7.21304 29.619L7.15899 29.5545L7.14097 29.5555L7.15157 29.637L7.1876 29.6941L7.18972 29.7258L7.2512 29.7882L7.26391 29.8432L7.25014 29.8591L7.11023 29.7776L7.04134 29.7226L7.03074 29.6983L6.98199 29.6973L6.89614 29.6338L6.87282 29.6349L6.85374 29.6708L6.79439 29.5481L6.76895 29.5344L6.77531 29.4921L6.76153 29.4635L6.78379 29.4265L6.8495 29.4455L6.76577 29.3525L6.77107 29.3144L6.75941 29.2922L6.65237 29.2541L6.60573 29.2604L6.58983 29.2731L6.62693 29.3165H6.66614L6.68628 29.3377L6.69582 29.3715L6.68416 29.4138L6.7096 29.5101L6.81771 29.6285L6.82937 29.6708L6.81453 29.7142L6.85904 29.7417L6.87176 29.766V29.7956L6.8548 29.8147L6.81877 29.8168L6.79863 29.8538H6.77849L6.7149 29.8051L6.72126 29.7787L6.68628 29.6581L6.69582 29.6137L6.66826 29.6031L6.67992 29.5735L6.61951 29.4254L6.55274 29.363L6.46371 29.3123L6.46053 29.2901L6.43615 29.271L6.39588 29.2636L6.41177 29.2879L6.40224 29.3006L6.34924 29.2615L6.34288 29.2721L6.39058 29.3736L6.44357 29.3969L6.45099 29.3578L6.47537 29.3757L6.48809 29.4202L6.51988 29.4551L6.51034 29.4878L6.52624 29.5354L6.49974 29.5312L6.45629 29.472L6.39164 29.4318L6.38316 29.4508L6.41284 29.473L6.43721 29.5354L6.38846 29.5545L6.3927 29.4868L6.34712 29.4466L6.31321 29.3874L6.31851 29.3641L6.33864 29.3525L6.29625 29.3133L6.25915 29.3123L6.24961 29.326L6.27505 29.3821L6.24432 29.4011L6.28777 29.4424L6.29307 29.4836L6.3344 29.5376L6.39058 29.5862L6.38422 29.6105L6.27081 29.5492L6.06626 29.4921L6.03022 29.435L5.94861 29.3853L5.89032 29.3736L5.78433 29.3207L5.69848 29.2382L5.62641 29.2446L5.55328 29.142L5.52572 29.0658L5.45471 29.0278L5.41973 29.0288L5.37946 28.9971L5.31375 28.9876L5.24379 28.849L5.20034 28.8765L5.07951 28.8511L5.04772 28.8173L5.05832 28.7623L5.04984 28.7411L4.97989 28.7327L4.92053 28.7041L4.92159 28.6417L4.98306 28.4788L5.12615 28.3572L5.28195 28.3657L5.3466 28.4154L5.35932 28.5021L5.47591 28.6153L5.57765 28.6269L5.81083 28.5994L5.89668 28.5285L5.99842 28.3784L5.92741 28.1753L5.53738 27.6486L5.43881 27.4212L5.29043 27.0531L5.25333 26.9251L5.1802 26.4333L4.90357 26.428L4.71386 26.3752L4.50188 26.0367L4.41073 25.8199L4.30474 25.6348L4.03766 25.3767L3.93273 25.364L3.849 25.3905L3.49606 25.4254L3.28621 25.4296L3.01064 25.3429L2.71281 25.216L2.71705 25.2995L2.6948 25.4666L2.64816 25.639L2.27721 25.419L2.1585 25.2985L2.11081 25.216L2.19878 25.1705L2.20725 25.1514L2.01966 24.8162L1.91049 24.6533L2.16062 24.5306L2.20195 24.4671L2.27721 24.4745L2.30052 24.4132L2.07265 24.3317L2.06841 24.2757L2.11716 24.1752L2.11187 24.0864L2.09173 24.0324L2.07265 24.006L1.9497 23.951L1.90625 23.8801L2.21785 23.9838L2.4595 23.9711L3.50772 24.135L5.32434 24.337L5.89456 24.4967L6.90356 24.8955L6.88766 24.5782L7.52888 24.6131L7.64123 24.5221L7.98781 24.5306L8.4054 24.1033L9.53734 23.345L9.66665 23.3418L9.85955 23.1588L9.94434 23.2011L10.1341 23.0848L10.2485 22.7262L10.6746 22.6966L10.9194 22.5845L11.7906 22.7347L11.8457 22.8468L11.7747 22.8965L11.7588 23.1503L12.4191 23.3005L12.4923 23.1715L12.5824 23.1588L13.0349 23.4148L13.2564 23.4095L13.4016 23.3217L13.355 23.1694L13.4981 22.5633L13.7472 22.5528L13.7154 21.7965L13.8977 21.8769L14.0206 21.5914L14.1478 21.6527L14.8632 21.6538L15.1822 21.5533L15.1282 21.4274L15.5267 21.09L15.5977 20.9874Z" fill="#EAFF06"/>
<path d="M56.8107 14.358L57.5209 14.615L57.5293 14.854L57.6194 14.9926L57.5283 15.2718L57.4827 15.5161L57.4944 15.8366L57.3841 15.862L57.328 15.9783L57.417 16.1158L57.2644 16.2597L57.5675 16.5928L57.8717 16.5135L58.1684 16.4892L58.3348 16.3496L58.3624 16.4363L58.6994 16.5019L58.8128 16.6436L58.6941 16.7356L58.8309 17.0857L58.975 16.725L59.2633 17.0318L59.382 17.0371L59.541 17.3099L59.4689 17.3522L59.5251 17.5119L59.7625 17.6061L59.7964 17.7341L59.7265 17.7637L59.7572 17.8229L59.6459 17.8589L59.6247 17.8282L59.3438 17.9466L59.347 18.0154L59.2156 18.1032L59.2866 18.3454L59.4191 18.339L59.4583 18.4268L59.665 18.3655L60.0911 18.0556L60.1907 17.9223L60.7948 17.9424L60.8679 17.9012L60.8966 17.7975L60.9951 17.7594L61.0863 17.8567L61.8102 17.6579L62.0773 17.8144L62.1748 17.7912L62.2702 17.5352L62.3179 17.5712L62.48 17.4781L62.7121 17.4527L62.9432 17.5902L63.0205 17.4548L63.0078 17.1386L63.1361 16.6288L63.3481 16.4226L63.7455 16.32L64.1101 16.705L64.5404 16.7219L64.8796 16.9387L65.0015 17.3713L64.8372 17.5966L65.0746 17.7658L65.028 17.9466L64.7248 18.1984L64.5627 18.4236L64.2712 18.5569L64.1801 18.6204L63.9925 18.6257L63.9352 18.87L63.9978 18.9631L63.9501 19.1556L64.0041 19.3005L63.9617 19.4665L63.7784 19.7542L63.2421 19.9509L62.7556 20.1847L62.7248 20.3655L62.8902 20.5548L62.8849 20.6606L63.0587 20.7177L63.3682 20.9726L63.3735 21.1715L63.5399 21.2677L63.7391 21.475L63.542 21.5586L63.4996 21.4983L63.3279 21.5871L63.3459 21.7087L63.2982 21.9118L63.4434 22.2006L64.2871 22.062L64.3719 22.3137L64.285 22.6522L64.2871 22.7833L63.9077 23.1725L63.7497 23.1186L63.6448 23.1271L63.5378 23.2254L63.5611 23.3862L63.3979 23.4359L63.4742 23.5924L63.6522 23.6749L63.6808 23.8103L64.0031 23.8019L64.1006 23.8315L64.056 23.9404L63.8748 23.9478L63.8208 24.1065L64.0857 24.3476L64.2935 24.3317L64.4397 24.4481L64.056 24.5877L64.179 24.7643L64.038 24.7654L64.0189 25.0192L63.9172 25.015L63.8155 25.4476L63.6915 25.7215L63.7338 25.8431L63.7805 25.8643L63.8886 26.3297L63.9108 26.4862L63.7232 26.4037L63.5282 26.4344L63.5388 26.666L63.4509 26.8796L63.2887 26.941L63.4731 27.0362L63.5802 27.2181L63.7805 27.3662L64.0868 27.4804L64.1864 27.2065L64.3147 27.1271L64.5574 27.2456L64.763 27.1536L64.852 28.7062L64.2277 28.776L64.2309 28.9643L64.0762 28.9876L64.0084 28.8141L63.8027 28.7052L63.5982 28.7337L63.3809 28.6227L63.2378 28.6491L63.4604 28.8733L63.1477 28.7348L62.958 28.6787L62.8245 28.6576L62.7598 28.8099L62.5722 28.7422L62.5086 28.8194L62.4514 28.647L62.3104 28.813L62.1917 28.7813L62.1938 28.6946L61.4911 28.5708L60.8616 28.6872L60.3709 28.5888L59.1933 29.2647L58.6327 29.7702L58.1949 30.2187L57.9586 30.4842L57.7784 30.7814L54.3741 30.7422L52.4017 30.8152L52.0371 30.7888L50.3858 30.8311L47.468 30.8374L43.5719 30.7761L43.539 30.4905L43.4394 30.4609L42.6222 30.5064L39.9333 29.7776L39.5528 29.5661L39.1776 29.143L38.7484 29.106L37.7129 28.5497L37.5009 28.5433L36.4675 28.1404L36.3774 28.0494L36.1782 28.1721L35.5677 27.8305L35.2942 27.8516L34.9837 27.6433L34.7378 27.4116L33.8867 27.5692L34.4538 27.1271L36.883 25.4328L37.3398 24.9304L37.1522 24.8468L36.7749 24.1879L37.3567 23.6601L37.2423 23.2921L38.0107 23.1228L37.8528 22.9208L37.9238 22.8066L37.8464 22.6194L38.2831 22.6363L38.3891 21.8399L39.9778 22.1022L40.1304 22.0165L40.2799 22.0366L40.5141 21.9541L40.6508 21.6188L41.2921 21.5956L41.911 20.9144L42.2248 20.8774L42.3583 20.4089L42.6286 20.4364L42.7388 20.1635L43.0536 19.8769L43.4881 19.623L44.1739 18.8383L44.6317 18.2513L44.5353 18.0566L44.5936 17.9932L44.5215 17.8536L44.5946 17.7637L44.938 17.7192L45.3164 17.5574L45.4605 17.4326L45.5263 17.275L45.6439 17.1481L45.6089 17.0635L45.3864 16.9387L45.3768 16.871L45.2592 16.7949L45.2443 16.6161L45.1066 16.43L45.2284 16.4522L45.5199 16.3908L45.7139 16.5421L46.1611 16.2068L46.4123 16.1169L46.4759 15.9995L47.115 15.9815L47.0864 16.7018L46.9868 16.7621L47.0323 17.0381L46.9412 17.1798L46.8553 17.5796L46.708 17.7436L46.779 17.8705L46.9444 17.8166L46.9783 17.9001L47.0981 17.9096L47.3651 18.0799L47.6301 17.9403L47.7181 18.0143L47.7721 18.0059L47.7976 17.8599L47.7372 17.7869L47.7584 17.6939L47.8188 17.7668L47.911 17.7742L48.0806 17.6674L48.0074 17.4305L48.2872 17.2782L48.3254 17.458L48.3879 17.3554L48.442 17.3459L48.5193 17.5299L48.5798 17.6029L48.6995 17.6135L48.6497 17.879L48.7716 17.8493L48.8627 17.8716L48.9327 17.8366L49.0249 17.8451L49.6661 17.66L49.7287 17.8419L49.8251 17.8102L49.8686 17.9086L49.6852 18.1751L49.6767 18.4046L49.8039 18.4702L49.9703 18.3919L50.266 18.2037L50.4939 18.173L50.5596 18.0439L50.4314 17.7192L50.8754 17.5204L51.0238 17.7795L51.0503 17.1026L51.186 17.0751L51.2178 17.0244L51.364 17.0265L51.6364 16.8361L51.593 16.7367L51.7541 16.6034L51.9385 16.6235L52.0053 16.4934L52.1526 16.4955L52.2109 16.1867L52.5193 16.0555L52.5151 15.9731L52.6105 15.9561L52.6401 16.0555L52.78 16.0027L52.8076 16.1158L52.956 16.1053L53.1892 16.3115L53.0482 16.5008L53.1107 16.5357L53.1298 16.6066L53.0673 16.6954L53.1044 16.8499L52.9157 17.1153L53.0439 17.1576L53.0948 17.054L53.5273 17.0085L53.7848 17.2042L53.7562 17.1047L53.894 17.0667L53.8484 16.76L54.001 16.7092L54.0826 16.5823L54.319 16.7346L54.4896 16.6457L54.266 16.4945L54.4154 16.3623L54.3571 16.2861L54.4621 16.1888L54.5373 16.2258L54.55 16.1169L54.8479 16.0989L54.9867 15.9371L54.9273 15.8747L54.9475 15.8218L55.0291 15.8038L55.1499 15.5838L55.4827 15.7245L55.5665 15.5828L55.7435 15.5648L55.8579 15.5109L55.7848 15.3342L56.3317 15.1576L56.638 14.8657L56.3698 14.7451L56.2638 14.7303L56.1536 14.9662L56.0794 14.9143L56.1006 14.8477L55.9734 14.5653L55.8834 14.5251L55.9173 14.3612L56.0169 14.3189L56.0731 14.4109L56.2416 14.3633L56.2087 14.303L56.2649 14.2829L56.3243 14.4585L56.4578 14.2533L56.8107 14.358Z" fill="#EAFF06"/>
<path d="M40.9139 2.94059L40.9892 2.93319L41.1513 2.87608L41.2573 3.27693L41.3008 3.34039L41.2414 3.425L41.4756 4.06806L41.0803 4.20873L41.4693 4.45199L41.6134 4.46574L41.7258 4.76294L41.6675 4.819L41.4809 4.83698L40.9425 5.12043L41.1577 5.81003L41.4216 5.75291L41.4258 6.30924L41.2584 6.47318L41.1662 6.59798L41.2562 6.86663L41.6039 6.90365L41.6251 7.81958L41.9356 8.01313L41.8837 8.24159L41.5816 8.17813L41.447 8.28495L41.2298 8.27014L41.1386 8.38014L41.2128 8.71648L41.3145 8.72282L41.3315 9.04012L41.288 9.03695L41.3018 9.42511L41.0824 9.48222L41.057 10.5642L41.0422 11.3553L40.7899 11.5658L40.6988 12.0957L40.614 12.4691L40.0734 12.7462L39.7152 12.7113L39.8191 13.0677L40.0766 13.0814L40.2642 13.4696L40.0904 13.9741L40.1879 14.0492L39.8943 14.3104L40.0713 14.541L39.9547 14.6457L40.3935 15.0698L40.2578 15.7087L40.3363 15.8768L40.7464 15.8303L40.8747 15.4125L41.2605 15.6389L41.2838 15.7637L41.2785 15.9001L41.3506 15.8356L41.3463 15.9583L41.446 15.9096L41.5138 15.9678L41.6717 15.8938L41.7788 16.3232L42.0342 16.2555L42.1974 16.3729L42.7464 16.5675L43.2562 16.4194L43.4332 16.4839L43.5678 16.8182L43.3389 16.9535L43.6314 17.4052L44.1169 17.0974L45.0146 16.981L45.2594 16.7949L45.377 16.871L45.3866 16.9387L45.6092 17.0635L45.6441 17.1481L45.5265 17.2751L45.4608 17.4327L45.3166 17.5575L44.9383 17.7193L44.5949 17.7637L44.5217 17.8536L44.5938 17.9932L44.5355 18.0567L44.6319 18.2513L44.1741 18.8383L43.4883 19.6231L43.0538 19.8769L42.739 20.1635L42.6288 20.4364L42.3585 20.4089L42.225 20.8775L41.9113 20.9145L41.2923 21.5956L40.6511 21.6189L40.5143 21.9542L40.2801 22.0366L40.1307 22.0166L39.978 22.1022L38.3893 21.8399L38.2833 22.6363L37.8466 22.6194L37.924 22.8066L37.853 22.9209L38.0109 23.1229L37.2425 23.2921L37.357 23.6602L36.7751 24.1879L36.331 23.3418L35.9972 23.1091L35.6612 22.9822L35.5414 22.8479L34.8694 22.6205L34.791 22.355L34.9277 22.1731L34.915 22.0546L34.7009 21.8643L34.2558 22.1065L33.6813 21.5395L33.534 21.0308L33.2669 21.0551L33.3199 20.9081L33.6283 20.8584L33.6686 20.8986L33.7364 20.8468L33.3602 20.2111L33.2531 20.0895L33.428 19.8621L33.6707 19.9457L33.604 19.8505L33.5372 19.4856L33.8626 19.2878L33.8922 18.9493L34.2208 18.6585L34.5472 18.9261L34.6469 18.577L34.6066 18.412L34.1583 17.7436L34.1169 17.5786L33.8445 17.146L33.6559 16.1878L33.3676 16.2777L33.3687 16.0831L33.3273 15.9012L33.5605 15.7393L33.1895 15.3787L33.2584 15.1407L33.3273 15.1291V15.0022L33.0221 14.8192L32.967 14.8594L32.8578 15.0117L32.6903 14.9461L32.5886 14.6045L32.5706 14.3961L32.4264 14.174L32.3342 14.3348L32.1827 14.4014L32.0459 14.3348L32.0576 14.3316L31.8679 14.1603L31.8032 14.0841L31.7163 13.843L31.6601 13.7975L31.5944 13.7795L31.4524 13.8853L31.3888 13.8895L31.2606 13.8556L31.0391 13.7023L30.9426 13.697L30.9151 13.7139L30.8674 13.6706L30.6723 13.6748L30.6511 13.5817L30.5907 13.5722L30.5664 13.4834L30.5208 13.4167L30.489 13.3099L30.5134 13.22L30.5006 13.1957L30.3342 13.1777L29.8753 13.184L29.7185 13.1449L29.6209 13.1036L29.4376 12.9503L29.4132 12.9069L29.6591 12.6615L29.6845 12.6298L29.6782 12.5748L29.5892 12.5473L29.4408 12.5262L28.9818 12.2268L28.9659 12.248L28.9861 12.2956L28.9871 12.3548L28.9235 12.3601L28.9002 12.3495L28.8197 12.2988L28.7338 12.1761L28.7211 12.1338L28.719 12.0619L28.7455 11.9381L28.8822 11.9117L29.0815 11.9053L29.1684 11.8672L29.2786 11.7752L29.3814 11.6346L29.6443 11.3892L29.7227 11.3469L29.9421 11.3839L29.9792 11.3627L30.047 11.3649L30.0947 11.3448L30.1922 11.257L30.2452 11.1353L30.3385 11.1279L30.5929 10.9947L30.6607 10.9016L30.7974 10.8075L30.8144 10.78L30.7094 10.5261L30.6236 10.3781V10.2459L30.613 10.2236L30.4487 10.2088L30.3565 10.1771L30.3448 10.1464L30.3395 9.83548L30.313 9.80692L30.1488 9.77308L30.1403 9.73712L30.0799 9.71702L30.0841 9.42088L30.1095 9.38703L30.3088 9.35001L30.3671 9.31405L30.4106 9.26329L30.4529 9.16175L30.701 8.98512L30.8186 8.84234L30.7942 8.79051L30.7349 8.73128L30.7179 8.61282L30.8059 8.60648L30.9055 8.64561L30.9331 8.5811L31.1535 8.4362L31.2245 8.45629L31.3305 8.57475L31.4302 8.58956L31.4937 8.55042L31.6114 8.42562L31.6994 8.45206L31.7227 8.47744L31.7683 8.48062L31.8297 8.51975L31.9855 8.66994L32.029 8.67628L32.1371 8.5536L32.1901 8.56735L32.2293 8.54831L32.3416 8.54513L32.3692 8.55994L32.4699 8.50706L32.5027 8.50812L32.6416 8.67946L32.7391 8.70907L32.8461 8.64879L33.0051 8.52504L33.0094 8.32303L32.95 8.1464L32.8843 8.1337L32.79 8.08928L32.5706 8.09986L32.3098 7.99621L32.2282 7.91583L32.1583 7.77199L32.0385 7.68526L31.9855 7.70218L31.9717 7.78573L31.9453 7.80583L31.7312 7.81535L31.6188 7.7815L31.5552 7.69372L31.4789 7.63343L31.3899 7.61122L31.2881 7.6218L31.1652 7.61228L31.0422 7.53401L31.0126 7.46209L30.9903 7.22412L31.0253 7.17229L31.1503 7.04855L31.1715 6.86557L31.1959 6.82221L31.286 6.80846L31.3411 6.85817L31.4429 6.85711L31.4672 6.89201L31.4789 6.94913L31.5277 6.97557L31.5807 6.97874L31.6559 6.96711L31.7333 6.92797L31.7863 6.8698L31.8573 6.83278L31.8764 6.74817L31.8096 6.57577L31.7004 6.51866L31.5192 6.52712L31.48 6.58317L31.3973 6.62971L31.2765 6.6075L30.9892 6.59587L30.9182 6.5102L30.879 6.49222L30.8154 6.48904L30.737 6.44779L30.4932 6.43193L30.4805 6.41078L30.4826 6.3103L30.4996 6.25847L30.6649 6.24895L30.6872 6.27857L30.7052 6.34732L30.7264 6.36001L30.7497 6.34732L30.7635 6.14953L30.7847 6.12732L30.8939 6.08819L30.9797 5.93271L31.0815 5.85762L31.1154 5.80897V5.74234L31.0921 5.68522L30.967 5.58369L30.9468 5.51705L30.8663 5.49273L30.7879 5.51282L30.7264 5.46417L30.6458 5.45994L30.6321 5.40494L30.6649 5.34148L30.7423 5.26216L30.8727 5.26533L30.9903 5.23677L31.0507 5.36792L31.1079 5.39648L31.1938 5.39013L31.2033 5.36687L31.1853 5.29918L31.2362 5.17437L31.1705 5.05697L31.1938 4.98399L31.2828 4.89092L31.2966 4.8465L31.3475 4.82429L31.428 4.82852L31.4778 4.7915L31.6146 4.80948L31.6432 4.85178L31.6856 5.03476L31.7333 5.07707L31.8075 5.08659L31.8626 5.11832L31.8944 5.2336L31.9272 5.26216L31.9845 5.11408L32.0205 5.0612L32.1106 5.03793L32.1837 4.99986L32.2092 5.06861L32.295 5.15745L32.3363 5.12572L32.3575 5.06755L32.3533 5.02313L32.4233 4.98928L32.4349 5.00938L32.4031 5.05168L32.4158 5.06966L32.4762 5.04005L32.5335 5.07389L32.4678 5.18918L32.4646 5.22091L32.5822 5.25264L32.6193 5.29177L32.6861 5.29071L32.7794 5.28225L32.8101 5.25898V5.20504L32.7486 5.07812L32.7296 5.00303L32.7603 4.9639L32.8059 4.96495L32.8737 4.9089H32.9352L33.0062 4.96495L33.1461 4.98822L33.1853 4.96284L33.2129 4.97659L33.4132 4.98188L33.4916 4.94063L33.551 4.9364L33.5881 4.90678L33.623 4.91101L33.729 5.01149L33.6919 5.06014L33.5732 5.11832L33.569 5.14793L33.6315 5.3235L33.6569 5.36052L33.7481 5.3986L33.8159 5.44936L33.8551 5.45148L33.8795 5.40388L33.852 5.33408L33.871 5.28648L33.9113 5.241L33.9442 5.15533L34.0279 5.12149L34.0555 5.07918L34.0586 5.04745L34.1519 4.97659L34.1837 4.96919L34.2282 4.8888L34.3024 4.8613L34.3278 4.82957L34.3671 4.82006L34.4052 4.764L34.3914 4.72275L34.401 4.69842L34.4731 4.71112L34.6342 4.69314L34.7189 4.72592H34.8175L34.9065 4.75236L35.0284 4.72698L35.0825 4.69842L35.1122 4.66035L35.1281 4.56304L35.0952 4.49007L35.109 4.44776L35.1259 4.43084L35.198 4.41709L35.2224 4.39276L35.2786 4.38959L35.2902 4.41603L35.3178 4.42872L35.4121 4.39276L35.6262 4.42661L35.6633 4.40651L35.7746 4.38747L35.7926 4.35997L35.8413 4.38536L35.8625 4.34728L35.8954 4.36315L36.0978 4.28171L36.1212 4.25632L36.2059 4.2394L36.2939 4.18863L36.4306 4.1569L36.4476 4.1294L36.5154 4.14104L36.5896 4.10296L36.6458 4.15267L36.6765 4.13152L36.7062 4.13469L36.721 4.11777L36.755 4.14104L36.7846 4.1294L36.7931 4.06594L36.8281 4.01518L36.845 4.03739L36.8747 4.02998L36.8567 4.09556L36.8631 4.11248L36.8991 4.11883L36.9595 4.067L36.9987 3.99191L37.0507 4.01412L37.0867 3.99931L37.128 4.02998L37.1832 4.01941L37.216 4.02787L37.2849 3.97075L37.3697 3.98027L37.4375 3.94643L37.5149 3.9496L37.5615 3.93268L37.729 3.95277L37.7767 3.92845L37.7989 3.88826L37.7968 3.85124L37.8138 3.83326L37.8509 3.82585L37.8795 3.84912L37.9229 3.85653L37.9622 3.82797L38.0024 3.82374L38.0628 3.79095L38.0713 3.75288L38.1148 3.71797L38.1678 3.71057L38.1932 3.72855L38.3628 3.68624L38.3776 3.70951L38.367 3.72538V3.84278L38.3882 3.85018L38.5006 3.81951L38.5991 3.76451L38.7263 3.66721L38.8111 3.62807L38.8461 3.63336L38.9457 3.70634L39.0295 3.78672L39.1217 3.91364L39.3495 3.90729L39.3845 3.86181L39.3856 3.81634L39.3294 3.59317L39.2817 3.52125L39.323 3.38904L39.305 3.26424L39.3315 3.23039L39.4863 3.12251L39.6272 3.0654H39.6898L39.8381 3.10665L39.8827 3.09395L39.8879 3.0379L39.8159 2.93954L39.8233 2.88136L39.854 2.84329L39.9229 2.81685L40.0967 2.86444L40.1921 2.86233L40.2716 2.89617L40.3925 2.97867L40.4454 2.98501L40.49 2.96175L40.543 2.89406L40.5747 2.80733L40.5811 2.74281L40.6193 2.66666L40.7454 2.60743L40.8365 2.59897L40.8673 2.60637L40.8895 2.64233L40.8482 2.79358L40.8503 2.88771L40.9139 2.94059Z" fill="#EAFF06"/>
<path d="M26.6966 31.9289L26.7687 31.8761L26.8026 31.7989L26.8407 31.7513L26.9128 31.7893L26.951 31.8327L27.0177 31.857H27.1142L27.1576 31.9385L27.1333 32.0347L27.1523 32.1976L27.1428 32.3034L27.0898 32.37L27.1523 32.499L27.1958 32.6672L27.2732 32.7148L27.3357 32.7772L27.3696 32.8681L27.3728 32.9496L26.3511 32.2113L26.3617 32.1066L26.4051 32.0781V31.9776L26.4295 31.93H26.4963L26.5535 31.9586L26.6394 31.9617L26.6966 31.9289ZM28.3723 31.8528H28.1529L28.1677 31.4816L28.3426 31.4382L28.686 31.416L28.9488 31.4456L28.9997 31.5545L29.1968 31.5905L29.4088 31.5979L29.4385 31.6487H28.8905L28.598 31.8094L28.3723 31.8528ZM32.7082 25.7459L32.8778 26.0684L33.1343 26.0293L33.7024 26.7506L33.6133 26.9558L34.2058 27.0489L34.2959 27.1779L34.4517 27.1282L33.8847 27.5714L34.7357 27.4127L34.9806 27.6454L35.2911 27.8538L35.5656 27.8326L36.1761 28.1732L36.3754 28.0505L36.4654 28.1415L37.4988 28.5455L37.7108 28.5508L38.7463 29.1071L39.1755 29.1441L39.5507 29.5672L39.9312 29.7777L42.6212 30.5064L43.4373 30.4609L43.5369 30.4905L43.5698 30.7761L43.5412 31.0204L43.8665 31.2711L43.9291 31.471L43.8697 31.6021L43.7447 31.7788L43.68 31.9956L43.6609 32.2991L43.5295 32.7793L43.9206 33.1029L44.2481 33.2426L44.2608 35.2627L44.2205 35.3198L44.1962 35.4975L44.4156 35.7122L44.5406 35.672L44.777 35.8042L44.7823 35.8994L45.0186 36.186L45.5835 36.589L45.4383 36.7328L45.3588 36.6683L45.2338 36.7191L45.1278 36.8312L45.1712 36.8925L45.2317 37.0491L45.2073 37.3537L45.1193 37.396L44.9158 37.2194L44.9169 37.6657L44.7208 37.8656L44.7378 37.9597L44.6954 38.1914L44.4866 38.2506L44.548 38.5224L44.636 38.4685L44.6032 38.2918L44.7166 38.2273L44.6943 38.3553L44.8141 38.35L44.778 38.5002L44.8575 38.6906L45.0038 38.6514L44.9953 38.7445L44.7939 38.8735L44.1114 39.2141L43.5613 39.4172L43.0462 39.8043L42.4664 40.3881L42.1771 40.2104L41.3451 41.0724L41.166 41.0291L41.1501 39.3601L40.5905 39.6224L40.2948 38.6726L40.228 38.4029L39.7436 37.9735L39.4935 37.7228L39.2391 37.1622L39.1946 37.1115L39.1236 37.0713L39.0007 37.0734L38.9095 37.0967L37.9355 37.5589L37.8889 37.5673L36.6509 37.4891L35.8486 37.4076L35.5593 37.3611L34.6499 37.5208L32.7781 37.8878L32.7411 37.8846L32.669 37.8159L31.2318 36.0454L30.9615 35.7735L30.863 35.4605L29.8985 34.7656L30.0013 34.6746L30.0638 34.6408L30.1359 34.4345L30.1645 34.2283L30.1168 34.0083L30.0299 33.7259L29.9483 33.6254L29.8232 33.6159L29.7798 33.4816L29.6886 33.4044L29.6356 33.2267V33.1019L29.6886 32.9824L29.6833 32.5942L29.6356 32.4218L29.5392 32.3499L29.5636 32.2441L29.6409 32.0664L29.6505 31.894L29.5731 31.5873L29.4724 31.4773L29.4576 31.2711L29.5636 31.1992L29.6208 30.8977L29.6642 30.8406L29.6886 30.738L29.9811 30.6661L30.0532 30.5656L30.0871 30.4366L30.279 30.2589L30.4952 30.2208L30.6436 30.0865L30.8354 30.0146L31.0368 29.8951L31.1661 29.6751L31.2 29.325L31.1936 29.1473L31.1141 29.1357L31.0007 29.2266L30.6838 29.1706L30.4009 29.1822L30.1974 28.9337L30.209 28.5836L30.2429 28.4365L30.0956 28.3911L29.9939 28.3012L29.7109 28.3128L29.6992 28.4143L29.8126 28.4704L29.9144 28.482L30.05 28.5836V28.7189L29.9705 28.7644L29.8911 28.8554L29.7776 28.9114L29.642 28.8437L29.483 28.7983V29.1261L29.4067 29.1801L29.3781 29.0807L29.3918 28.7983L29.3357 28.6851L29.236 28.5857H29.094L28.6266 28.8966L28.5418 29.0098L28.5291 29.2213L28.5906 29.2975L28.6627 29.4561L28.7104 29.5281L28.8545 29.5905H28.97L29.0665 29.5429L29.1862 29.509L29.4406 29.49L29.4978 29.6L29.589 29.6719L29.7141 29.7153L29.873 29.6053L29.9504 29.509L30.0416 29.49L30.0606 29.6772L30.2239 29.9501L30.2196 30.1605L30.1762 30.3139L29.9557 30.4524H29.8402L29.5667 30.5053L29.4374 30.462L29.3177 30.3329L29.2074 30.2705L28.881 30.2039L28.7178 30.1849L28.6266 30.2377L28.439 30.4101L28.2949 30.4197L28.2281 30.3816L28.2663 30.1806L28.2228 30.1087L28.208 29.9797L28.2133 29.821L28.1317 29.7206L28.0066 29.6962H27.6611L27.5943 29.711L27.5996 29.8263L27.8254 30.1859L27.8784 30.3054L27.8402 30.444L27.8879 30.8078L27.8635 30.9517L27.8063 31.0479L27.7395 31.0818L27.6674 31.0437L27.5805 31.2975L27.5042 31.3599L27.4131 31.3261L27.2975 31.3356L27.182 31.379H27.0718L27.057 31.3018L27.0622 31.2013L27.0866 31.086L27.2064 30.9041L27.2933 30.8078L27.3315 30.7211L27.2445 30.6587L27.1439 30.6058L27.0527 30.6587L26.9425 30.7687L26.8132 30.7782L26.6881 30.7592L26.6309 30.7116L26.5895 30.6957L27.1513 30.0061L27.6038 29.3282L27.8402 29.069L28.014 28.7983L28.8439 28.0293L29.4756 27.9775L29.5349 27.326L30.3977 27.3969L31.1057 25.5047L32.3574 25.216L32.7082 25.7459Z" fill="#EAFF06"/>
<path d="M9.26779 34.1141L9.27627 34.1257L9.32714 34.095L9.35788 34.1088L9.25507 34.1743L9.2201 34.2177L9.22964 34.2568L9.21374 34.2611L9.19678 34.2145L9.2201 34.131L9.20102 34.0115L9.21162 33.9988L9.25507 34.0569L9.26779 34.1141ZM9.40875 33.7619L9.43843 33.7703L9.46811 33.7534L9.49566 33.728L9.51262 33.672L9.53064 33.746L9.5582 33.7238L9.56668 33.7418L9.55184 33.8729L9.56349 33.9163L9.65676 33.9639L9.5476 33.9406L9.53276 33.9692L9.46705 33.984L9.46493 33.9607L9.51262 33.9194L9.45645 33.8983L9.48824 33.8433L9.48188 33.8105L9.41193 33.8063L9.32502 33.7026L9.32184 33.6794L9.37484 33.6307L9.38332 33.6434L9.35152 33.6857L9.40875 33.7619ZM8.13478 33.4097L8.2111 33.4287L8.25243 33.4668L8.14432 33.4816L8.09345 33.5493L8.08815 33.6296L8.11783 33.7037L8.12843 33.7946L8.15386 33.8338L8.17824 33.8369L8.19096 33.8052L8.2005 33.8158L8.17506 33.8951L8.22593 33.9681L8.34888 34.0294L8.45911 33.9871L8.47606 33.9914L8.48242 34.0072L8.44215 34.094L8.42943 34.0961L8.39975 34.0612L8.25137 34.04L8.1846 34.0009L8.10405 33.8729L8.03516 33.6413L8.08073 33.5006L8.08391 33.4319L8.13478 33.4097ZM8.68592 33.3673L8.76859 33.3811L8.79615 33.4551L8.78025 33.5334L8.79827 33.5905L8.74421 33.6857L8.74209 33.7375L8.72196 33.7798L8.67532 33.8126L8.64458 33.8158L8.60219 33.8623L8.58841 33.8941L8.60537 33.9385L8.59053 33.9501L8.56615 33.93L8.55238 33.8708L8.56297 33.8422L8.54814 33.7798L8.57675 33.7185L8.57357 33.6698L8.56191 33.6413L8.51316 33.6L8.5227 33.5429L8.4909 33.4784L8.53648 33.4234L8.60961 33.4287L8.68592 33.3673ZM13.4522 32.0611L13.467 32.0633L13.4829 32.0336L13.5052 32.0273L13.5295 32.0453L13.5857 32.1955L13.5878 32.26L13.6133 32.3192L13.6016 32.3594L13.6133 32.4229L13.609 32.4366L13.538 32.443L13.5666 32.4853L13.5613 32.4969L13.4554 32.4546L13.4331 32.3901L13.379 32.3086L13.308 32.2399L13.2794 32.1902L13.3017 32.1574L13.3992 32.0812L13.4045 32.0685L13.3706 32.0368L13.3674 32.0093L13.4193 32.0305L13.4522 32.0611ZM13.8072 31.3049L14.2789 31.4213L14.5566 31.4361L14.6223 31.2721L14.9402 31.3144L15.078 31.2235L15.2253 31.2034L15.4744 31.0966L15.6832 30.9707L15.8168 30.8427L15.6005 30.7158L16.069 30.3678L16.1803 30.1552L16.1517 30.0241L16.4696 30.0632L16.511 29.9955L16.6572 29.9617L16.7834 29.968L16.9169 29.9363L17.1077 29.8601L17.4193 29.8527L17.8136 29.6994L18.6275 29.6148L18.8554 29.6465L19.3408 29.1663L19.5899 29.5185L19.7234 29.601L19.7839 29.582L19.8157 29.5291L19.875 29.4974L19.9757 29.5111L20.0467 29.7237L20.0139 29.8866L20.0478 29.9807L20.2015 30.0251L20.3074 30.0875L20.4124 30.0156L20.5035 30.0558L20.5576 30.2208L20.7759 30.2864L20.9179 30.2134L21.0144 30.3033L21.1755 30.2917L21.3599 30.4017L21.5464 30.9146L21.8411 33.0902L20.3827 33.5683L20.388 43.8942L20.1145 43.8837L19.9937 44.0042L19.9344 43.9588L19.9047 43.9524L19.7054 43.9894L19.6281 44.0286L19.6069 44.0867L19.5825 44.1068L19.5528 44.0836L19.5369 44.0349L19.4998 43.9884L19.4786 43.9979L19.4776 44.055L19.4383 44.0825L19.3959 44.0719L19.2921 44.0106L19.1713 43.9006L19.0335 43.725L18.9158 43.6298L18.8226 43.5029L18.6328 43.1909L18.4792 42.8292L18.3827 42.6875L18.2682 42.5753L18.2364 42.5246L18.228 42.4685L18.247 42.2792L18.1538 42.1449L17.9959 41.9693L17.2094 41.414L16.8671 41.1887L16.7664 41.1285L16.6657 41.0893L16.1813 41.1041L15.4257 41.2247L15.0844 41.3178L14.4909 41.579L14.2874 41.6488L14.1369 41.7472L13.4564 42.3564L13.0717 42.6748L13.0749 42.6198L13.1628 42.4125L13.1745 42.2834L13.1713 42.1946L13.1438 42.0888L13.06 41.9767L13.0759 41.8572L13.0261 41.8043L13.0568 41.5885L13.095 41.5124L13.2413 41.3347L13.3335 41.175L13.5189 40.7075L13.5635 40.4875L13.5401 40.3617L13.4893 40.2633L13.3155 40.0655L13.3038 40.0296L13.343 39.9703L13.3345 40.0232L13.3589 40.0771L13.4681 40.1639L13.5454 40.2675L13.609 40.4399L13.661 40.3839L13.6875 40.3119L13.6991 40.1649L13.68 40.0211L13.6387 39.9872L13.5476 39.9862L13.503 39.9471L13.432 39.9767L13.4628 39.9259L13.4183 39.8053L13.1342 39.7218L13.0494 39.708L12.8851 39.7323L12.812 39.7852L12.7686 39.8529L12.7558 39.8519L12.6424 39.6668L12.582 39.6245L12.5386 39.6139L12.4654 39.6171L12.4315 39.6044L12.3139 39.6224L12.1517 39.671L12.0266 39.7334L11.9842 39.7323L11.9472 39.6974L11.8136 39.4817L11.7988 39.4277L11.7225 39.3093L11.6885 39.1845L11.4511 38.9603L11.4766 38.9328L11.4819 38.882L11.4395 38.7498L11.3356 38.7403L11.1385 38.7805L11.113 38.808L10.9975 38.8027L10.7188 38.8481L10.6615 38.8312L10.653 38.7868L10.6679 38.6641L10.7506 38.3183L10.758 38.093L10.7421 37.9386L10.7082 37.8793L10.6944 37.781L10.653 37.6794L10.5577 37.5895L10.5418 37.5398L10.476 37.4975L10.4517 37.489L10.4358 37.5081L10.4241 37.4986L10.3446 37.3642L10.2429 37.1273L10.1528 37.0173L10.0754 36.6006L9.97579 36.4547L9.94929 36.4293L9.86556 36.4092L9.82528 36.3605L9.84118 36.1723L9.81151 36.0379L9.74579 35.8729L9.63981 35.7693L9.41829 35.6699L9.26249 35.6307L8.87882 35.6011L8.75163 35.5482L8.60431 35.4467L8.54284 35.3483L8.5333 35.3082L8.528 34.8967L8.50044 34.7751L8.50256 34.7645L8.55555 34.8512L8.55767 34.8914L8.58311 34.8861L8.6838 34.5942L8.76223 34.6069L8.80251 34.5974L8.82582 34.6207L8.88942 34.6154L8.98162 34.6524L9.09715 34.6429L9.19254 34.6588L9.26037 34.6238L9.33562 34.6841L9.54972 34.7021L9.64511 34.6852L9.68326 34.6217L9.71082 34.6154L9.75427 34.645L9.89948 34.6873L9.95777 34.7772L9.97791 34.7804L9.9991 34.8269L10.0468 34.8491L10.1019 34.8386L10.0765 34.8872L10.1009 34.9464L10.2853 35.0734L10.5047 35.0776L10.5693 35.0258L10.616 34.9602L10.6636 34.9337L10.6806 34.8861L10.8587 34.8396L10.883 34.8386L10.8926 34.8586L10.864 34.9041L10.8671 34.9242L10.8894 34.9158L10.9466 34.9792L10.9922 34.9686L11.0145 34.9475L11.0166 34.9136L11.1268 34.9623L11.1946 34.938L11.2095 34.9147L11.1893 34.8682L11.1109 34.8058L10.989 34.7518L10.7325 34.7539L10.652 34.7762L10.6541 34.7402L10.6891 34.7053L10.6817 34.6662L10.6287 34.7021L10.6191 34.6915L10.6234 34.5932L10.564 34.4726L10.4517 34.3097L10.3838 34.2854L10.2736 34.1817L10.1729 34.1299L10.1697 34.1119L10.1072 34.0591L10.0691 34.0443L10.0638 34.0802L10.0171 34.1045L9.93339 34.0961L9.8486 34.1098L9.77547 34.0675L9.77017 34.039L9.84754 34.0654L9.82634 34.0337L9.838 33.9819L9.86768 33.9385L9.8327 33.912L9.83164 33.8644L9.9991 33.6328L10.0267 33.6148L10.1146 33.5747L10.1464 33.5715L10.2005 33.5969L10.2217 33.5884L10.3902 33.4149L10.4612 33.3779L10.4983 33.3811L10.5693 33.4213H10.6085L10.6234 33.3399L10.599 33.1125L10.6202 33.0077L10.635 32.9728L10.6647 32.9496L10.6891 32.8449L10.7569 32.7306L10.8067 32.6926L10.8343 32.6376L10.8767 32.627L10.9477 32.5265L10.9805 32.5054L11.0229 32.5646L11.0473 32.5762L11.2222 32.5667L11.2911 32.5487L11.3144 32.5128L11.3875 32.4927L11.5306 32.4059L11.5497 32.3594L11.6207 32.2695L11.662 32.2727L11.6758 32.3002L11.7182 32.3245L11.7447 32.3044L11.8104 32.3488L11.9238 32.3615L12.0001 32.4186L12.0394 32.426L12.1453 32.4155L12.2566 32.371L12.3351 32.3689L12.44 32.4028L12.5937 32.3806L12.7304 32.3827L12.7919 32.371L12.8841 32.3277L12.9445 32.3298L13.0664 32.2981L13.1575 32.333L13.3388 32.3414L13.3663 32.37L13.4002 32.4504L13.4829 32.5128L13.5772 32.5233L13.6069 32.518L13.6059 32.4905L13.7373 32.554L13.8115 32.5582L13.8125 32.5297L13.6716 32.4652L13.7002 32.4546L13.7087 32.425L13.6843 32.3869L13.6811 32.333L13.6387 32.279L13.6271 32.2378L13.626 32.1606L13.6451 32.1331L13.7542 32.1796L13.8549 32.2557L13.962 32.2727L14.0478 32.3742L14.1475 32.444L14.1612 32.4271L14.0669 32.3414L13.9662 32.187L13.9355 32.1743L13.8581 32.1828L13.8168 32.1183L13.6875 32.0569L13.7002 32.0231L13.7479 31.9945L13.7277 31.9617L13.7638 31.9385L13.8422 31.9067L13.9037 31.8983L13.9768 31.9152L13.9885 31.9025L13.944 31.82V31.7724L13.9079 31.783L13.8645 31.857L13.767 31.9025L13.7214 31.9395L13.7055 31.93L13.7171 31.8961L13.6938 31.8803L13.7034 31.8274L13.6398 31.8189L13.6938 31.8041L13.6567 31.7851L13.6557 31.7671L13.7224 31.7089L13.7659 31.7005L13.7617 31.6571L13.8348 31.6497L13.8581 31.6931L13.9312 31.7375L13.9482 31.7333L13.8327 31.5767L13.732 31.4974L13.7829 31.4837L13.8253 31.4424L13.82 31.417L13.7839 31.416L13.785 31.3895L13.8411 31.3758L13.8486 31.3927L13.8729 31.3821L13.8751 31.3969L13.8952 31.4001L13.9302 31.3832L13.9514 31.3525L13.8984 31.3631L13.8072 31.3049Z" fill="#EAFF06"/>
<path d="M63.1235 3.80998L63.2168 3.80575L63.2613 3.83007L63.2846 3.86815L63.3037 4.02045L63.238 4.12093L63.2528 4.23727L63.2444 4.28275L63.1596 4.379L63.0695 4.42871L63.0515 4.54293L62.9879 4.56726L62.8575 4.66245L62.8183 4.64341L62.7632 4.54188L62.6932 4.56938L62.6455 4.56409L62.5597 4.51332L62.4516 4.50063L62.4081 4.50169L62.389 4.51543L62.3816 4.57361L62.3986 4.64341L62.5353 4.82744L62.5533 4.9734L62.6371 5.12888L63.079 5.55723L64.7409 6.8994L65.3344 7.46737L65.4425 7.59428L65.8146 8.20878L66.1389 8.69954L66.5236 9.39654L66.5384 9.38173L66.7716 9.83229L66.7547 9.84393L67.4213 11.02L67.5432 11.3035L67.7255 11.5848L67.7509 11.6557L67.8336 11.7689L67.9735 12.046L67.9915 12.0354L68.0117 12.0745L67.9958 12.0872L68.159 12.4299L68.1993 12.4701L68.1972 12.4987L68.4028 12.927L68.248 12.945L68.1929 13.2676L67.8771 13.348L67.9322 13.5278L67.6662 13.7879L67.6089 13.7192L67.1966 13.7795L67.2062 13.9762L67.3122 13.9582L67.2804 14.0904L67.2994 14.247L67.1924 14.2099L66.7706 14.4775L66.5098 14.559L66.4632 14.4522L66.3371 14.5082L66.3106 14.6267L66.088 14.7451L66.0403 14.707L65.8644 14.8773L66.1113 15.2338L66.1675 15.5616L66.3244 15.6092L66.4197 15.7531L66.5872 15.8842L66.725 15.9551L67.1511 16.2375L67.0769 16.9577L67.2719 17.0127L67.3312 17.4316L67.1903 17.5775L66.8363 18.2195L66.5522 18.3496L66.2184 18.2671L65.3334 17.8991L65.2115 17.6854L65.0748 17.7658L64.8374 17.5966L65.0016 17.3713L64.8797 16.9387L64.5406 16.7219L64.1103 16.705L63.7457 16.32L63.3482 16.4226L63.1363 16.6288L63.008 17.1386L63.0207 17.4549L62.9434 17.5902L62.7123 17.4527L62.4802 17.4781L62.318 17.5712L62.2703 17.5352L62.1749 17.7912L62.0774 17.8145L61.8104 17.6579L61.0865 17.8568L60.9953 17.7595L60.8967 17.7975L60.8681 17.9012L60.795 17.9424L60.1909 17.9223L60.0912 18.0556L59.6652 18.3655L59.4585 18.4268L59.4193 18.3391L59.2868 18.3454L59.2158 18.1032L59.3472 18.0154L59.344 17.9467L59.6249 17.8282L59.6461 17.8589L59.7574 17.8229L59.7266 17.7637L59.7966 17.7341L59.7627 17.6061L59.5253 17.512L59.4691 17.3523L59.5412 17.3099L59.3822 17.0371L59.2635 17.0318L58.9752 16.7251L58.831 17.0857L58.6943 16.7356L58.813 16.6436L58.6996 16.5019L58.3626 16.4363L58.335 16.3496L58.1686 16.4892L57.8719 16.5135L57.5677 16.5929L57.2645 16.2597L57.4172 16.1159L57.3281 15.9784L57.3843 15.862L57.4945 15.8366L57.4829 15.5162L57.5285 15.2718L57.6196 14.9926L57.5295 14.8541L57.521 14.615L56.8109 14.358L57.0335 14.0957L57.0642 13.8609L57.5232 13.5616L57.733 13.6208L57.8136 13.5204L57.9238 13.5087L57.9747 13.4315L57.7733 13.3162L57.5306 13.294L57.4257 13.0518L57.0483 13.2369L57.0589 12.6139L57.1236 12.5378L57.4129 12.3104L57.5391 12.2861L57.4956 12.194L57.4479 10.083L57.3398 10.0671L57.3334 10.0079L57.3218 9.8746L56.937 9.84604L56.8321 9.56894L56.8745 9.44307L56.9699 9.57422L57.1204 9.59644L57.2084 9.7847L57.3101 9.74133L57.2815 9.41558L57.4129 9.36269L57.3928 9.18395L57.4977 9.12789L57.3822 8.81588L57.1787 8.88674L57.0844 8.85713L56.9604 9.19135L56.6816 9.19558L56.6297 8.92376L56.7759 8.75242L56.7081 8.60964L56.4802 8.76934L56.4304 8.71752L56.5534 8.61704L56.6318 8.42137L56.7494 8.2458L56.7357 8.12417L56.8544 8.06706L56.848 7.99196L56.954 7.93485L56.8576 7.78466L56.7505 7.85658L56.7177 7.77726L56.6 7.82062L56.5926 7.89466L56.2979 8.15167L56.2471 7.84601L56.2948 7.52131L56.4686 7.60592L56.547 7.52554L56.3774 7.25795L56.2704 7.01892L56.5375 6.75767L56.5725 6.60326L56.6784 6.6297L56.7304 6.40547L56.8745 6.4224L57.0568 6.53662L57.1999 6.32192L57.5518 6.40124L57.5306 6.64027L57.7108 6.6572L57.7489 6.47845L57.8973 6.51018L57.8761 6.58105L57.9503 6.61066L57.9492 6.7471L57.9863 6.76931L57.9927 6.79364L57.9789 6.87296L58.2301 6.96709L58.3965 6.55778L58.3075 6.50595L58.3689 6.20029L58.7176 6.2574L58.8098 5.94751L58.9264 5.96655L58.9858 5.93693L59.0197 5.8777L59.0504 5.74232L59.0685 5.72751L59.1384 5.7529L59.4172 5.75078L59.4458 5.7677L59.4903 5.85126L59.5369 5.82905L59.7817 5.6355L59.9026 5.52127L59.9948 5.48002L60.2449 5.28647L60.3891 5.20926L60.4484 5.13734L60.4474 5.06542L60.2725 4.81581L60.5459 4.67514L60.6911 4.73649L60.7144 4.73226L61.9789 4.1442L61.9873 4.11352L61.9344 4.04795V4.02785L61.9926 3.85651L62.0107 3.85122L62.2258 3.94747L62.4484 3.96545L62.548 3.96016L62.6593 3.88718L62.8522 3.89142L62.9688 3.7719L63.0239 3.64181L63.1331 3.63229L63.2772 3.54556L63.3896 3.49902L63.4267 3.50431L63.4404 3.59527L63.432 3.61114L63.1204 3.78036L63.1235 3.80998Z" fill="#EAFF06"/>
<path d="M47.4461 0.237208L47.498 0.360954L47.5245 0.374704L47.6581 0.339801L47.7959 0.276341L47.8838 0.263649L47.9527 0.275284L48.1223 0.35355L48.1817 0.329224L48.3353 0.319705L48.4901 0.347205L48.7021 0.452971L48.8261 0.493162L48.8886 0.53441L48.9342 0.591524L49.0073 0.805171L49.0529 0.848535L49.1578 0.888727L49.2786 0.904591L49.4471 1.08016L49.4821 1.09603L49.621 1.10026L49.6559 1.08228L49.7619 0.962763L49.9877 0.865458L50.0184 0.82844L50.0905 0.625369L50.1414 0.571428L50.2219 0.572486L50.3555 0.649695L50.4646 0.651811L50.5049 0.634888L50.5685 0.562967L50.6162 0.541814L50.8218 0.501623L50.86 0.509027L50.8801 0.654984L50.9289 0.753346L51.003 0.900361L51.0878 0.97757L51.1154 1.10449L51.1885 1.17853L51.2595 1.31602L51.2744 1.40486L51.2574 1.64813L51.2712 1.7761L51.2267 1.88398L51.2193 1.97389L51.2277 2.00879L51.3252 2.14734L51.3327 2.31974L51.3496 2.38214L51.4185 2.51647L51.5107 2.61483L51.7153 2.66771L51.8403 2.76607L51.8499 2.79463L51.852 2.93636L51.6909 2.98607L51.6538 3.01568L51.6379 3.04953L51.6167 3.20923L51.6284 3.35731L51.657 3.5498L51.7068 3.7222L51.6888 3.86392L51.6464 3.97181L51.6284 3.98661L51.5955 3.9845L51.4164 3.9496L51.2903 3.88296L51.2733 3.88614L51.2606 3.91152L51.2617 4.04584L51.2765 4.07757L51.3136 4.10719L51.4206 4.13363L51.4418 4.16853L51.4546 4.2468L51.3793 4.34833L51.3719 4.37901L51.3952 4.41497L51.4567 4.45198L51.4885 4.49006L51.5181 4.55669L51.5309 4.67409L51.5627 4.70159L51.6379 4.7238L51.6623 4.71534L51.817 4.58102L51.8647 4.48054L51.9569 4.4615L52.2601 4.55669L52.2802 4.60323L52.2664 4.68467L52.2876 4.72275L52.4318 4.69525L52.577 4.7439L52.6247 4.70794L52.7116 4.68361L52.7646 4.61909L52.7624 4.55352L52.7211 4.43189L52.7582 4.30497L52.807 4.23411L53.0751 4.26795L53.3337 4.32507L53.4068 4.38535L53.4121 4.4541L53.4853 4.49535L53.4789 4.56198L53.6231 4.64342L53.639 4.63813L53.6718 4.58525L53.6856 4.45621L53.6178 4.38429L53.4577 4.29968L53.4874 4.19392L53.5478 4.09238L53.4959 4.00882L53.3994 3.93373L53.3644 3.85441L53.374 3.83854L53.4185 3.82796L53.569 3.83008L53.6496 3.84806L53.8266 3.98344L53.8679 4.11036L53.853 4.20766L53.9484 4.26795L53.8997 4.4192L53.9198 4.44247L54.1032 4.56198L54.2982 4.61592L54.3046 4.71534L54.1784 4.68784L54.1445 4.73121L54.0449 4.7365L54.0322 4.79361L54.0714 4.85178L54.0693 4.89091L54.1466 4.9512L54.1488 4.96812L54.0618 5.26533L54.1689 5.38061L54.2738 5.41657L54.3003 5.40282L54.384 5.20081L54.4254 5.13841L54.7709 5.27802L54.7486 5.12783L54.6533 4.94062L54.5536 4.92053L54.4657 4.92582L54.4275 4.95332L54.3565 4.93957L54.4052 4.72063L54.4964 4.67515L54.5218 4.63496L54.8949 4.66775L54.9638 4.67938L55.0157 4.73121L55.303 4.75976L55.2966 4.91524L55.4301 4.93639L55.4853 5.11619L55.516 5.13523L55.7555 5.186L55.9177 5.23994L55.9368 5.26533L56.1678 5.25686L56.1837 5.23042L56.1699 5.15956L56.1848 5.13735L56.2505 5.16167L56.3342 5.23254L56.4264 5.27802L56.4434 5.26956L56.4476 5.24206L56.3936 5.11725L56.3946 5.08129L56.5536 5.02841L56.6405 4.95543L56.6617 4.90678L56.6331 4.85284L56.6448 4.84226L56.7666 4.85495L56.7709 4.89303L56.8853 4.91312L56.8313 5.2759L56.7635 5.58157L56.2982 5.51176L56.2293 5.63974L56.2802 5.75079L56.2102 5.78358L56.0586 5.81425L56.083 5.91473L56.0194 6.18549L55.8753 6.20876L55.8774 6.3177L55.9219 6.32616L55.924 6.33885L55.8498 6.58317L56.0682 6.66144L56.0904 6.70163L56.1657 6.7249L56.1668 6.78413L56.1222 6.91316L56.1583 6.95652L56.2696 7.01893L56.3766 7.25796L56.5462 7.52555L56.4678 7.60593L56.2939 7.52131L56.2462 7.84602L56.2971 8.15168L56.5918 7.89467L56.5992 7.82063L56.7168 7.77727L56.7497 7.85659L56.8567 7.78467L56.9532 7.93486L56.8472 7.99197L56.8536 8.06707L56.7348 8.12418L56.7486 8.24581L56.631 8.42138L56.5525 8.61705L56.4296 8.71753L56.4794 8.76935L56.7073 8.60965L56.7751 8.75243L56.6289 8.92377L56.6808 9.19559L56.9595 9.19136L57.0835 8.85714L57.1779 8.88675L57.3814 8.81589L57.4969 9.1279L57.392 9.18396L57.4121 9.3627L57.2807 9.41558L57.3093 9.74134L57.2076 9.78471L57.1196 9.59645L56.9691 9.57423L56.8737 9.44308L56.8313 9.56894L56.9362 9.84605L57.321 9.87461L57.3326 10.0079L56.5356 9.94865L56.3883 9.66625L56.2346 9.67365L56.2091 9.53827L55.9293 9.54462L55.5351 9.34472L55.2712 9.45683L55.2139 8.84868L55.127 8.75032L55.126 8.49965L55.0825 8.39071L55.0126 8.39706L54.9458 8.49225L54.7232 8.49436L54.5314 8.58955L54.4434 8.50705L54.0459 8.59484L53.9495 8.84656L53.462 8.88358L52.861 8.80849L52.8334 8.67522L52.7338 8.56311L52.7317 8.44677L52.8631 8.38754L52.7974 8.20668L52.8642 7.96553L52.9469 7.84179L52.5197 7.37853L52.5324 7.24844L52.3226 7.24315L52.2537 7.3817L52.1255 7.39968L52.0767 7.46737L52.0195 7.47689L51.9421 7.55728L51.7598 7.55516L51.7375 7.49382L51.4047 7.43459L51.4355 7.23363L51.4079 7.23152L51.4164 7.12998L50.5462 7.15431L50.4964 7.44093L50.3099 7.46843L50.348 7.71804L50.1477 7.74448L50.117 7.5816L49.9071 7.31719L49.8965 7.25796L49.8245 7.25267L49.7927 7.30767L49.3899 7.31824L49.4514 7.2643L49.4429 7.16277L49.5298 7.15536L49.5065 7.06546L49.5955 7.0147L49.5775 6.82432L49.4302 6.8846L49.1748 6.82009L49.1281 6.88883L49.0582 6.85393L49.108 6.74182L49.0847 6.38962L48.9713 6.35048L48.9511 6.1876L48.5039 6.1802L48.4265 6.2627L48.3258 6.26904L48.277 6.36741L48.1626 6.34308L48.1244 6.51548L48.0375 6.52394L48.0725 6.68682L48.187 6.71115L48.1202 6.86557L47.9782 6.82538L47.9729 6.66461L47.9358 6.54509L47.8499 6.52288L47.8255 6.43404L47.6962 6.40866L47.6899 6.26164L47.4874 6.24578L47.4938 6.42241L47.2034 6.44356L47.1939 6.33991L46.9914 6.3251L46.9734 6.41077L46.8144 6.39914L46.8822 6.50596L46.8653 6.56307L46.9204 6.62548L46.8738 6.68047L46.5706 6.67201L46.577 6.84653L46.6777 6.84018L46.6141 6.96604L46.56 6.90364L46.4551 6.98297L46.4509 7.06969L46.3915 7.09402L46.3046 7.10248L46.2421 7.19873L46.3905 7.41343L46.4 7.52978L46.5134 7.56785L46.5781 7.70218L46.8081 7.72016L46.7816 7.96342L46.9246 7.97505L46.9607 8.09245L46.9533 8.23629L46.8801 8.25956L47.001 8.42667L46.6841 8.71859L46.7816 9.05598L46.6682 9.03271L46.843 9.23155L46.6671 9.31934L46.6109 9.3003L46.5198 9.39337L46.4488 9.38809L46.4138 9.51395L46.3279 9.52241L46.1806 9.61125L46.1414 9.80798L46.0842 9.8175L46.0322 9.98461L45.8054 9.95393L45.7174 10.0047L45.6369 10.1834L45.337 10.1771L45.3825 10.4077L45.5087 10.4584L45.532 10.5589L45.2744 10.8392L45.1928 10.7768L45.1303 10.8857L45.1833 10.9598L45.0635 11.0782L45.0073 11.0465L44.7901 10.8477L44.4965 10.7292L44.3756 10.579L43.9178 10.5917L43.9411 11.2993L43.5055 11.1449L43.3741 11.22L43.1462 11.1914L42.9374 11.0793H42.2771L42.2623 10.7535L41.8701 10.8138L41.5627 10.9502L41.3879 10.5843L41.0561 10.5642L41.0816 9.48222L41.3009 9.4251L41.2872 9.03694L41.3306 9.04012L41.3137 8.72282L41.2119 8.71647L41.1377 8.38014L41.2289 8.27014L41.4462 8.28495L41.5808 8.17812L41.8828 8.24158L41.9348 8.01313L41.6242 7.81957L41.603 6.90364L41.2554 6.86662L41.1653 6.59798L41.2575 6.47317L41.425 6.30924L41.4207 5.75291L41.1568 5.81002L40.9417 5.12043L41.4801 4.83697L41.6666 4.81899L41.7249 4.76294L41.6125 4.46573L41.4684 4.45198L41.0794 4.20872L41.4748 4.06805L41.2405 3.425L41.2999 3.34038L41.2564 3.27692L41.1504 2.87607L41.656 2.68252L42.2983 2.52493L42.4594 2.55454L42.5548 2.42868L42.5876 2.4107L42.9045 2.36416L43.1038 2.38003L43.1875 2.29118L43.3348 2.27426L43.5807 2.21503L43.6041 2.19071L43.6242 2.07859L43.6496 2.0511L43.6952 2.05638L43.7864 2.10927L44.0036 2.10186L44.1404 2.15263L44.1944 2.13571L44.2379 2.10186L44.3152 2.10081L44.5728 1.99398L44.6046 1.93158L44.6353 1.78245L44.6671 1.73591L44.7349 1.67986L44.7879 1.6587L44.8727 1.66293L45.108 1.77928L45.2649 1.73909L45.4747 1.72639L45.5055 1.69466L45.4832 1.62063L45.5108 1.49582L45.5669 1.41015L45.6517 1.32977L45.5934 1.27795L45.568 1.22824L45.4779 1.12353L45.461 1.08968L45.4769 1.00824L45.4239 0.924687L45.426 0.906707L45.5828 0.903534L45.6592 0.869689L45.6888 0.877092L45.7662 0.940552L45.7927 0.929975L45.8234 0.886611L45.8584 0.873919L46.0524 0.89613L46.2506 0.853824L46.294 0.897188L46.3301 0.900361L46.364 0.837959L46.3915 0.678252L46.4117 0.644407L46.47 0.616908L46.5081 0.574601L46.5251 0.494219L46.5569 0.446625L46.5505 0.356723L46.5971 0.302783L46.6353 0.290091L46.7339 0.311244L47.0624 0.53018L47.1059 0.543929L47.1292 0.522776L47.1462 0.474124L47.1154 0.352493L47.0571 0.286918L47.0243 0.280572L46.9734 0.304898L46.9543 0.291148L46.9448 0.142018L46.9617 0.0732705L47.0137 0.0267334L47.0889 0.0288487L47.232 0.0722128L47.4037 0.180094L47.4461 0.237208Z" fill="#EAFF06"/>
<path d="M68.8095 13.7869L68.8509 13.8525L68.9918 14.1856L69.313 14.8234L69.332 14.889L69.5906 15.4083L69.6277 15.5162L69.6436 15.4749L69.6701 15.5489L69.81 15.7933L69.8969 15.9826L69.8683 15.7785L69.8779 15.6833H69.9097L69.9245 15.7414L70.1312 15.7404L70.1269 15.5595L70.146 15.5003L70.2255 15.4908L70.2509 15.4326L70.3972 15.4284L70.4025 15.4072L70.4311 15.3998L70.5096 15.403L70.6187 15.2792L70.6993 15.2782L70.6919 15.2158L70.7194 15.0931L70.7183 14.9323L70.7109 14.8657L70.6314 14.7821L70.641 14.5241L70.7067 14.5093L71.0151 14.5209L71.0321 14.4701L71.0331 14.3273L71.0649 14.2385L71.1158 14.1898L71.349 14.2586L71.4221 14.2882L71.4825 14.3358L71.5938 14.3591L71.5811 14.3972L71.6055 14.4278L71.7909 14.4966L71.8969 14.577L71.9478 14.5431L72.0008 14.4585L72.0474 14.4754L72.0888 14.5378L72.0898 14.6637L72.0453 14.8689L71.9489 15.0222L71.9372 15.1312L71.9075 15.2084L71.9171 15.3268L72.1163 15.3332L72.4544 15.2052L72.5954 15.2073L72.6039 15.2507L72.6219 15.2528L72.6293 15.2697L72.6325 15.3543L72.6653 15.3681L72.6844 15.4569L72.6399 15.5172L72.6664 15.5701L72.713 15.5786L72.7734 15.7361L72.7766 15.7763L72.7162 15.9011L72.7151 15.9646L72.7766 15.9794L73.0639 15.9921L73.3606 15.935L73.3744 15.9255L73.3839 15.7975L73.3956 15.788L73.4253 15.8038L73.4221 15.8578L73.5641 15.7753L73.8217 15.8123L73.863 15.8303L74.0305 15.9762L74.1375 16.009L74.252 15.9974L74.2922 15.9752L74.3548 15.898L74.3855 15.8895L74.4809 15.899L74.5784 15.8821L74.6643 15.9064H74.749L74.8699 15.9519L74.9366 15.9551L74.9748 15.9434L75.1836 15.8102L75.2716 15.7203L75.2917 15.6737L75.2938 15.5162L75.3256 15.3755L75.4083 15.3522L75.5906 15.4263L75.7093 15.4548L75.8206 15.4622L75.8746 15.4294L75.9096 15.3702L76.0591 15.2242L76.0813 15.1671L76.0675 15.0889L76.0951 15.073L76.1502 15.0804L76.1735 15.1058L76.2117 15.1164L76.2403 15.1851L76.253 15.1967L76.271 15.1915L76.2943 15.2306L76.3876 15.1597L76.5074 15.1481L76.6897 15.1915L76.7469 15.147L76.7056 15.2041L76.7204 15.2401L76.8709 15.3057L76.9451 15.2962L77.0575 15.3226L77.1762 15.3776L77.3214 15.5035L77.475 15.5204L77.5333 15.5415L77.5736 15.569L77.8449 15.8758L77.8778 16.0746L77.899 16.1127L78.0325 16.2576L78.0961 16.3781H78.112L78.2085 16.467L78.3145 16.6172L78.4099 16.7081L78.4395 16.7631L78.4512 16.8076L78.395 16.9038L78.3918 16.9641L78.4893 17.2676L78.4862 17.3142L78.4427 17.4094L78.4438 17.4464L78.4999 17.5511L78.6271 17.696L78.6515 17.7108L78.8041 17.7045L78.9059 17.6167L78.9419 17.6135L79.1104 17.7669L79.1783 17.7986L79.3319 17.8303L79.3871 17.8663L79.4729 17.953L79.5132 17.972L79.6351 17.9837L79.6658 18.027L79.6754 18.1042L79.8248 18.1074L79.8767 18.1233L80.0124 18.2343L80.0696 18.3253L80.0866 18.4036L80.0622 18.4332L80.0145 18.4015L79.9923 18.4268L79.9986 18.4734L79.97 18.5432L79.9774 18.6648L80.0081 18.7262L80.0495 18.7558L80.2318 18.8108L80.2593 18.8816V18.9525L80.4204 19.2455L80.4385 19.3079L80.4448 19.3851L80.4162 19.5067L80.4257 19.5469L80.4533 19.5956L80.5402 19.6336L80.589 19.713L80.6865 19.7034L80.7437 19.7415L80.766 19.7849L80.8359 19.7627L80.8815 19.7954L80.9218 19.7627L80.9483 19.7087L81.0277 19.6749L81.1507 19.6696L81.28 19.714L81.3563 19.8029L81.404 19.8166L81.5662 19.7732L81.6329 19.7902L81.7167 19.8441L81.9074 19.8251L81.9318 19.8304L81.9562 19.8621L81.9286 19.9784L81.9392 20.0049L82.0314 20.0398L82.1427 19.9552L82.201 19.9393L82.2901 19.9435L82.4035 20.1149L82.4215 20.118L82.4936 20.0546L82.4713 19.953L82.5571 19.842L82.5508 19.7531L82.5635 19.7341L82.8126 19.6453L82.9504 19.5585L83.0733 19.3882L83.1878 19.311L83.2302 19.2433L83.2768 19.2328L83.3245 19.1884L83.3552 19.1334L83.3234 19.0794L83.3351 19.0371L83.7251 19.0382L83.7304 19.0667L83.652 19.2285L83.6541 19.2804L83.6838 19.3301L83.6234 19.3819L83.51 19.4454L83.4485 19.4263L83.351 19.5501L83.3478 19.6379L83.3775 19.7383L83.4241 19.7859L83.5322 19.7679L83.7219 19.8568L83.7272 19.8716L83.687 19.9118L83.7665 19.9774L83.7336 20.0842L83.7453 20.1551L83.9413 20.2661L83.9572 20.3962L83.9297 20.4343L83.9276 20.466L83.988 20.5379L84.0102 20.6141L84.06 20.6373L84.1311 20.6321L84.2063 20.7611L84.519 20.7886L84.6811 20.887L84.7076 20.9271L84.7723 21.2V21.2518L84.7394 21.2466L84.6833 21.2032L84.5857 21.2064L84.5232 21.144L84.4066 21.0921L84.0653 21.2497L83.971 21.2518L83.8947 21.2053H83.8661L83.811 21.2624L83.7781 21.4063L83.6223 21.5046L83.5746 21.5639L83.5598 21.5924L83.5545 21.6813L83.582 21.8293L83.74 22.0292L83.741 22.098L83.634 22.1784L83.6191 22.2037L83.6085 22.2683L83.6552 22.3571L83.6425 22.4502L83.5153 22.594L83.4824 22.686L83.4538 22.7082L83.3764 22.7294L83.351 22.8225L83.3118 22.869L83.2832 22.9822L83.1867 23.0023L82.9641 23.1324L82.8741 23.0848L82.8264 23.1059L82.7267 23.1123L82.6398 23.2254L82.5137 23.3143L82.4119 23.3132L82.1035 23.272L82.0028 23.3291L81.9 23.3026L81.8152 23.3376L81.7432 23.345L81.5195 23.5279L81.4602 23.6411L81.4506 23.7585L81.3404 24.0377L81.2715 24.171L81.263 24.2757L81.2747 24.3963L81.2344 24.4989L81.2259 24.5697L81.1433 24.7326L81.1306 24.8363L81.2355 25.4148L81.2938 25.8463L81.2577 26.1129L81.333 26.3117L81.4528 26.482L81.4708 26.5497L81.4369 26.703L81.4623 26.794L81.4496 26.9854L81.4369 27.0235L81.4104 27.0436L81.2461 27.0595L81.2026 27.1071L81.1729 27.272L81.1125 27.4021L81.1062 27.5016L80.9334 27.4846L80.8041 27.5195L80.7448 27.4973L80.6801 27.5396L80.6165 27.4931L80.4756 27.5185L80.4077 27.6592L80.2032 27.7998L80.1608 27.8802L80.1035 27.9077L80.0219 27.9088L79.9668 27.9363L79.9393 28.0642L79.847 28.1161L79.7517 28.1139L79.6181 28.1986L79.6012 28.1964L79.5757 28.1605L79.4061 28.1763L79.3902 28.1594L79.3977 28.1425L79.4761 28.1002L79.5153 28.0071L79.5768 27.9542L79.5471 27.9267L79.5429 27.8781L79.4899 27.8548L79.4718 27.7787L79.4093 27.6909L79.3712 27.6655H79.3256L79.2631 27.6909L79.12 27.6888L79.0034 27.7459L78.9101 27.7173L78.8751 27.6613L78.8433 27.6486L78.7268 27.6877L78.6515 27.6676L78.4024 27.6803L78.3335 27.6951L78.2254 27.748L78.0802 27.7861L78.0389 27.784L77.9128 27.693L77.7739 27.6909L77.6552 27.6359L77.4687 27.5904L77.3468 27.5893L77.0977 27.5047L77.0458 27.4741L76.9727 27.3916L76.8455 27.2837L76.7448 27.3122L76.6261 27.1568L76.4067 27.1441L76.2626 27.0076L76.0601 27.0023L76.0124 27.0119L75.9679 27.0425L75.8916 27.5111L75.8534 27.601L75.7729 27.6422L75.7316 27.8654L75.6786 28.0494L75.5079 28.4291L75.4719 28.5582L75.42 28.903L75.3341 29.2107L75.0373 29.82L74.9812 29.968L74.9176 30.2049L74.8847 30.6999L74.8201 30.848L74.7088 31.0447L74.6346 31.2742L74.4809 31.6159L74.4417 31.7301L74.4067 31.9109L74.412 31.9755L74.199 32.0516L74.1237 31.986L74.0983 31.8189L74.1619 31.3747L73.828 31.0119L73.6669 30.4038L72.9844 29.6052L73.0575 29.509L72.9674 29.527L72.9388 29.4953L73.0427 29.418L73.0808 29.3144L73.0321 29.3165L72.9653 29.4392L72.8932 29.3853L72.8211 29.3821L72.7522 29.3673L72.8296 29.2467L72.7692 29.2456L72.677 29.3757L72.6102 29.2985L72.5498 29.1473L72.4343 29.2224L72.3368 29.2255L72.2213 29.05L71.5811 29.0341L70.9823 28.6999L70.2774 28.3911L70.2859 28.1795L69.8461 27.9976L68.8657 28.3392L68.2192 27.4349L67.3024 27.5375L67.2017 27.2795L66.942 27.2562L66.8392 27.1356L66.5933 26.9759L66.2457 26.684L65.9139 27.106L65.6511 26.8299L65.349 27.1684L64.817 27.0499L64.7608 27.1536L64.5552 27.2456L64.3125 27.1271L64.1842 27.2065L64.0846 27.4804L63.7783 27.3662L63.578 27.2181L63.4709 27.0362L63.2865 26.941L63.4487 26.8797L63.5366 26.666L63.526 26.4344L63.7211 26.4037L63.9087 26.4862L63.8864 26.3297L63.7783 25.8643L63.7317 25.8432L63.6893 25.7215L63.8133 25.4476L63.915 25.015L64.0168 25.0192L64.0358 24.7654L64.1768 24.7643L64.0539 24.5877L64.4375 24.4481L64.2913 24.3318L64.0835 24.3476L63.8186 24.1065L63.8726 23.9478L64.0539 23.9404L64.0984 23.8315L64.0009 23.8019L63.6787 23.8103L63.65 23.6749L63.472 23.5924L63.3957 23.4359L63.5589 23.3862L63.5356 23.2254L63.6426 23.1271L63.7476 23.1186L63.9055 23.1726L64.2849 22.7833L64.2828 22.6522L64.3697 22.3137L64.2849 22.062L63.4412 22.2006L63.296 21.9118L63.3437 21.7088L63.3257 21.5871L63.4974 21.4983L63.5398 21.5586L63.737 21.475L63.5377 21.2677L63.3713 21.1715L63.366 20.9726L63.0565 20.7177L62.8827 20.6606L62.888 20.5548L62.7227 20.3655L62.7534 20.1847L63.2399 19.9509L63.7762 19.7542L63.9595 19.4665L64.0019 19.3005L63.9479 19.1556L63.9956 18.9631L63.933 18.87L63.9903 18.6257L64.1779 18.6204L64.269 18.5569L64.5605 18.4237L64.7226 18.1984L65.0258 17.9467L65.0724 17.7658L65.2091 17.6854L65.331 17.8991L66.216 18.2671L66.5499 18.3496L66.8339 18.2195L67.1879 17.5775L67.3289 17.4316L67.2695 17.0127L67.0745 16.9577L67.1487 16.2375L66.7226 15.9551L66.5848 15.8842L66.4174 15.7531L66.322 15.6092L66.1651 15.5616L66.109 15.2338L65.862 14.8773L66.0379 14.707L66.0856 14.7451L66.3082 14.6267L66.3347 14.5082L66.4608 14.4521L66.5075 14.559L66.7682 14.4775L67.19 14.2099L67.2971 14.247L67.278 14.0904L67.3098 13.9582L67.2038 13.9762L67.1943 13.7795L67.6066 13.7192L67.6638 13.7879L67.9298 13.5278L67.8747 13.348L68.1905 13.2676L68.2457 12.945L68.4004 12.927L68.8095 13.7869Z" fill="#EAFF06"/>
<path d="M43.5716 30.7761L47.4677 30.8374L47.8407 31.4456L48.0241 32.0485L48.3071 32.7677L48.5615 33.8666L48.6791 34.0337L48.837 34.8999L49.0225 36.1543L48.9451 36.2061L48.908 36.4504L48.7649 36.6736L48.731 37.0004L48.4724 37.6445L48.4777 37.7038L48.2 38.1004L48.4162 38.1765L48.359 38.2654L48.448 38.5404L48.5593 38.4917L48.606 38.4949L48.5826 38.5975L48.7257 38.5753L48.9441 38.7339L49.0077 38.5774L49.0543 38.5816L49.0946 38.7477L49.28 38.7646L49.3309 38.8386L49.404 38.8101L49.4549 38.8735L49.4178 38.9973L49.5228 39.0988L49.5991 39.0481L49.6521 39.0883L49.5779 39.2194L49.6425 39.2712L49.7093 39.3008L49.6563 39.3537L49.7263 39.4521L49.6987 39.6805L49.7051 39.818L49.7453 39.8677L49.6945 40.001L49.9107 40.1343L50.0622 40.1258L50.0855 40.2189L50.2074 40.2644L50.2191 40.3553L50.2859 40.3733L50.3113 40.4431L50.3707 40.5267L50.483 40.5478L50.6229 40.7921L50.7872 40.7488L50.8243 40.8154L50.7872 40.9201L50.8762 40.9243L50.8773 40.9889L50.9928 41.0936L50.9663 41.1465L50.9642 41.2152L50.9833 41.2617L50.9737 41.3019L51.0002 41.3241L51.1051 41.3157L51.0225 41.4193L50.8985 41.4944L50.8677 41.4955L50.8094 41.4511L50.7416 41.5145L50.7045 41.5759L50.5657 41.7282L50.5593 41.7842L50.4629 42.0264L50.4109 42.037L50.3569 41.9873L50.323 41.9778L50.3208 41.8784L50.2965 41.8382L50.1841 41.7758L50.0644 41.6711L50.0177 41.67L50.0008 41.6901L49.9774 41.8011L49.9202 41.8699L49.8365 41.9344L49.8534 42.0962L49.7432 42.1671L49.6669 42.1914L49.58 42.2887L49.5016 42.4569L49.3002 42.5701L49.2535 42.679H49.2228L49.2006 42.6113L49.1529 42.6177L49.0681 42.808L48.9377 42.8609L48.8847 42.8154L48.8296 42.8006L48.7554 42.8472L48.6155 42.862L48.5392 42.9286L48.394 42.9677L48.2265 43.1338L48.1757 43.2396L48.0569 43.2745L47.9828 43.3379L47.9499 43.395L47.9679 43.4342L48.0199 43.468L48.005 43.5135L47.987 43.522L47.8884 43.5061L47.7697 43.5347L47.6796 43.5008L47.5482 43.5167L47.4973 43.5473L47.4486 43.6531L47.35 43.7092L47.2991 43.8361L47.2695 43.8562L47.208 43.8223L47.1847 43.8297L47.0967 43.9662L47.0882 44.0868L47.0172 44.1544L47.0034 44.2348H46.9557L46.9261 44.2549L46.8339 44.3543L46.6388 44.6367L46.606 44.7108L46.5922 44.7922L46.5328 44.8462L46.4512 44.8779L46.3876 44.9308L46.3643 44.8588L46.4438 44.8049L46.3855 44.7785L46.3495 44.7954L46.3198 44.7838L46.2976 44.7161L46.1926 44.7816L46.1789 44.7552L45.9595 44.7414L45.9605 44.7986L46.1216 44.8091L46.1608 44.8705L46.1227 44.9107L46.1661 45.0228L46.128 45.3528L46.2742 45.5548L46.3241 45.7007L46.4311 45.7579L46.4693 45.8509L46.2774 45.9271L46.1704 45.9197L46.1343 45.9694L45.9171 45.9059L45.9414 45.8552L45.8566 45.7854L45.7729 45.8076L45.5906 45.6521L45.4221 45.5929L45.2621 45.4141L45.0056 45.2629L44.8964 45.2333L44.8328 45.1444L44.8657 45.0429L45.0469 45.0365L45.0427 44.8049L45.1084 44.7393L45.0469 44.586L45.1094 44.5204L45.2197 44.4971L45.1847 44.476L45.1582 44.4876L45.0967 44.4305L44.9611 44.5183L44.924 44.4654L44.8583 44.5236L44.7109 44.3861L44.6198 44.2761L44.5806 44.2655L44.518 44.2084L43.8323 44.1872L43.721 44.2147L43.6818 44.2094L43.6436 44.1841L42.1937 44.0762L42.039 42.3141L40.9653 42.184L40.9749 41.3506L41.0162 41.3019L41.0204 41.009L41.1646 41.0714L41.1678 41.0301L41.3469 41.0735L42.1789 40.2125L42.4682 40.3902L43.048 39.8064L43.5631 39.4204L44.1132 39.2173L44.7968 38.8767L44.9982 38.7477L45.0066 38.6546L44.8604 38.6937L44.7809 38.5034L44.8169 38.3532L44.6971 38.3585L44.7194 38.2315L44.6071 38.295L44.6399 38.4727L44.5519 38.5266L44.4905 38.2548L44.6993 38.1945L44.7417 37.9629L44.7247 37.8688L44.9208 37.6678L44.9197 37.2215L45.1232 37.3981L45.2112 37.3558L45.2345 37.0512L45.1741 36.8947L45.1306 36.8333L45.2366 36.7212L45.3617 36.6704L45.4412 36.7339L45.5864 36.5901L45.0204 36.1871L44.7841 35.9005L44.7788 35.8042L44.5424 35.672L44.4173 35.7122L44.1979 35.4985L44.2223 35.3209L44.2637 35.2627L44.2509 33.2426L43.9234 33.1029L43.5323 32.7793L43.6627 32.2991L43.6829 31.9956L43.7464 31.7788L43.8715 31.6021L43.9309 31.471L43.8683 31.2711L43.5429 31.0204L43.5716 30.7761Z" fill="#EAFF06"/>
<path d="M9.87561 12.9651L10.1162 12.9725L10.1491 12.9492L10.2296 13.0074L10.3451 12.9799L10.36 12.9947L10.4077 12.9841L10.4193 12.9989L10.4617 12.9958L10.4638 12.9736L10.6514 12.9355L10.7013 12.9767L10.7097 13.0233L10.8401 13.055L10.8549 13.1851L10.8518 13.3078L10.8263 13.3427L10.6504 13.3522L10.6112 13.3585L10.6006 13.3765L10.609 13.4209L10.6546 13.4516L10.6705 13.4833L10.6695 13.5595L10.7479 13.5923L10.9037 13.5859L10.9853 13.6177L11.1708 13.5246L11.2227 13.4516L11.2217 13.3755L11.2672 13.3596L11.3086 13.4484L11.3669 13.4368L11.3934 13.4474L11.4315 13.5119L11.3743 13.6251L11.3944 13.6579L11.4379 13.6631L11.5661 13.5965L11.6255 13.5383L11.7283 13.4992L11.7378 13.4844L11.6615 13.3025L11.6583 13.2612L11.6975 13.1682L11.8661 12.9566L12.0568 12.9693L12.2158 13.0592L12.2953 13.0349L12.3812 13.0455L12.45 13.0063L12.4903 12.9471L12.5168 12.8371L12.5857 12.8234L12.697 12.8435L12.7839 12.7811L12.7797 12.7081L12.8337 12.6827L12.8878 12.7039L12.9047 12.7239L12.9471 13.0434L13.068 13.2031L13.1252 13.3384L13.1962 13.4051L13.2163 13.5309L13.299 13.587L13.3001 13.6198L13.282 13.6335L13.2916 13.6769L13.3329 13.6928L13.3361 13.678L13.3986 13.6431L13.3955 13.7002L13.4612 13.7055L13.44 13.6579L13.459 13.6473L13.4845 13.6737L13.5004 13.6695L13.5067 13.5891L13.5258 13.5859L13.5481 13.6706L13.5852 13.6938L13.5703 13.6282L13.67 13.5976L13.706 13.6092L13.6954 13.5373L13.7442 13.5637V13.5087L13.7611 13.4759L13.7759 13.5003L13.7717 13.532L13.7929 13.5161L13.8088 13.5436L13.8374 13.5288L13.8427 13.5658L13.8947 13.5436L13.9508 13.5711L14.0059 13.55L14.0038 13.5701L13.9455 13.605L13.9561 13.642H13.9741L14.0006 13.6134L14.0271 13.6304L14.042 13.5658L14.0748 13.5669L14.0706 13.6082L14.0981 13.6314L14.1278 13.6917L14.1437 13.679L14.131 13.6378L14.1872 13.66L14.1787 13.6092L14.237 13.6367L14.3409 13.5923L14.378 13.5563L14.4013 13.5542L14.4193 13.5828L14.4585 13.5976L14.5539 13.5881L14.555 13.5563L14.5136 13.5108L14.521 13.4759L14.5762 13.4908L14.6164 13.441L14.6334 13.4527L14.609 13.5034L14.6207 13.5183L14.6662 13.5341L14.7341 13.5204L14.7616 13.5331L14.7955 13.6029L14.822 13.6039L14.8454 13.5521L14.8973 13.5225L14.963 13.5024L14.9948 13.514L15.034 13.5732L15.0881 13.5849L15.1347 13.6293L15.1358 13.6758L15.229 13.7213L15.2396 13.7583L15.3128 13.789L15.405 13.7943L15.4166 13.843L15.4601 13.8927L15.5205 13.9244L15.5322 13.9635L15.5152 13.9857L15.4558 13.9942L15.512 14.0651L15.4982 14.1306L15.4739 14.1444L15.4664 14.1952L15.4802 14.2396L15.5608 14.3147L15.5788 14.3665L15.5714 14.4088L15.6085 14.4553L15.653 14.4416L15.7431 14.486L15.7579 14.5315L15.7886 14.5103L15.83 14.5167L15.8798 14.4987L15.9402 14.5653L15.9646 14.5706L16.0377 14.5569L16.0589 14.5357L16.2009 14.6045L16.2264 14.6373L16.3408 14.6648L16.3801 14.7028L16.3726 14.7367L16.3938 14.7547L16.5189 14.7948L16.5602 14.835L16.5878 14.9059L16.5571 14.9852L16.5634 15.0233L16.573 15.0265L16.5889 14.9863L16.6058 14.9789L16.6641 15.0645L16.6673 15.0942L16.6312 15.1047L16.6132 15.1291L16.6471 15.1597L16.645 15.2063L16.697 15.2264L16.6864 15.2814L16.7616 15.3406L16.8347 15.5024L16.8835 15.5691L16.9206 15.5891L17.1834 15.6103L17.3265 15.6875L17.3329 15.7467L17.2343 15.9128L17.2025 16.0492L17.2269 16.1666L17.1485 16.3221L17.1421 16.4141L17.317 16.6838L17.3806 16.6796L17.4346 16.6468L17.4664 16.6923L17.2068 17.0011L17.2417 17.0931L17.0223 17.3258L17.1771 17.5405L17.1389 17.7637L17.1463 18.0355L17.2439 18.0651L17.2502 18.1466L17.3891 18.2121L17.4156 18.3729L17.3233 18.5591L17.3308 18.6532L17.1326 19.0012L17.2534 19.1482H17.0255L16.9821 19.2613L16.839 19.4411L16.8867 19.5289L16.6842 19.6484L16.5083 19.6167L16.2539 19.622L16.2168 19.7754L16.0155 19.7743L15.8565 19.9171L15.7727 20.1307L15.6445 20.0673L15.7166 20.2323L15.5809 20.6945L15.6 20.9874L15.5322 21.09L15.1336 21.4274L15.1877 21.5533L14.8687 21.6538L14.1533 21.6527L14.0261 21.5914L13.9042 21.8769L13.7208 21.7976L13.7526 22.5528L13.5046 22.5634L13.3605 23.1683L13.4071 23.3206L13.2619 23.4084L13.0404 23.4137L12.5878 23.1578L12.4977 23.1694L12.4246 23.2984L11.7643 23.1482L11.7802 22.8944L11.8512 22.8447L11.7961 22.7326L10.9249 22.5824L10.6801 22.6945L10.254 22.7241L10.1385 23.0827L9.94874 23.199L9.86395 23.1567L9.67211 23.3397L9.54281 23.3429L8.41086 24.1012L7.99327 24.5285L7.64669 24.52L7.53435 24.6121L6.89312 24.5771L6.90902 24.8944L5.90108 24.4957L5.32981 24.336L3.51319 24.134L2.46497 23.97L2.22332 23.9827L1.91172 23.8791L1.7273 23.6612L1.73684 23.6263L1.72306 23.6157L1.62343 23.6178L1.47823 23.5851L1.21538 23.4592L0.894236 23.3376L0.832764 23.291L1.05746 22.6617L1.19736 22.3349L1.30017 22.0303L1.42205 21.7553L1.74955 21.5522L1.88522 21.3746L1.95729 21.1905L1.98591 21.0477L1.97001 20.9779L1.92231 20.9102L1.59905 20.6215L1.43053 20.5221L1.42523 20.4808L1.47081 20.209L1.50684 19.8166L1.58845 19.6548L1.61919 19.4295L1.61813 19.219L1.65735 18.9229L1.68702 18.8541L1.70928 18.8298L1.82269 18.8277L2.10143 18.7209L2.2106 18.6479L2.33884 18.5199L2.42469 18.3888L2.56248 18.1127L2.5752 18.0768L2.5487 17.9911L2.4141 17.7774L2.54976 17.6389L2.54128 17.6008L2.49995 17.5828L2.49889 17.4189L2.53492 17.3523L2.6939 17.3406L2.71616 17.3269L2.71828 17.2053L2.7575 17.1809L2.79035 17.0826L2.92496 16.9535L3.01186 16.9324L3.16025 17.0106L3.23868 17.1111L3.40826 17.201L3.39024 17.237L3.45807 17.3269L3.47821 17.3438L3.55664 17.3544L3.56406 17.4073L3.62659 17.4961L3.73576 17.5987L3.82267 17.715L3.84917 17.8018L3.90428 17.8473L3.91382 17.9372L3.98801 18.0006L4.02087 18.0609L4.10883 18.0884L4.13215 18.1212L4.19998 18.4311L4.2392 18.4702L4.24556 18.5231L4.26888 18.5622L4.32399 18.6024L4.38016 18.7008L4.39606 18.7748L4.38228 18.8161L4.40666 18.8341L4.49463 18.851L4.53914 18.8224L4.57518 18.8309L4.60274 18.8848L4.63347 18.8975L4.64937 18.9567L4.70978 18.9292L4.7437 18.9631L4.74582 19.0001L4.80729 19.0255L4.82425 19.0107L4.82531 18.9271L5.44534 18.6458L5.70818 18.3888L5.73892 18.338L5.69229 18.2037L5.68593 18.1392L5.55662 18.1138L5.50045 18.0873L5.48667 18.0598L5.49197 18.0027L5.51529 17.9731L5.53119 17.9054L5.53649 17.8377L5.50681 17.7563L5.40824 17.5955L5.37432 17.4866L5.34359 17.2095L5.24184 16.6764L5.27152 16.5781L5.24078 16.4956L5.10724 16.4215L5.08392 16.3771L5.0818 16.3337L5.12313 16.284L5.16765 16.2713L5.23548 16.2872L5.37432 16.4152L5.53331 16.4279L5.60326 16.4871L5.62975 16.4892L5.71878 16.3845L5.86399 16.301L5.95514 16.1666L6.18195 15.898L6.28582 15.8398L6.4607 15.8007L6.5529 15.7214L6.67797 15.7108L6.83589 15.6547L6.85709 15.5923L6.83801 15.532L6.7511 15.3311L6.71613 15.274L6.65783 15.2285L6.65571 15.202L6.76912 15.0127L6.75428 14.8795L6.78078 14.853L6.84437 14.8372L6.85497 14.7726L6.93446 14.7906L7.02667 14.8424L7.07012 14.8403L7.21215 14.7896L7.41988 14.8276L7.50361 14.8213L7.71347 14.6341L7.77494 14.5537L7.91166 14.431L8.36741 14.2597L8.49989 14.2353L8.80302 14.0841L8.81256 14.0714L8.7744 14.0439L8.73307 13.9413L8.81256 13.8599L8.81044 13.8271L8.76592 13.7795L8.9938 13.7594L9.00015 13.6431H9.09872L9.10402 13.5944L9.05527 13.4833L9.07541 13.3194L9.10402 13.2263L9.13476 13.2189L9.1549 13.2401L9.17291 13.2253L9.21425 13.091L9.32872 13.092L9.37535 13.1163L9.52055 13.1375L9.52267 13.1999L9.42198 13.2983L9.41562 13.3247L9.59898 13.3035L9.61594 13.2697L9.64456 13.257L9.67741 13.0286L9.60216 12.9873L9.56401 12.9429L9.55023 12.816L9.57461 12.6869L9.6329 12.6816L9.8205 12.7705L9.87561 12.9651Z" fill="#EAFF06"/>
<path d="M57.7782 30.7814L57.6129 31.142L57.4168 31.472L57.5058 32.5508L57.6182 32.8459L56.996 32.8005L57.0331 33.3409L57.6108 33.3557L57.6277 33.709L57.7083 33.8052L57.7486 33.9311L58.4099 34.3933L58.6071 34.7328L58.5127 35.0797L58.5795 35.1844L58.9727 35.5599L59.4327 35.6096L59.4677 35.6138L59.6648 35.7947L59.7931 35.8127L59.9096 35.9703L60.1237 36.1162L60.1333 36.4695L60.0866 36.5922L59.9955 36.6969L60.0432 36.901L59.9944 37.0332L59.916 37.0702L59.4656 37.4975L59.4666 37.6794L59.8143 37.8011L59.8842 37.7535L60.0008 37.7683L59.9701 37.8667L60.2785 37.8286L60.3527 37.9534L60.0792 38.2844L60.0559 38.5235L60.1343 38.57L60.1057 38.6916L60.1852 38.7265L60.234 38.9275L60.4332 38.9687L60.8211 39.1517L60.766 39.2638L60.6473 39.2998L60.6706 39.3453L60.8699 39.3231L60.9844 39.395L61.0914 39.3484L61.1126 39.4479L61.1285 39.4457L61.0776 39.5346L61.0405 39.7123L61.0151 39.7567L60.9282 39.8223L60.7173 39.7556L60.464 39.744L60.3834 39.7599L60.3347 39.7525L60.1174 39.6573L60.0199 39.671L59.933 39.7091L59.8704 39.6985L59.8524 39.6795L59.7782 39.6753L59.7199 39.5949L59.6277 39.5557L59.6171 39.5282L59.5249 39.4828L59.4656 39.4246L59.3808 39.414L59.3193 39.3675L59.3013 39.378L59.2928 39.3273L59.2737 39.304L59.1211 39.2395L59.0808 39.2712H58.9218L58.8519 39.1771L58.8264 39.0883L58.7682 39.0364L58.6855 38.9952L58.659 38.9148L58.6145 38.8936L58.5297 38.8175L58.4968 38.8259L58.4555 38.7995L58.4364 38.8111L58.3972 38.7403L58.2976 38.7308L58.2679 38.6948L58.234 38.7138L58.1926 38.6916L58.1026 38.6811L58.0856 38.6599L58.0326 38.6504L58.004 38.589L57.7984 38.6028L57.7475 38.5901L57.7189 38.607L57.7634 38.699L57.756 38.7212L57.7242 38.7382L57.6892 38.7392L57.6034 38.7868L57.5058 38.8133L57.4052 38.7826L57.3638 38.735L57.3045 38.7181L57.2038 38.882L57.1741 38.9835L57.0278 38.9423L56.9431 38.9518L56.6548 39.1031L56.517 39.1602L56.4905 39.1919L56.482 39.2099L56.5021 39.2469L56.4968 39.2807L56.4555 39.3696L56.4004 39.4404L56.3707 39.5155L56.3781 39.8614L56.2923 40.0243L56.2139 40.2972L56.2096 40.4526L56.2446 40.6197L56.3993 40.8186L56.393 40.8799L56.3527 40.9L56.3198 40.9043L56.2711 40.8704L56.0538 40.8503L55.9796 40.789L55.9807 40.6578L55.9553 40.6314L55.8365 40.625L55.562 40.5499L55.4147 40.5647L55.3564 40.5499L55.2918 40.5721L55.243 40.5542L55.1593 40.551L55.0946 40.5023L55.012 40.4886L54.96 40.46L54.8169 40.2623L54.658 40.2125L54.534 40.1438L54.4947 40.1374L54.4163 40.1565L54.3124 40.1343L53.8662 39.928L53.7634 39.9249L53.6786 39.9524L53.6278 39.9407L53.5843 39.982L53.5334 39.9915L53.4688 39.9693L53.4031 39.9005L53.2547 39.8582L53.1911 39.818L53.1604 39.7747L53.0056 39.7228L52.9123 39.7271L52.7936 39.7926L52.6188 39.8424L52.5202 39.9122L52.4036 39.8847L52.375 39.8445L52.2944 39.7884L52.2573 39.7874L52.1959 39.8159L52.0327 39.8223L51.9828 39.8783L51.7995 39.8688L51.7836 39.89L51.7857 39.9386L51.6977 40.1121L51.5886 40.1702L51.5939 40.276L51.5695 40.3447L51.3141 40.3744L51.2494 40.4315L51.2441 40.4569L51.2823 40.515L51.4179 40.6145L51.42 40.6673L51.3872 40.7371L51.3512 40.7488L51.3045 40.735L51.2187 40.662L51.1848 40.6906L51.1413 40.7594L51.1286 40.8514L51.0957 40.9423L51.0544 41.0058L51.0237 41.0227L50.9929 41.0936L50.8774 40.9889L50.8763 40.9243L50.7873 40.9201L50.8244 40.8154L50.7873 40.7488L50.623 40.7921L50.4831 40.5478L50.3708 40.5267L50.3114 40.4431L50.286 40.3733L50.2192 40.3553L50.2075 40.2644L50.0857 40.2189L50.0623 40.1258L49.9108 40.1343L49.6946 40.001L49.7454 39.8677L49.7052 39.818L49.6988 39.6805L49.7264 39.4521L49.6564 39.3537L49.7094 39.3008L49.6426 39.2712L49.578 39.2194L49.6522 39.0883L49.5992 39.0481L49.5229 39.0988L49.4179 38.9973L49.455 38.8735L49.4042 38.8101L49.331 38.8386L49.2802 38.7646L49.0947 38.7477L49.0544 38.5816L49.0078 38.5774L48.9442 38.7339L48.7258 38.5753L48.5828 38.5975L48.6061 38.4949L48.5594 38.4917L48.4482 38.5404L48.3591 38.2654L48.4164 38.1765L48.2001 38.1004L48.4778 37.7038L48.4725 37.6445L48.7311 37.0004L48.7651 36.6736L48.9081 36.4504L48.9452 36.2061L49.0226 36.1543L48.8371 34.8999L48.6792 34.0337L48.5616 33.8666L48.3072 32.7677L48.0242 32.0485L47.8408 31.4456L47.4678 30.8374L50.3856 30.8311L52.0369 30.7888L52.4015 30.8152L54.3739 30.7422L57.7782 30.7814Z" fill="#EAFF06"/>
<path d="M30.2443 28.4366L30.2104 28.5836V28.7528L30.1987 28.9337L30.4022 29.1822L30.6852 29.1706L31.0021 29.2266L31.1155 29.1357L31.195 29.1473L31.2014 29.325L31.1674 29.6751L31.0381 29.8951L30.8368 30.0146L30.6449 30.0865L30.4965 30.2208L30.2803 30.2589L30.0885 30.4366L30.0546 30.5656L29.9825 30.6661L29.8193 30.7L29.69 30.738L29.6656 30.8406L29.6221 30.8977L29.5935 31.0606L29.5649 31.1992L29.4589 31.2711L29.4685 31.362L29.4738 31.4773L29.5744 31.5873L29.6179 31.7555L29.6518 31.894L29.6423 32.0664L29.5649 32.2441L29.5405 32.3499L29.637 32.4218L29.6847 32.5942L29.69 32.9824L29.637 33.1019V33.2267L29.69 33.4044L29.7811 33.4816L29.8246 33.6159L29.9496 33.6254L30.0313 33.7259L30.1182 34.0083L30.1659 34.2283L30.1372 34.4346L30.0652 34.6408L30.0026 34.6746L29.9549 34.7222L29.8998 34.7656L29.141 34.2188H29.1388V34.2177L27.3731 32.9454L27.371 32.9464L27.3678 32.865L27.3339 32.774L27.2713 32.7116L27.194 32.664L27.1696 32.5826L27.1505 32.4959L27.088 32.3668L27.141 32.3002L27.1505 32.1944L27.1314 32.0315L27.1558 31.9353L27.1124 31.8539H27.0159L26.9491 31.8295L26.911 31.7862L26.8389 31.7481L26.8008 31.7957L26.7668 31.8729L26.6948 31.9258L26.6365 31.9586L26.5506 31.9554L26.4934 31.9268H26.4266L26.4023 31.9744V32.0749L26.3588 32.1035L26.3482 32.2082L25.8384 31.8412L25.6487 31.9141L25.654 31.8253L25.7218 31.7121L25.813 31.6667L25.8246 31.4636L25.9041 31.2372L26.0059 31.0225L26.0959 30.8977L26.1977 30.83L26.4129 30.7846L26.5856 30.6925L26.5888 30.6915V30.701L26.6269 30.7074L26.6842 30.755L26.8092 30.774L26.9385 30.7645L26.982 30.7264L27.0488 30.6545L27.1399 30.6016L27.2406 30.6545L27.3275 30.7169L27.2894 30.8036L27.2025 30.8998L27.1399 30.9908L27.0827 31.0818L27.0583 31.1971L27.053 31.2975L27.0679 31.3747H27.1781L27.2936 31.3314L27.4091 31.3219L27.5003 31.3557L27.5766 31.2933L27.62 31.178L27.6635 31.0395L27.7356 31.0775L27.8023 31.0437L27.8596 30.9474L27.884 30.8036L27.8649 30.6069L27.8405 30.5254L27.8363 30.4387L27.8744 30.3002L27.8214 30.1806L27.6677 29.9268L27.5957 29.821L27.5904 29.7058L27.6571 29.6909L27.8585 29.6857L28.0027 29.6909L28.1277 29.7153L28.2093 29.8157L28.204 29.9744L28.2189 30.1034L28.2623 30.1754L28.2475 30.2949L28.2231 30.3763L28.2899 30.4144L28.434 30.4049L28.5156 30.3234L28.6216 30.2325L28.7128 30.1796L28.876 30.1986L29.0922 30.242L29.2024 30.2663L29.3127 30.3287L29.4324 30.4577L29.5617 30.5011L29.8352 30.4482H29.9507L30.0514 30.3816L30.1712 30.3097L30.2146 30.1563L30.2189 29.9458L30.1563 29.8263L30.0556 29.673L30.0408 29.582L30.0355 29.4858L29.9443 29.5048L29.867 29.601L29.708 29.711L29.5829 29.6677L29.4918 29.5958L29.4345 29.4858H29.3148L29.1802 29.5048L29.0604 29.5386L28.964 29.5862H28.8484L28.7043 29.5238L28.6566 29.4519L28.5845 29.2933L28.5231 29.2171L28.5358 29.0056L28.6206 28.8924L29.088 28.5815H29.23L29.3296 28.6809L29.3858 28.794L29.372 29.0764L29.4006 29.1759L29.4769 29.1219V28.794L29.6359 28.8395L29.7716 28.9072L29.885 28.8512L29.9645 28.7602L30.044 28.7147V28.5836L29.9083 28.482L29.8066 28.4704L29.6932 28.4143L29.7048 28.3128L29.8861 28.3012H29.9878L30.0895 28.3911L30.2443 28.4366ZM28.5983 31.8094L28.7001 31.7439L28.8018 31.7005L28.8898 31.6497H29.4377L29.4081 31.599L29.1961 31.5916L28.9989 31.5556L28.9481 31.4467L28.6852 31.417L28.5103 31.4319L28.3429 31.4393L28.168 31.4826L28.1606 31.636L28.1532 31.8549H28.3726L28.5983 31.8094Z" fill="#EAFF06"/>
</g>
<defs>
<clipPath id="clip0">
<rect width="84" height="49" fill="white" transform="translate(0.800781)"/>
</clipPath>
</defs>
</svg>
