<svg width="77" height="38" viewBox="0 0 77 38" fill="none" xmlns="http://www.w3.org/2000/svg">
<path d="M75.8767 8.93802L75.9228 9.07679L75.9514 9.37314L75.9881 9.52172L76.0652 9.6559L76.1533 9.76682L76.2205 9.89357L76.2306 10.0677L76.0552 10.3633L75.7164 10.4865L73.9767 10.5079L73.6218 10.6086L73.372 10.7201L73.2616 10.8109L73.1679 10.9493L73.1097 11.1117L73.0404 11.4545L72.9803 11.6189L72.7394 11.8566L72.4319 11.9082L72.1037 11.9086L71.7969 11.9908L71.4134 12.2742L70.9691 12.4537L70.4308 12.8386L70.2924 12.8956L70.1294 12.9015L69.6893 12.7743L69.5388 12.8163L69.4205 12.9016L69.0998 13.2122L68.953 13.3231L68.805 13.388L68.4847 13.4725L68.2175 13.5864L67.4507 14.1589L67.0353 14.2476L66.9106 14.3139L66.2982 14.7639L65.3715 15.1506L65.2777 15.2066L65.1884 15.2892L65.1384 15.3901L65.0857 15.6175L65.02 15.7092L64.7781 15.8244L64.2721 15.9421L63.6415 16.4462L63.369 16.5793L63.2488 16.6666L63.1396 16.8091L63.1144 16.9726L63.2452 17.3182L63.2686 17.4806L63.2006 17.6374L63.0789 17.7458L62.8053 17.9154L62.6954 18.0254L62.5289 18.2863L62.2272 18.8973L62.1337 19.0452L62.0355 19.1568L61.3493 19.7696L61.2281 19.8185L61.0841 19.8067L60.8132 19.6907L59.9036 19.5845L59.6574 19.6001L59.4262 19.6786L58.5238 20.1835L58.4198 20.2225L58.292 20.2371L57.9384 20.2304L57.4082 20.3928L57.21 20.3881L57.0017 20.2877L56.6075 20.1345L56.2193 20.0635L55.9984 20.0823L55.5995 20.2127L54.7383 20.1801L54.5269 20.1144L54.1516 19.9357L53.9625 19.9058L53.2212 20.0887L52.9522 20.2084L52.776 20.389L52.6824 20.5331L52.4326 20.7251L52.317 20.8429L52.2551 21.013L52.2846 21.1848L52.3393 21.3598L52.3612 21.5375L52.3074 21.7208L52.2034 21.8364L51.9314 21.9945L51.7073 22.1992L51.5315 22.4776L51.421 22.8041L51.3985 23.715L51.3768 23.8592L51.3023 23.9895L50.9423 24.28L50.7744 24.56L50.5665 25.1956L50.4175 25.4541L50.2317 25.6426L49.6376 26.0481L49.4234 26.2641L49.308 26.311L49.2063 26.2023L49.0822 25.6553L49.0106 25.5057L48.8053 25.4475L48.6127 25.6726L48.41 25.965L48.1788 26.1201L48.048 26.0926L47.7864 25.9572L47.6534 25.9183L47.4829 25.9378L46.8729 26.2478L46.7848 26.3783L46.7108 26.5296L46.6 26.6856L46.4664 26.7809L46.3196 26.8151L46.168 26.8092L45.7169 26.7091L45.5671 26.7013L45.4181 26.7241L45.1031 26.8678L44.9462 26.8832L44.8267 26.7615L44.7647 26.6078L44.6424 26.216L44.6247 26.0478L44.6768 25.874L44.7651 25.7492L44.8302 25.6307L44.8107 25.4702L44.7404 25.3742L44.5399 25.199L44.4614 25.0859L44.4088 24.9186L44.3615 24.4138L44.226 24.0357L44.0293 23.8527L43.7807 23.855L43.4937 24.0325L42.0109 25.2684L41.9439 25.3064L41.8628 25.3257L41.7782 25.3622L41.743 25.4321L41.7179 25.517L41.6673 25.593L41.5399 25.6267L41.4084 25.5705L41.2762 25.4837L41.1468 25.4351L40.9747 25.4662L40.6407 25.6276L40.4647 25.6568L40.209 25.6056L39.9561 25.5064L39.3443 25.1093L39.1853 25.0403L39.0401 25.0592L38.9371 25.2169L38.9122 25.3114L38.9052 25.3442L38.8529 25.5084L38.7721 25.7001L38.726 25.8794L38.7798 26.0142L39.1112 26.3031L39.1995 26.4198L39.263 26.7114L39.0488 26.7703L38.461 26.6371L38.3093 26.6312L38.1806 26.6899L37.8341 27.0549L37.7197 27.142L37.4534 27.2903L37.2265 27.4664L36.6274 28.1441L35.9024 28.7559L35.6546 28.8692L35.4419 28.907L35.2295 28.8796L34.9885 28.7954L34.7466 28.7496L34.5008 28.7862L34.2625 28.8898L34.0468 29.0426L33.8298 29.1457L33.3772 29.2199L33.1926 29.3778L33.123 29.4715L33.0674 29.5782L33.0314 29.696L33.0171 29.8247L32.9834 30.0344L32.8705 30.1867L32.738 30.326L32.6414 30.5046L32.596 30.8756L32.5655 30.9779L32.5129 31.052L32.317 31.2216L32.2367 31.352L32.1785 31.5144L32.1517 31.6894L32.1636 31.8597L32.2358 32.0323L32.3324 32.0894L32.4495 32.1153L32.5854 32.1924L32.6863 32.3471L32.7335 32.5299L32.7738 32.9084L32.9407 33.3777L32.908 33.4724L32.755 33.57L32.6447 33.6666L32.5605 33.7952L32.4877 33.9962L32.4175 34.3027L32.3526 34.4288L32.2339 34.4988L30.9357 34.7049L30.7372 34.6101L30.0969 34.5567L29.853 34.5876L29.1004 34.7899L28.9344 34.9089L28.8853 35.0462L28.8728 35.1711L28.8265 35.2623L28.4323 35.3447L27.7355 35.6013L27.5165 35.6239L27.2723 35.5628L27.1485 35.5064L27.0626 35.4855L26.9737 35.5049L26.6383 35.6894L26.5356 35.6996L26.4124 35.6642L25.9773 35.581L25.8334 35.5749L25.536 35.6454L25.4313 35.6518L24.144 35.3517L24.0274 35.3488L23.908 35.3881L23.8396 35.4492L23.7116 35.6171L23.6351 35.6669L23.5225 35.6677L23.345 35.559L23.2395 35.5309L23.1646 35.5653L22.9527 35.7985L22.8406 35.8185L22.724 35.8156L22.4954 35.7618L22.3752 35.7686L22.1201 35.9032L21.9692 35.9279L21.8461 35.975L21.7659 36.1111L21.6183 36.59L21.348 37.2098L21.2704 37.2175L21.1962 37.1177L21.1266 36.9757L21.1071 36.8919L21.1054 36.8229L21.0828 36.7698L20.9373 36.6986L20.8286 36.6208L20.7695 36.5858L20.4694 36.5452L20.3243 36.4894L20.259 36.3587L20.2428 36.1732L20.1966 35.952L20.1143 35.7624L19.9936 35.6715L19.8659 35.6937L19.6265 35.8299L19.3696 35.8879L19.2546 35.9501L18.5829 36.4418L18.3313 36.5553L18.0796 36.5901L17.9447 36.5532L17.8162 36.4605L17.7119 36.3232L17.6551 36.1482L17.6643 35.966L17.7335 35.857L17.8244 35.7608L17.9007 35.6267L17.9217 35.4499L17.8986 35.2224L17.8316 35.0228L17.7186 34.9298L17.5828 34.9369L16.8818 35.1016L16.5456 35.0926L16.2552 34.9693L16.104 34.6664L16.159 34.529L16.3274 34.27L16.363 34.1369L16.3246 33.9941L16.2204 33.8644L16.0936 33.7621L15.8572 33.6261L15.7333 33.6425L15.4973 33.7594L15.3021 33.8006L15.2348 33.8272L15.1871 33.8609L15.0944 33.9628L15.0449 34.0043L14.8093 34.1384L14.714 34.2136L14.4988 34.468L14.4244 34.5234L14.339 34.5255L13.9432 34.4604L13.6485 34.483L13.3631 34.5685L13.1377 34.7216L13.0001 34.9721L12.9043 35.2639L12.784 35.5083L12.5655 35.6267L12.374 35.5815L12.2006 35.4765L12.0475 35.4113L11.9189 35.4738L11.8358 35.5717L11.78 35.5941L11.7177 35.586L11.613 35.5924L11.5301 35.6194L11.3214 35.7414L11.1318 35.7728L10.9213 35.7415L10.7362 35.6387L10.627 35.4594L10.6282 35.352L10.6564 35.2344L10.6709 35.1114L10.6291 34.9917L10.5597 34.9321L10.397 34.869L10.3217 34.8114L10.3217 34.8095L10.1735 34.3857L10.0738 34.2023L9.90185 34.08L9.77919 34.0677L9.52604 34.1198L9.40541 34.1113L9.3168 34.0617L9.1582 33.9295L9.06215 33.8935L8.94209 33.908L8.71898 33.9977L8.60502 34.0235L8.53769 34.0501L8.49611 34.0971L8.46234 34.1458L8.42029 34.1737L8.35042 34.1754L8.2057 34.1348L8.13564 34.1289L8.04714 34.1636L7.44083 34.6268L7.3173 34.6586L7.19782 34.6174L7.18314 34.4932L7.24914 34.1735L7.24355 34.0242L7.20847 33.8602L7.14033 33.7737L7.03553 33.8568L6.85342 34.2732L6.79725 34.3589L6.68361 34.3981L6.57005 34.3606L6.33385 34.2323L6.1914 34.2051L6.03991 34.2049L5.89739 34.2544L5.78345 34.3607L5.67845 34.5146L5.62129 34.5601L5.41136 34.4733L5.12721 34.4495L4.5941 34.5699L4.32427 34.496L4.03108 34.3402L3.7552 34.2569L3.47101 34.2312L2.86823 34.2824L2.74901 34.3313L2.52094 34.5361L2.40427 34.6099L2.27918 34.657L2.14955 34.6774L2.00008 34.6811L1.70233 34.7363L1.55753 34.6919L1.38643 34.5255L1.34696 34.4996L1.28171 34.5319L1.25783 34.5881L1.24205 34.6574L1.20093 34.7236L0.93185 34.8394L0.827667 34.6292L0.834949 33.575L0.805648 33.409L0.749639 33.2628L0.647747 33.1465L0.522936 33.0461L0.417208 32.9317L0.36873 32.7758L0.381525 32.4248L0.450845 32.082L0.744139 31.1281L0.870965 30.8337L0.899824 30.7429L0.900456 30.6893L0.925222 30.6695L1.0208 30.6863L1.23013 30.9073L1.57769 31.4604L2.23777 31.2105L2.22715 31.0938L2.06092 30.8085L2.0653 30.749L2.05802 30.6897L2.04119 30.6365L2.0127 30.5835L1.94954 30.3034L1.98862 30.0744L2.0943 29.8686L2.23294 29.6602L2.25095 29.6023L2.27628 29.4464L2.3064 29.4074L2.36311 29.4232L2.43825 29.5575L2.48397 29.6004L2.59295 29.6093L2.70705 29.5892L5.4127 28.5611L5.65593 28.5801L6.65756 29.1938L6.80819 29.2381L7.15124 29.2086L7.31069 29.2162L7.46391 29.2872L7.56552 29.392L7.65392 29.5125L7.76751 29.6305L7.89333 29.6926L8.13671 29.7173L8.40345 29.8239L8.95672 29.8928L9.13078 29.9422L9.29451 30.0455L9.36826 30.2028L9.2702 30.4025L9.16338 30.4818L9.0503 30.544L8.94532 30.6193L8.85912 30.7479L8.79908 30.9142L8.78342 31.0679L8.83872 31.1854L8.98945 31.2334L9.0477 31.1534L9.09922 30.9567L9.14389 30.877L9.22443 30.8348L9.51924 30.8181L9.66739 30.7608L9.8031 30.6712L9.92045 30.5457L10.0097 30.3826L10.0623 30.0727L10.0459 29.7972L10.0734 29.5704L10.2517 29.3955L10.6906 29.2372L10.7844 29.1774L11.0506 28.9448L11.0919 28.8863L11.1147 28.8646L11.1533 28.8579L11.1887 28.8743L11.2125 28.8948L11.2167 28.9081L11.3412 28.838L11.3888 28.7966L11.4792 28.7618L11.85 28.8333L12.0618 28.7572L12.2905 28.581L12.3997 28.3599L12.2528 28.1469L12.497 27.8899L12.8971 27.8112L13.7035 27.9046L13.9223 27.8781L14.0157 27.7264L14.073 27.5276L14.1777 27.3621L14.276 27.3291L14.3472 27.3829L14.4116 27.4753L14.4855 27.5559L14.5816 27.5957L14.6964 27.6024L14.9113 27.5761L15.0513 27.5823L15.2755 27.778L15.5865 27.8643L15.657 27.9699L15.7146 28.1008L15.8437 28.2164L15.9934 28.3048L16.1521 28.3603L16.4798 28.4175L16.6502 28.396L16.7079 28.2931L16.7215 28.1375L16.7601 27.9679L16.8835 27.8518L17.0084 27.9542L17.1124 28.1548L17.1653 28.3336L17.1723 28.6995L17.2183 28.8344L17.3595 28.8904L17.4539 28.8613L17.8137 28.6398L17.9237 28.5317L17.9945 28.4073L18.1176 28.1207L18.3279 27.9028L18.5799 27.8833L18.8532 27.9417L19.1274 27.958L19.2064 27.9312L19.2451 27.9245L19.2997 27.9347L19.384 27.9671L19.4932 27.9817L19.5896 27.9544L19.6319 27.8557L19.5914 27.7877L19.4947 27.7268L19.2925 27.6397L19.1602 27.5491L19.1065 27.4162L19.1422 27.2889L19.7327 26.9736L19.9108 26.7891L20.0056 26.5376L20.0442 26.3681L20.106 26.2746L20.5619 26.0124L20.6776 25.9789L21.0459 25.9527L21.1724 25.963L21.2397 26.0131L21.2147 26.1038L21.1165 26.1387L20.9984 26.1512L20.9193 26.1761L20.8884 26.2612L20.9764 26.2859L21.2905 26.2648L21.3924 26.3006L21.8077 26.5281L21.9958 26.5925L22.158 26.5541L22.295 26.3591L22.3632 26.1313L22.3659 25.9223L22.2878 25.746L21.9817 25.5389L21.9196 25.4599L21.9171 25.3603L21.9602 25.2136L21.9562 25.0527L21.8007 24.8093L21.8204 24.6593L22.0239 24.5643L22.2598 24.7579L22.4953 25.0166L22.6976 25.1094L22.9663 25.1373L23.4635 25.4548L23.7368 25.4328L23.8415 25.3459L23.9048 25.2351L23.9347 25.106L23.9412 24.9736L23.99 24.8229L24.1162 24.8218L24.3732 24.9305L24.5729 24.8336L24.6398 24.2341L24.7987 23.9791L25.0388 23.8717L25.5346 23.7331L26.1196 23.3509L26.764 23.0975L27.0876 22.9057L27.2924 22.6247L27.2511 22.4456L27.0365 22.4029L26.6294 22.4377L26.4873 22.3435L26.389 22.2137L26.2765 22.1417L25.7698 22.3878L25.4549 22.6159L25.3659 22.6315L25.3797 22.4817L25.3442 22.2181L25.0745 22.1518L24.1836 22.2541L23.8857 22.2249L23.6151 22.1166L23.3959 21.89L23.0878 21.4414L22.9526 21.393L22.7815 21.3857L22.6538 21.3256L22.6507 21.1187L22.661 21.0648L22.656 21.0189L22.6357 20.981L22.6001 20.9551L22.2304 20.9296L22.0329 20.875L21.8871 20.7904L21.6816 20.4869L21.589 20.4298L21.4652 20.5324L21.4299 20.5985L21.3561 20.8379L21.3048 20.8813L21.0513 20.922L20.4463 21.1207L20.5362 20.9039L20.5788 20.74L20.5745 20.5638L20.4989 20.0923L20.481 19.8359L20.442 19.5896L20.3582 19.4192L20.179 19.3182L20.0107 19.3491L19.8522 19.4584L19.706 19.5942L19.5013 19.7218L19.3794 19.6616L19.2709 19.5147L19.1007 19.3828L18.5536 19.4901L18.371 19.4083L18.3268 19.028L18.3348 18.6407L18.2887 18.3448L18.1716 18.0794L17.498 17.1395L17.4348 17.097L17.376 17.0754L17.3323 17.1148L17.3311 17.3065L17.278 17.3557L17.2131 17.3266L17.1708 17.182L17.0962 17.1513L17.0645 17.2038L17.0397 17.304L17.0008 17.3797L16.9342 17.3564L16.9257 17.2455L17.0394 16.733L17.0348 16.5433L16.9955 16.368L16.9052 16.2495L16.7533 16.2302L16.6015 16.2971L16.5204 16.3988L16.3911 16.7507L16.3912 16.7526L16.3912 16.7545L16.4648 16.9041L16.6649 17.1465L16.6942 17.3106L16.6695 17.4932L16.578 17.8002L16.359 18.298L16.1736 18.4999L15.9379 18.5517L15.6358 18.4307L15.2944 18.1285L15.1988 18.1098L15.1589 18.2257L15.2591 19.7852L15.2299 20.1021L15.0779 20.238L14.5944 19.8455L14.427 20.0699L14.3575 20.2441L14.2664 20.2521L14.1767 20.1604L14.1077 20.0356L14.014 19.6987L13.9317 19.5914L13.7664 19.582L13.6246 19.6622L13.6083 19.789L13.6472 19.9491L13.6654 20.1403L13.6018 20.3181L13.4913 20.248L13.3095 19.9611L13.1967 19.8757L12.9377 19.8476L12.8098 19.7798L12.6654 19.6722L12.5085 19.607L12.179 19.5556L11.8831 19.6069L11.7449 19.595L11.6159 19.4812L11.5117 19.3496L11.3943 19.2375L11.268 19.1524L11.1346 19.1001L10.9778 19.1193L10.8454 19.1858L10.7332 19.2077L10.6448 19.0872L10.6293 18.9285L10.7186 18.3705L10.7004 18.1794L10.6299 17.9971L10.2255 17.3439L10.1053 17.1935L9.97329 17.1163L9.73931 17.1584L8.9028 17.6598L8.67013 17.7556L8.50297 17.7501L8.39581 17.6569L8.21928 17.3469L8.11516 17.2191L7.99622 17.1204L7.73423 16.9697L7.73224 16.9678L7.7303 16.9679L7.73025 16.966L6.75128 16.8825L6.49378 16.7566L6.3605 16.4686L6.50029 16.2275L7.60442 15.5509L8.00802 15.2172L8.23251 15.1044L8.43683 14.9614L8.59404 14.718L8.78539 14.2822L9.07964 13.9243L9.74877 13.3292L9.95924 13.1995L10.6483 13.1041L10.8848 13.0063L10.9587 12.8512L10.9673 12.3259L11.0795 11.9878L11.363 11.9062L11.703 11.9132L11.9867 11.8392L12.9474 11.0933L13.5141 10.9165L13.7679 10.7321L13.8624 10.3868L13.6159 10.3123L12.6285 9.64841L12.4048 9.55422L12.1862 9.59022L11.885 9.81987L11.737 9.9653L11.534 9.92235L11.3885 9.85116L11.1063 9.58592L11.0641 9.44897L11.1441 9.3052L11.3849 9.06744L11.6015 8.79002L11.6474 8.68159L11.6284 8.61689L11.5881 8.55655L11.572 8.45729L11.6104 8.27813L11.6855 8.09424L11.7807 7.93669L11.8831 7.83453L12.2183 8.03907L12.3311 8.0459L12.425 7.99187L12.4887 7.89832L12.4996 7.78882L12.4389 7.68682L12.4369 7.68687L12.4369 7.68495L12.1911 7.48015L12.119 7.39184L12.0446 7.04871L12.3008 6.88531L12.8964 6.77686L13.0063 6.66495L13.0398 6.52615L13.0192 6.16062L13.0319 5.96484L13.0879 5.87148L13.3459 5.77703L13.4567 5.7015L13.5392 5.58067L13.6821 5.30697L13.799 5.24471L13.9535 5.28885L14.1204 5.36335L14.2686 5.38656L14.3915 5.3299L14.4958 5.22387L14.5838 5.0914L14.6542 4.95171L14.7738 4.83955L14.9406 4.82973L15.2772 4.93458L15.3905 4.88199L15.4642 4.87444L15.5349 4.90912L15.8142 5.13227L15.9024 5.16462L16.0203 5.13874L16.7731 4.63168L16.9984 4.55336L17.4831 4.51662L17.7217 4.42455L17.8337 4.39882L17.9416 4.44218L18.0521 4.51231L18.1677 4.55739L18.5974 4.65422L19.4098 5.07325L19.6345 5.131L19.739 5.11503L19.9366 5.01631L20.0408 4.98502L20.9288 5.00167L21.3913 5.17435L22.2237 5.69828L22.4675 5.74024L22.9662 5.7204L23.9541 5.932L24.1724 6.04357L24.34 6.22346L24.5894 6.65622L24.7699 6.81088L25.0074 6.9124L25.2439 6.97178L25.4789 6.97371L26.3625 6.80649L26.6713 6.80854L26.934 6.90944L27.0744 7.01141L27.1886 7.07379L27.3117 7.10336L27.8075 7.12575L27.97 7.18119L28.0778 7.30121L28.0634 7.58327L28.074 7.78232L28.1585 7.89907L28.7939 7.99088L29.2094 8.14746L29.4046 8.10628L29.4044 7.93956L28.8783 6.99421L28.7645 6.70953L28.7046 6.40053L28.7135 6.05153L28.7831 5.72021L29.1301 4.89536L29.3047 4.49057L29.3265 4.34823L29.3029 4.17824L29.2099 3.87006L29.1886 3.71343L29.208 3.5539L29.2611 3.42037L29.3986 3.16788L29.6422 2.40496L29.7165 2.26708L29.8229 2.16867L30.1463 1.97105L31.3224 1.45557L31.4402 1.4297L31.7278 1.43418L31.9844 1.28802L32.1998 0.640768L32.4054 0.472854L32.5445 0.521202L32.8006 0.750665L32.9278 0.789721L34.0155 0.632853L34.1285 0.566854L34.1446 0.430397L34.067 0.273232L33.8763 0.023005L34.0809 0.129162L34.442 0.438469L34.6399 0.512209L34.8703 0.560244L35.0707 0.655004L35.437 0.941187L35.5785 1.01055L35.8704 1.03218L36.1209 1.18895L36.4061 1.25865L36.538 1.32825L36.636 1.44659L36.816 1.73924L36.9158 1.84987L37.6395 2.37454L37.8825 2.46251L38.6757 2.57538L39.2747 2.84821L39.4749 3.01389L39.6752 3.1029L40.0996 3.22094L40.2964 3.3292L40.4645 3.45349L40.8899 3.69416L41.0714 3.72997L41.5314 3.71491L43.0969 3.87983L43.3699 3.8425L43.5082 3.85829L43.961 4.03121L44.1394 4.01919L44.3391 3.92616L44.5318 3.78156L44.6926 3.60899L44.7635 3.48653L44.9721 2.88544L45.05 2.81263L45.1542 2.78326L45.5803 2.73836L45.8511 2.77008L46.3985 2.91577L46.554 2.92156L47.0045 2.75917L47.185 2.75284L47.6945 2.86114L48.3234 2.84579L48.9238 3.01319L48.9973 3.00181L49.1316 2.93529L49.215 2.92942L49.2879 2.97172L49.3692 3.11921L49.436 3.15208L49.5593 3.11074L49.7602 2.90653L49.887 2.84786L50.07 2.86831L50.4328 3.00893L50.616 3.03703L50.7588 2.99714L51.0238 2.87377L51.3307 2.87394L51.4619 2.84008L51.7244 2.69186L51.7527 2.65859L51.7594 2.61626L51.7741 2.58141L51.8262 2.56864L51.953 2.59045L51.9917 2.58568L52.0453 2.55179L52.1867 2.37778L52.3184 2.28066L52.4556 2.25431L52.7622 2.243L53.0352 2.12901L53.1686 2.10276L53.3059 2.1569L54.0932 2.268L54.3321 2.3484L54.4114 2.41162L54.6161 2.6845L54.721 2.76435L54.8362 2.79028L55.075 2.78637L55.7611 2.8846L55.9866 2.81394L56.2762 2.66506L56.3824 2.63947L56.4894 2.64452L56.6851 2.7049L56.9607 2.69626L57.0963 2.76385L57.2191 2.86051L57.3549 2.93385L57.4695 2.93297L57.8282 2.74982L57.9731 2.71945L58.4297 2.72555L58.9002 2.82522L58.9443 2.87972L58.9749 2.94029L59.0208 2.99092L59.1037 3.04638L59.2784 2.96163L59.393 2.88409L59.4545 2.85576L59.6111 2.82894L59.7727 2.84225L59.9294 2.89783L60.3291 3.11996L60.639 3.16413L61.3807 3.07704L61.6975 3.08655L62.0167 3.03468L62.1513 3.05631L62.4371 3.1509L62.5829 3.15501L62.7002 3.10806L62.9486 2.94102L63.091 2.88389L63.3952 2.85347L63.8563 2.8882L64.5414 3.10719L64.8308 3.26494L65.0743 3.45638L65.1943 3.51669L66.0329 3.57863L66.5936 3.79108L67.0523 3.80479L67.3226 3.90168L67.5849 3.90485L68.1179 3.62163L68.3904 3.56324L68.5643 3.60882L68.619 3.70139L68.589 4.06049L68.6 4.27485L68.6454 4.46155L68.7214 4.63409L68.8226 4.80217L69.0771 5.04318L69.6307 5.28454L69.8557 5.50902L70.1863 6.24451L70.3827 6.49268L70.7376 6.62774L71.4004 6.6518L71.9549 6.53095L72.2599 6.535L73.8013 6.82316L74.0972 7.0095L74.195 7.11826L74.4684 7.49869L74.9286 7.8899L75.1649 8.18309L75.3551 8.49465L75.5696 8.7673L75.8767 8.93802ZM13.7571 29.8599L13.7295 29.8452L13.7057 29.8247L13.3136 29.6752L13.1243 29.5572L13.0023 29.4126L12.9012 29.1717L12.7795 28.9581L12.6199 28.8643L12.4054 28.9884L12.2918 29.2671L12.2548 29.4251L12.2507 29.5728L12.293 29.7155L12.4729 30.0829L12.5552 30.192L12.6476 30.2377L12.8329 30.2715L12.914 30.3327L12.9514 30.5925L12.6656 31.0575L12.6828 31.2832L12.7712 31.3251L12.8688 31.2633L12.9616 31.169L13.0379 31.1116L13.1701 31.116L13.205 31.1918L13.2248 31.2872L13.3081 31.3599L13.4112 31.367L13.7371 31.2708L13.9699 31.2613L14.0642 31.2226L14.1353 31.1136L14.1422 30.8393L13.8296 30.5231L13.8065 30.2956L13.9165 30.1837L14.2313 29.9556L14.2745 29.8147L14.2201 29.7336L14.1323 29.7185L13.9568 29.7688L13.9205 29.7907L13.8443 29.8539L13.8096 29.8663L13.7571 29.8599ZM17.8577 30.9997L17.923 30.8908L18.0664 30.32L18.035 30.2269L17.8635 30.2847L17.6157 30.4767L17.4968 30.539L17.3243 30.5528L17.215 30.6896L17.286 30.8143L17.4362 30.918L17.5717 30.9779L17.7496 31.0253L17.8577 30.9997ZM9.9942 31.6573L9.14894 31.402L9.04601 31.4026L9.04157 31.5388L9.09758 31.685L9.19199 31.813L9.43078 31.9681L9.50082 32.0527L9.70695 32.3811L9.74651 32.4108L10.0949 32.1206L10.2904 32.0161L10.5164 31.9646L10.5866 31.8978L10.5924 31.7386L10.5361 31.577L10.4501 31.5581L10.2332 31.663L9.9942 31.6573Z" fill="#EAFF06"/>
</svg>
