<svg width="72" height="45" viewBox="0 0 72 45" fill="none" xmlns="http://www.w3.org/2000/svg">
<path d="M65.5182 30.5415L65.3668 30.6518L65.2953 30.6875L65.1921 30.6924L65.1239 30.7703L65.1655 30.8449L65.2553 30.9082L65.3352 30.9455L65.4417 30.9764L65.5049 30.9634L65.5465 30.9001L65.6396 30.5658L65.6213 30.5107L65.5182 30.5415ZM63.299 30.1521L63.1942 30.1797L63.1725 30.1926L63.126 30.2283L63.106 30.2348L63.0744 30.23L63.0578 30.2218L63.0444 30.2089L62.8132 30.1147L62.7017 30.0417L62.6319 29.9541L62.5753 29.8113L62.5054 29.6831L62.4123 29.6247L62.2825 29.6945L62.211 29.8567L62.1877 29.9492L62.1827 30.0352L62.206 30.1196L62.3075 30.3387L62.3541 30.4036L62.4073 30.4312L62.5171 30.4539L62.5653 30.4912L62.5836 30.6437L62.4073 30.9131L62.4139 31.0461L62.4655 31.0721L62.5237 31.0364L62.5803 30.9829L62.6269 30.9504L62.7051 30.9553L62.725 31.0007L62.735 31.0575L62.7833 31.1013L62.8448 31.1062L63.0395 31.0543L63.1775 31.051L63.2341 31.0299L63.2773 30.9666L63.2857 30.806L63.1043 30.6145L63.0944 30.4798L63.1626 30.4149L63.3539 30.2851L63.3822 30.2024L63.3505 30.1537L63.299 30.1521ZM71.2326 26.0581L71.1045 26.0305L70.8616 26.0451L70.7784 25.9884L70.7219 25.9105L70.6553 25.8667L70.3492 26.0046L70.1579 26.1344L70.1047 26.1425L70.1163 26.0533L70.098 25.8975L69.9383 25.8553L69.406 25.9024L69.228 25.8813L69.0683 25.8131L68.9402 25.6752L68.7622 25.4058L68.6823 25.375L68.5792 25.3685L68.5043 25.3312V25.2095L68.511 25.177L68.5093 25.1494L68.4977 25.1267L68.476 25.1105L68.2564 25.0894L68.1383 25.0553L68.0518 25.0034L67.9337 24.8217L67.8788 24.786L67.8039 24.8444L67.7823 24.8833L67.7341 25.0229L67.7025 25.0472L67.5511 25.0683L67.1868 25.177L67.2433 25.0505L67.2716 24.9547V24.8509L67.2333 24.5718L67.2267 24.4209L67.2067 24.2748L67.1585 24.1726L67.0537 24.1109L66.9522 24.1272L66.8557 24.1888L66.7659 24.2667L66.6428 24.3397L66.5712 24.3024L66.508 24.2132L66.4082 24.132L66.0805 24.1872L65.9724 24.1369L65.9507 23.9114L65.9607 23.6826L65.9374 23.5073L65.8709 23.3483L65.4833 22.7836L65.45 22.7544L65.415 22.7398L65.3884 22.7625L65.3851 22.8761L65.3518 22.9053L65.3136 22.8875L65.2903 22.8015L65.247 22.7836L65.2271 22.8144L65.2104 22.8729L65.1855 22.9167L65.1472 22.9021L65.1439 22.8355L65.2204 22.5337V22.4218L65.1988 22.3179L65.1456 22.2465L65.0557 22.2319L64.9642 22.2692L64.9143 22.3277L64.8328 22.5337V22.5354L64.8744 22.6246L64.9908 22.7706L65.0058 22.868L64.9875 22.9751L64.9276 23.1552L64.7895 23.4457L64.6748 23.5609L64.5333 23.5885L64.3553 23.5122L64.1557 23.3288L64.0992 23.3158L64.0725 23.384L64.1091 24.3057L64.0875 24.4923L63.9944 24.5702L63.7115 24.3316L63.6084 24.4614L63.5635 24.5637L63.5086 24.5669L63.4554 24.5117L63.4154 24.4371L63.3639 24.2375L63.3156 24.1726L63.2175 24.1645L63.1326 24.2099L63.121 24.2846L63.1409 24.3803L63.1493 24.4923L63.1077 24.5961L63.0428 24.5523L62.938 24.3803L62.8714 24.3284L62.7167 24.3073L62.6419 24.2651L62.557 24.2002L62.4639 24.1596L62.2676 24.1239L62.0896 24.1499L62.008 24.1418L61.9315 24.072L61.875 23.9957L61.8067 23.9276L61.7319 23.8757L61.652 23.8432L61.5589 23.8513L61.479 23.8886L61.4125 23.9L61.3609 23.827L61.3526 23.7329L61.4141 23.4051L61.4058 23.2931L61.3659 23.1844L61.1347 22.7934L61.0648 22.7025L60.9866 22.6554L60.8469 22.6765L60.3411 22.9605L60.1997 23.014L60.0999 23.0092L60.0367 22.9524L59.9352 22.7674L59.8753 22.6895L59.8055 22.6295L59.6507 22.537V22.5354H59.6641L59.0818 22.4721L58.9287 22.3942L58.8522 22.2222L58.9404 22.0826L59.6092 21.6997L59.8554 21.5098L59.9901 21.4466L60.1149 21.3654L60.213 21.2243L60.3328 20.9695L60.5141 20.7618L60.9217 20.421L61.0481 20.348L61.4607 20.3026L61.6038 20.249L61.6504 20.1582L61.662 19.8482L61.7335 19.6503L61.9032 19.6065L62.1062 19.6146L62.2775 19.574L62.8615 19.1489L63.2025 19.0515L63.3572 18.9461L63.4188 18.7432L63.2724 18.6962L62.6934 18.2905L62.562 18.237L62.4306 18.2548L62.2476 18.3862L62.1578 18.469L62.018 18.581L61.8783 18.6929L61.8001 18.7335L61.7219 18.7708L61.6437 18.7822L61.5655 18.7935L61.4707 18.7676L61.3742 18.7416L61.326 18.7432L61.2761 18.7465L61.2461 18.7838L61.2162 18.8244L61.1995 18.873L61.1829 18.9233L61.1596 18.959L61.138 18.9947L61.0798 19.0629L61.0215 19.131L60.9733 19.2187L60.925 19.3063L60.8485 19.5042L60.8036 19.5838L60.7603 19.6633L60.6955 19.6941L60.6306 19.7249L60.5823 19.7184L60.5341 19.7119L60.4908 19.6957L60.4459 19.6779L60.4143 19.6454L60.3827 19.6146L60.3677 19.5643L60.3528 19.5124L60.3378 19.4767L60.3228 19.4426L60.2896 19.4069L60.2563 19.3712L60.2197 19.3452L60.1814 19.3193L60.1515 19.3128L60.1215 19.3063L59.9202 19.3923L59.7173 19.4783L59.6291 19.5529L59.5409 19.6276L59.4894 19.7379L59.4378 19.8482L59.4228 19.8953L59.4079 19.9424L59.3812 19.9716L59.3546 20.0008L59.3214 20.017L59.2864 20.0349L59.2498 20.0478L59.2132 20.0608L59.1766 20.0803L59.1417 20.0998L59.1117 20.1306L59.0818 20.1598L58.9421 20.3967L58.8007 20.6336L58.7491 20.6936L58.6975 20.7537L58.5245 20.877L58.3531 21.0003L58.2367 21.0425L58.1219 21.0847L58.0903 21.109L58.0587 21.135L58.0304 21.1772L58.0021 21.2194L57.9389 21.2924L57.8757 21.3638L57.7892 21.3995L57.7027 21.4352L57.4731 21.4433L57.2435 21.453L56.9641 21.5293L56.6862 21.604L56.6513 21.6299L56.6164 21.6575L56.5565 21.724L56.4983 21.7906L56.2886 21.9528L56.079 22.1135L55.9609 22.1492L55.8428 22.1865L55.7879 22.2254L55.733 22.2644L55.7064 22.3358L55.6798 22.4055L55.6881 22.4347L55.6947 22.4623L55.7297 22.524L55.7646 22.5857L55.7679 22.6149L55.7713 22.6424L55.7463 22.6554L55.723 22.67L55.5999 22.6473L55.4768 22.6246L55.4452 22.6327L55.4153 22.6408L55.3354 22.6911L55.2556 22.7398L55.2256 22.7447L55.1957 22.7495L55.1341 22.7284L55.0742 22.7057L55.041 22.7122L55.0077 22.7187L54.8946 22.7885L54.7814 22.8583L54.7299 22.9053L54.68 22.954L54.6583 23.0092L54.6367 23.0643L54.5984 23.0497L54.5602 23.0351L54.5203 23.0465L54.482 23.0595L54.3872 23.1049L54.2907 23.1503L54.274 23.1633L54.2574 23.1779L54.2474 23.1974L54.2374 23.2152L54.2424 23.238L54.2474 23.2607L54.2674 23.285L54.2857 23.3077L54.2957 23.3142L54.3057 23.3207L54.3123 23.3305L54.319 23.3402L54.324 23.371L54.3289 23.4018L54.3306 23.4457L54.3323 23.4895L54.3007 23.7442L54.2691 23.999L54.2524 24.0298L54.2358 24.0606L54.2009 24.0947L54.1659 24.1288L54.096 24.1759L54.0245 24.2245L53.9496 24.2602L53.8748 24.2959L53.785 24.3073L53.6968 24.3203L53.6535 24.3333L53.6103 24.3479L53.5837 24.3819L53.557 24.416L53.5055 24.5036L53.4539 24.5912L53.3125 24.6513L53.1694 24.7113L53.1129 24.7746L53.0563 24.8379L52.9798 25.0505L52.9033 25.2646L52.8617 25.3133L52.8201 25.3636L52.6936 25.4172L52.5672 25.4707L52.509 25.5097L52.4524 25.547L52.4308 25.6087L52.4092 25.6719L52.3992 25.6671L52.3909 25.6606L52.3709 25.6541L52.3526 25.6476L52.3426 25.6427L52.3343 25.6379L52.3326 25.6687V25.6963L52.3376 25.7563L52.3426 25.8164L52.3393 25.8423L52.336 25.8667L52.3227 25.8975L52.3094 25.9267L52.2944 25.9364L52.2811 25.9462L52.2694 25.9608L52.2578 25.9737L52.2495 26.0143L52.2412 26.0549L52.2628 26.2788L52.2844 26.4995L52.2977 26.5498L52.311 26.6001L52.3277 26.6212L52.3443 26.6423L52.3643 26.6536L52.3842 26.665L52.4375 26.6764L52.489 26.6893L52.4874 26.7234L52.4857 26.7559L52.494 26.7899L52.5007 26.824L52.514 26.8565L52.5273 26.8889L52.5456 26.9181L52.5639 26.949L52.5589 26.9668L52.5556 26.9847L52.5057 27.0642L52.4558 27.1453L52.4957 27.1664L52.5356 27.1875L52.524 27.2216L52.5107 27.2573L52.4657 27.2816L52.4225 27.3076L52.3676 27.2995L52.3127 27.2913L52.2295 27.2524L52.1463 27.2135L52.123 27.2086L52.0997 27.2053L52.0798 27.2183L52.0615 27.2313L52.0498 27.254L52.0382 27.2767L52.0232 27.2962L52.0066 27.3141L51.9766 27.3124L51.945 27.3108L51.9201 27.3368L51.8951 27.3627L51.8885 27.3757L51.8818 27.3903L51.3944 27.1421L50.907 26.8922L50.7672 26.7851L50.6291 26.678L50.4412 26.4962L50.2532 26.3129L50.19 26.2788L50.1267 26.2447L50.0452 26.2285L49.9637 26.2107L49.9504 26.1993L49.9371 26.1912L49.9437 26.1701L49.9504 26.1506L49.9687 26.1328L49.987 26.1165L50.0602 26.0841L50.1334 26.0516L50.1683 26.0257L50.2016 25.9997L50.2332 25.9656L50.2632 25.9316L50.3097 25.8618L50.3413 25.792L50.3729 25.7222L50.4029 25.6346L50.4345 25.5486L50.4545 25.4577L50.4744 25.3685L50.4761 25.2922V25.216L50.4595 25.1851L50.4428 25.1543L50.4328 25.1413L50.4229 25.1283L50.4062 25.1202L50.3896 25.1105L50.4062 25.1024L50.4245 25.0943L50.4728 25.0602L50.521 25.0261L50.5144 25.0213L50.5077 25.0148L50.4877 25.0083L50.4678 25.0018L50.4728 24.9774L50.4778 24.9531L50.4761 24.9466V24.9417L50.4678 24.8849L50.4595 24.8282L50.4145 24.833L50.3713 24.8379L50.343 24.8979L50.3147 24.958L50.2931 24.9304L50.2698 24.9028L50.2432 24.8979L50.2182 24.8947L50.1916 24.9077L50.165 24.9206L50.14 24.9401L50.1151 24.9596L50.0868 24.9158L50.0602 24.872L50.0436 24.7681L50.0269 24.6659L50.0053 24.6188L49.9837 24.5718L49.8922 24.4549L49.8007 24.3381L49.7857 24.3089L49.7707 24.2797L49.7657 24.2765L49.7608 24.2732L49.7358 24.1969L49.7108 24.1207L49.6576 24.1548L49.606 24.1872L49.4863 24.2651L49.3665 24.343L49.3266 24.3495L49.2866 24.3543L49.2417 24.3381L49.1968 24.3235L49.1103 24.2797L49.0238 24.2359L48.9772 24.2229L48.9306 24.2099L48.4016 24.2408L47.8659 24.2732L47.5299 24.2943L47.0025 24.3251L46.56 24.3495L45.9578 24.3852L45.5552 24.4079L45.0744 24.4371L44.9048 24.3949L44.7351 24.3511L44.6436 24.2424L44.5504 24.132L44.3741 23.3451L44.1961 22.5548L44.0647 21.8928L43.9332 21.2291L43.8617 20.5476L43.7902 19.8645L43.7802 19.8596L43.7702 19.8547L43.7569 19.8515L43.7419 19.8482H43.7269L43.712 19.8466L43.697 19.8499L43.682 19.8515L43.183 19.8499L42.7305 19.8482L42.2763 19.8466L41.7789 19.8434L41.7606 19.8304L41.744 19.8158L41.739 19.7866L41.734 19.7574L41.749 18.7027L41.7639 17.6447L41.7772 17.6074L41.7889 17.57L41.8371 17.5506L41.887 17.5327L41.907 17.4857L41.9286 17.4386L41.9386 17.2942L41.9486 17.1514L42.0384 15.7949L42.1282 14.4335L41.531 14.7483L40.9355 15.0614L40.9005 15.0582L40.8639 15.0533L40.5978 14.5211L40.2883 13.8996L40.0637 13.4501L39.7127 12.7427L39.6296 12.6567L39.548 12.5869L39.1222 12.3256L38.6963 12.0644L38.49 11.8518L38.2837 11.6393L37.8379 11.0746L37.392 10.5099L37.3222 10.4499L37.254 10.3898L37.1225 10.3687L37.0493 10.3963L36.9745 10.4223L36.5719 10.6413L36.1626 10.8636L35.765 11.0778L35.3492 11.3034L35.2776 11.3228L35.2061 11.3439L34.9782 11.3228L34.4059 11.2725L33.8336 11.2206L33.2597 11.1719L32.6858 11.12L32.0569 11.0648L31.4264 11.0097L30.7976 10.9545L30.1671 10.8993L29.7895 10.9594L29.4118 11.0194L29.0342 11.0794L28.6566 11.1395L28.2789 11.1995L27.9013 11.2596L27.5237 11.3196L27.146 11.3796L26.9131 11.4218L26.6802 11.464L26.4473 11.5046L26.2128 11.5468L26.068 11.5727L25.9216 11.5987L25.7752 11.6247L25.6305 11.6506L25.2795 11.7139L25.1963 11.6782L25.1131 11.6425L24.8037 11.2953L24.5708 11.0356L24.3396 10.776L24.1067 10.5148L23.8754 10.2535L23.6375 9.98741L23.3997 9.72129L23.1618 9.45518L22.9239 9.18744L22.6344 8.86129L22.4065 8.62276L22.1802 8.38423L21.7061 7.88445L21.4632 7.50313L21.4233 7.3717L21.3967 7.08124L21.3701 6.94494L21.2952 6.79566L21.1888 6.67882L20.9309 6.51169L20.5699 6.27965L20.0775 5.95999L19.4753 5.56893L18.7849 5.12108L18.028 4.62942L17.2261 4.10693L16.3993 3.56658L15.5692 3.02462L14.7573 2.49239L13.9838 1.98612L13.2718 1.52042L12.6413 1.10665L12.1139 0.762645L11.7113 0.496531L11.4535 0.327775L11.3636 0.267737L11.0459 0.0584154L10.9328 0.0097359L10.8363 0L10.5019 0.0941137L10.2524 0.16551L10.0028 0.236907L9.7533 0.306681L9.50709 0.376455L9.26753 0.446229L9.02798 0.516002L8.79009 0.584154L8.55053 0.653928L8.03316 0.809702L7.51578 0.963854L6.99841 1.11801L6.4827 1.27216L6.09675 1.39386L5.70913 1.51555L5.32152 1.63725L4.93391 1.75895L4.54629 1.88065L4.15868 2.00235L3.77106 2.12405L3.38345 2.24575L2.99583 2.36582L2.60822 2.48752L2.2206 2.6076L1.83299 2.7293L1.44538 2.85099L1.05943 2.96945L0.671811 3.09115L0.284197 3.21285H0.282533H0.279206V3.21447H0.277542V3.21609H0.275879V3.21771V3.21934V3.22096V3.22745V4.52881V5.82369V7.11369V8.40046V9.68235V10.9594V12.2299V13.4956V14.758L0.277542 16.0139V17.265L0.279206 18.5128V19.7558V20.9938L0.28087 22.227L0.282533 23.457L0.952956 23.4927L1.72319 23.5333L2.728 23.5868L3.65128 23.6371L4.04223 23.7166L4.54795 23.8189L4.62781 23.7734L4.7559 23.5479L4.83742 23.4554L5.03039 23.3613L5.11856 23.2996L5.16514 23.2461L5.17346 23.2104L5.14185 23.186L4.93557 23.1357L4.87235 23.1049L4.81413 23.0643L4.72429 22.9654L4.64444 22.8323L4.58954 22.6846L4.57124 22.5354L4.57457 22.3455L4.5596 22.1897L4.51136 22.0502L4.4182 21.9058L4.345 21.7127L4.34999 21.5439L4.38326 21.3703L4.39324 21.1691L4.30174 20.7439L4.30341 20.5362L4.41986 20.3789L4.81745 20.1971L4.98714 20.0705L5.14185 19.8466L5.36976 19.4312L5.70248 19.1116L6.09176 18.9282L6.48769 18.912L7.07327 19.011L7.26458 18.9736L7.49416 18.8633L7.57401 18.8438L7.85682 18.8568L7.93667 18.8406L8.02817 18.7757L8.01486 18.7237L7.96162 18.667L7.92669 18.581L7.95996 18.5096L8.118 18.4609L8.17622 18.396L8.34425 18.0195L8.38085 17.893L8.37419 17.8086L8.28602 17.6236L8.26273 17.4792L8.3326 17.4224L8.44572 17.3737L8.55053 17.2553L8.58713 17.192L8.63205 17.1384L8.70691 17.1043L8.7984 17.0881L8.89156 17.0897L8.96975 17.1173L9.02964 17.1757L9.12447 17.3137L9.19101 17.351L9.25755 17.3445L9.40727 17.2812L9.48213 17.2682L9.57197 17.2845L9.98287 17.4743L10.1226 17.5749L10.2291 17.7145L10.2707 17.9076L10.2574 18.0065L10.2357 18.099L10.2341 18.1834L10.2823 18.258L10.3505 18.2743L10.6167 18.2353L10.6683 18.2045L10.6832 18.1607L10.6649 18.1136L10.6184 18.0714L10.452 17.8783L10.1459 17.3932L10.0361 17.14L9.90968 16.9486L9.76328 16.8382L9.24591 16.6013L9.16938 16.5332L9.14609 16.4293L9.18435 16.3498L9.25922 16.2946L9.41559 16.2265L9.63519 16.0951L9.70838 16.0642L9.8082 16.0675L10.254 16.2443L10.4653 16.2914L10.6766 16.306L10.8479 16.2557L10.9361 16.0967L10.9927 15.6326L11.0692 15.5093L11.1707 15.5661L12.0607 16.5883L12.3368 16.8382L12.628 16.9664L12.8126 16.9989L12.9341 16.9924L13.0538 16.9599L13.1736 16.9031L13.2784 16.8918L13.3782 16.9534L13.6411 17.2212L13.6993 17.312L13.7376 17.4159L13.7875 17.8313L13.8424 17.9287L13.9605 17.9919L14.1718 18.0147L14.2683 18.0471L14.433 18.2207L14.5361 18.2597L14.749 18.2645L15.6224 18.1331L15.9817 18.1656L16.1664 18.1445L16.3544 18.1639L16.4841 18.3035L16.5989 18.4787L16.7437 18.6069L16.9267 18.6767L17.0215 18.7319L17.0731 18.8033L17.0597 18.8941L16.9915 18.9412L16.9067 18.9753L16.8385 19.0239L16.8002 19.2738L16.8817 19.5399L16.8934 19.7541L16.6488 19.8466H16.6455L16.6439 19.845L16.5707 19.8661L16.5241 19.9196L16.5174 19.991L16.5623 20.0689L16.6222 20.0949L16.8368 20.0884L17.271 20.2474L17.3925 20.3496L17.5339 20.5606L17.5954 20.6239L17.7901 20.7375L17.8483 20.7861L17.8982 20.8478L17.9381 20.9224L17.9448 20.9987L17.8965 21.0685L17.8316 21.0782L17.7501 21.0425L17.6071 20.9533L17.4524 20.9062L17.3226 20.9176L17.2095 20.9938L17.103 21.1431L17.1413 21.3313L17.2694 21.5699L17.5438 21.9496L17.5821 22.0486L17.5255 22.1167L17.3542 22.2011L17.2843 22.2627L17.2311 22.3374L17.1995 22.4299L17.1479 22.8599L17.1762 22.9865L17.2926 23.0984L17.7451 23.3256L18.1427 23.5252L18.3923 23.7037L18.6169 23.9227L18.735 24.0055L18.8797 24.046L19.1276 24.0395L19.6267 23.8773L20.4601 23.8286L20.7496 23.8968L20.9475 24.098L20.9742 24.0752L21.0008 24.046L21.0806 23.913L21.0973 23.926L21.1106 23.973L21.1339 24.0217L21.3784 23.9811L21.4516 23.9844L21.8775 24.2797L22.0455 24.3462L22.2035 24.3414L22.3466 24.27L22.4631 24.1466L22.5412 23.9779L22.6427 23.9211L22.6826 23.7329L22.7392 23.6209L22.8324 23.5771L22.9854 23.5933L23.388 23.6972L23.7473 23.8481L24.6706 24.5117L24.7521 24.5977L25.0549 25.0943L25.0899 25.1819L25.1048 25.2906L25.1165 25.6654L25.1364 25.7433L25.1048 25.7839L25.1514 25.8894L25.2812 26.334L25.3294 26.5774L25.3627 26.6893L25.4076 26.7591L25.544 26.9051L25.5906 26.9798L25.6754 27.3043L25.732 27.4163L25.885 27.6159L25.91 27.6662L25.9433 27.7862L25.9699 27.8317L26.0597 27.8982L26.256 27.955L26.5987 28.1465L26.6386 28.1935L26.652 28.4158L26.6769 28.5132L26.7834 28.7225L26.8183 28.8183L26.8333 28.9221L26.8366 29.0616L26.8532 29.1671L26.9797 29.4365L26.9963 29.5484L26.973 29.6426L26.9398 29.7383L26.9215 29.8519L26.9331 29.972L27.0046 30.2673L27.0495 30.4068L27.3457 30.7703L27.3906 30.7946L27.6285 31.0283L28.1126 31.3674L28.6765 31.7585L29.347 32.2258L30.7094 33.1718L31.2834 33.5694L31.5462 33.8128L31.9904 34.4164L32.2416 34.6679L32.6991 34.9892L33.2763 35.3916L33.9418 35.8541L34.0665 35.9173L34.188 35.9384L34.2944 35.9173L34.6138 35.7616L34.7386 35.747L34.8368 35.807L35.1961 36.2613L36.0662 36.9769L36.5968 37.2739L37.2057 37.4848L37.4835 37.6552L38.0342 38.1436L38.4251 38.4876L38.9824 38.8576L39.3933 39.1286L40.0737 39.5764L40.3532 39.6673L40.6377 39.6429L40.7441 39.5878L40.9454 39.4304L41.0636 39.3849L41.2033 39.3963L41.6192 39.5943L41.892 39.6365L42.0085 39.6949L42.2647 39.8961L42.5325 39.9707L42.6672 40.0324L42.7887 40.146L42.98 40.3829L43.3992 40.5727L43.529 40.6117L43.8451 40.6133L44.0031 40.6555L44.1528 40.7253L44.2909 40.8242H44.2926L44.3807 41.0676L44.2293 41.3581L43.9998 41.6485L43.8567 41.8984L43.8401 42.0996L43.8733 42.4956L43.8567 42.6984L43.7669 43.0375L43.7519 43.2209L43.8085 43.3637L43.89 43.4302L43.9549 43.5L43.9715 43.5795L43.9066 43.685L43.8301 43.7612L43.7669 43.8489L43.7586 43.9413L43.8617 44.016L43.9432 43.9933L44.048 43.9852L44.1462 43.9949L44.4207 44.1085L44.4706 44.1198L44.582 44.1215L44.6253 44.1069L44.7068 44.0371L44.75 44.0225L45.2907 43.9998L45.67 43.9105L45.8696 43.9154L45.9445 43.9495L46.1092 44.0647L46.1957 44.0906L46.2456 44.1361L46.3138 44.3535L46.3521 44.4314L46.4353 44.4833L46.6182 44.5515L46.7014 44.6261L46.743 44.7137L46.773 44.8095L46.8212 44.8857L46.9127 44.9214L47.0059 44.9036L47.1622 44.803L47.2687 44.7803L47.3685 44.7721L47.4584 44.7462L47.5415 44.7056L47.6231 44.6456L47.7595 44.5125L47.836 44.4557L47.9208 44.433L48.0157 44.4784L48.0938 44.6861L48.162 44.7462L48.207 44.7283L48.2386 44.6829L48.2635 44.631L48.2901 44.6083L48.3334 44.6034L48.4116 44.579L48.4582 44.5742L48.5064 44.5872L48.5962 44.6553L48.6412 44.678L48.6944 44.6829L48.8408 44.678L48.9273 44.6975L49.0005 44.7413L49.0487 44.8095L49.067 44.902L49.087 44.8289L49.1652 44.678L49.2134 44.5076L49.2351 44.3243L49.2201 44.1101L49.1386 43.7109L49.1552 43.4967L49.2717 43.1852L49.448 42.8899L49.6609 42.6237L49.8839 42.416L50.185 42.0071L50.3064 41.7735L50.4827 41.2575L50.5559 41.1828L50.684 41.1423L50.877 41.1163L50.9402 41.0952L51.0051 41.0498L51.0367 40.9849L51.055 40.907L51.0866 40.8194L51.1365 40.7204L51.2979 40.4819L51.3994 40.1979L51.4676 39.9009L51.4493 39.703L51.3495 39.5488L51.0217 39.2632L50.8071 39.1448L50.7356 39.075L50.5826 38.8024L50.4212 38.6515L50.3813 38.5801L50.3663 38.5055L50.358 38.3416L50.3347 38.2637L50.2349 38.1144L50.2033 38.0479L50.1916 37.9359L50.2066 37.6406L50.1966 37.5384L50.1417 37.3453L50.1301 37.2495L50.1617 37.1733L50.2665 37.1003L50.2881 37.071L50.2914 37.011L50.2731 36.964L50.2482 36.9185L50.2349 36.8666L50.2498 36.753L50.2964 36.7238L50.3696 36.727L50.4661 36.7092L50.536 36.6686L50.5992 36.6151L50.6508 36.5453L50.6874 36.4577L50.6924 36.3441L50.6508 36.2419L50.531 36.0699L50.3913 35.7681L50.328 35.6934L50.3264 35.6918H50.3247L50.2931 35.6837L50.2598 35.6804L50.2266 35.6837L50.1933 35.6918L50.1251 35.7421L50.0569 35.7664L49.9887 35.7535L49.9254 35.6934L49.8922 35.6739L49.8223 35.6512H49.7624L49.7042 35.6658L49.6493 35.6918H49.6476V35.6934L49.3332 35.7973L49.2218 35.7989L48.6927 35.7161L48.6162 35.6431L48.5946 35.5165L48.6412 35.1158L48.6328 35.0444L48.5962 34.9827L48.5696 34.9746L48.5014 34.9892L48.4731 34.9843L48.4515 34.96L48.4182 34.9032L48.3999 34.8821L48.2369 34.8188L47.9009 34.8058L47.4018 34.6322L47.2853 34.5267L47.2554 34.3207L47.2621 34.2476L47.2704 34.2119L47.2903 34.1892L47.3286 34.1551L47.3718 34.1405L47.4084 34.1519L47.4351 34.1422L47.4667 33.9702L47.5199 33.7949L47.5232 33.6034L47.5515 33.3941L47.6031 33.1945L47.6414 33.1475L47.7046 33.1394L47.811 33.154L47.831 33.1507L47.8493 33.1394L47.8659 33.1248L47.8792 33.1069L47.851 32.8765L47.9325 32.7986L48.2619 32.7483L48.6462 32.4806L48.7992 32.4335L48.9938 32.4368L50.4062 32.7937L51.0234 32.8132L51.3611 32.9317L51.5641 32.9463L51.7687 32.9284L52.0232 32.8619L52.1047 32.8246L52.0598 32.7256L52.1164 32.6477L52.2927 32.5374L52.3925 32.4351L52.4474 32.3329L52.4707 32.208L52.5123 31.3658L52.5556 31.2522L52.6038 31.2555L52.6587 31.2782L52.7985 31.1565L52.8667 31.2068L52.9781 31.382L53.033 31.4096L53.0613 31.3755L53.0696 31.3236V31.2977L53.068 31.2895L53.0979 31.2117L53.1129 31.2035L53.1561 31.1971L53.1711 31.1857L53.221 31.0851V31.0121L53.1295 30.8206L53.0896 30.707L53.0746 30.608L53.1029 30.5658L53.1894 30.6243L53.2742 30.806L53.3375 31.0315L53.4323 31.1743L53.607 31.1029L53.5936 30.9877L53.2293 30.4993L53.2077 30.4458L53.2027 30.3955L53.211 30.2884L53.1977 30.2478L53.1245 30.1894L53.1162 30.1423L53.1694 30.045L53.2343 30.0953L53.3275 30.2608L53.3807 30.2446L53.5271 30.1196L53.6103 30.0937L53.9114 30.1407L54.0046 30.1261L54.0395 30.0612L54.0461 29.9849L54.0328 29.9054L54.0062 29.8324L53.8132 29.6961L52.8068 29.8876L52.6604 29.8324L52.4757 29.7204L52.3692 29.6052L52.4558 29.5452L52.855 29.443L52.9465 29.4365L53.1861 29.477L53.2826 29.4641L53.4273 29.3829L53.5088 29.3505L54.1809 29.2483L54.2757 29.2645L54.5485 29.3992L54.9195 29.5079L55.1258 29.5144L55.2822 29.4446V29.3197L54.9811 29.0552L54.9644 28.8994L55.0726 28.8864L55.2323 28.9464L55.3654 28.9237L55.397 28.6657L55.3703 28.5489L55.3254 28.4499L55.2173 28.2601L55.1774 28.1659L55.0892 27.8674L54.9228 27.5948L54.9245 27.4844L55.0726 27.3855L55.3238 27.3644L55.3837 27.3287L55.4003 27.2573L55.372 26.9765L55.3753 26.7818L55.4036 26.6228L55.4668 26.4849L55.5733 26.3518L55.6315 26.3048L55.6981 26.2691L55.8328 26.2253L55.9077 26.2334L55.9626 26.2772L56.0142 26.3307L56.079 26.3697L56.2105 26.3827L56.3036 26.467L56.4633 26.7121L56.5116 26.7542L56.6164 26.8208L56.6629 26.8743L56.7395 27.0009L56.7827 27.0561L56.8343 27.1015L56.9624 27.1469L57.0739 27.1145L57.172 27.0285L57.345 26.8143L57.4265 26.7461L57.518 26.7023L58.2799 26.4687L58.6709 26.175L59.1001 26.0094L59.3995 25.8326L59.6291 25.5713L59.7439 25.0099L59.8986 24.9693L60.0833 25.044L60.213 25.1819L60.223 25.1997L60.2363 25.216L60.3661 25.3279L61.1197 26.1587L61.1546 26.2042L61.1463 26.3031L61.0648 26.2723L60.9217 26.1506L60.8385 26.1604L60.8003 26.2269L60.8103 26.3177L60.8751 26.3989L61.2528 26.4849L61.4108 26.5741L61.3742 26.7526L61.3642 26.7981L61.2993 26.837L61.2844 26.8597L61.2777 26.8841L61.2644 26.9051L61.1962 26.9214L61.1613 26.9376L61.1014 26.9847L61.0398 27.0398L60.7886 27.241L60.6439 27.4163L60.5907 27.4601L60.5274 27.4893L60.4659 27.5055L60.4077 27.5299L60.3528 27.585L60.253 27.7505L60.2114 27.8041L60.1714 27.8203L59.887 27.8852L59.7639 27.9615L59.699 28.0637L59.7056 28.1741L59.7123 28.2L59.7189 28.2146L59.7738 28.2909L59.7805 28.2974L59.8154 28.3379L59.8271 28.3607L59.7705 28.544L59.9768 28.6333L60.0633 28.6576L60.1531 28.6495L60.2313 28.6268L60.3095 28.6187L60.401 28.656L60.5108 28.8312L60.5657 29.0763L60.6389 29.3002L60.8053 29.417L60.9783 29.4284L61.1546 29.4138L61.7435 29.2369L62.1095 29.2044L62.1944 29.2126L62.3441 29.0649L62.5836 29.0243L63.0644 29.0925L63.1958 29.0795L63.2541 28.9903L63.2907 28.8734L63.3555 28.7777L63.4138 28.7598L63.4554 28.7923L63.492 28.8475L63.5352 28.8961L63.5918 28.9205L63.66 28.9253L63.7881 28.9124L63.8712 28.9172L64.001 29.0357L64.1857 29.0909L64.2256 29.1541L64.2589 29.232L64.3354 29.3018L64.4236 29.3553L64.5167 29.391L64.7113 29.43L64.8145 29.4203L64.8511 29.3602L64.8611 29.2693L64.886 29.1687L64.9609 29.1022L65.0341 29.1639L65.0923 29.284L65.1223 29.391L65.1206 29.6069L65.1472 29.6864L65.2304 29.7221L65.2869 29.7058L65.5049 29.5793L65.5714 29.5176L65.6163 29.4462L65.6945 29.2791L65.8226 29.1541L65.9724 29.146L66.1354 29.1833L66.2984 29.1963L66.3467 29.1817L66.3699 29.1785L66.4032 29.185L66.4531 29.2061L66.518 29.2174L66.5762 29.2028L66.6028 29.146L66.5796 29.1055L66.523 29.0681L66.4032 29.0146L66.325 28.9594L66.2951 28.8799L66.3184 28.8053L66.676 28.6284L66.7858 28.5229L66.8457 28.3753L66.8707 28.2763L66.9089 28.2227L67.1851 28.0751L67.255 28.0572L67.4746 28.0459L67.5494 28.054L67.5877 28.0848L67.5711 28.1384L67.5112 28.1578L67.4396 28.1627L67.3914 28.1773L67.3714 28.2276L67.4247 28.2438L67.611 28.2357L67.6725 28.2584L67.9171 28.398L68.0285 28.4386L68.1267 28.4175L68.2099 28.3055L68.2548 28.1724L68.2598 28.0491L68.2165 27.9436L68.0368 27.8171L68.0003 27.77V27.71L68.0285 27.624V27.5299L67.9387 27.3838L67.952 27.2946L68.0751 27.241L68.2132 27.3579L68.3496 27.5136L68.4677 27.5721L68.6274 27.5932L68.9185 27.7879L69.0832 27.7798L69.1465 27.7295L69.1864 27.6645L69.2063 27.5899L69.2113 27.512L69.2429 27.4228H69.3178L69.4709 27.4909L69.5906 27.4374L69.6389 27.0853L69.737 26.9376L69.8818 26.8776L70.1795 26.8029L70.5339 26.5855L70.9215 26.4459L71.1178 26.3372L71.2442 26.175L71.2326 26.0581ZM60.8252 25.5016L60.7554 25.4366L60.6339 25.2776L60.5657 25.2079L60.5607 25.2046L60.5125 25.0943L60.579 25.078L60.6921 25.1267L60.7886 25.2111L60.8452 25.302L60.8984 25.4318L60.9051 25.5226L60.8252 25.5016Z" fill="#EAFF06"/>
</svg>
