<svg width="348" height="326" viewBox="0 0 348 326" fill="none" xmlns="http://www.w3.org/2000/svg">
<path d="M208.001 77.2827L207.457 77.5457L207.382 121.109L207.926 120.846L208.001 77.2827Z" fill="#EAFF06"/>
<path d="M0.243803 136.701L0 271.635L249.316 145.548L249.56 10.6137L0.243803 136.701ZM0.712654 182.123L41.6527 161.422L41.5777 204.985L0.618883 226.776V225.687L0.712654 182.123ZM166.498 142.862L207.382 122.18L207.307 165.705L166.423 186.388L166.498 142.862ZM165.955 143.144L165.88 186.669L124.939 207.371L125.014 163.845L166.048 143.088L165.955 143.144ZM124.396 207.653L83.4555 228.354L83.5305 184.829L124.471 164.127L124.396 207.653ZM82.9116 228.617L42.0278 249.3L42.1028 205.774L82.9866 185.092L82.9116 228.617ZM0.618883 226.757L41.559 206.037L41.4839 249.563L0.543867 270.283L0.618883 226.757ZM248.772 144.741L207.832 165.442L207.907 121.917L248.847 100.126V101.196L248.772 144.741ZM248.866 100.144L207.382 121.128L165.955 142.054L125.014 162.775L125.089 119.211L124.546 119.493L124.471 163.056L82.9866 184.021L42.1028 204.703L42.1778 161.14L83.0617 140.458L82.9866 184.021L83.5305 183.739L83.6055 140.176L125.089 119.211L166.03 98.5101L165.955 142.073L166.498 141.791L166.573 98.2283L208.001 77.2827L248.941 55.4918V56.5813L248.866 100.144ZM248.941 55.4918L207.457 76.4749L166.048 97.4205L124.564 118.404L83.0804 139.387L41.6527 160.332L0.712654 182.123V181.034L0.78767 137.508L41.7277 116.807L41.6527 160.332L42.1966 160.051L42.2716 116.525L83.1554 95.8426L83.0804 139.387L83.6243 139.105L83.6993 95.5796L124.639 74.8782L124.564 118.404L125.108 118.122L125.183 74.5964L166.123 53.895L166.048 97.4205L166.592 97.1388L166.667 53.6132L207.551 32.9306L207.476 76.4562L208.02 76.1744L208.095 32.6489L249.035 11.9475L248.941 55.4918Z" fill="#EAFF06"/>
<path d="M226.586 156.895L226.305 156.744L226.793 156.482L227.074 156.651L248.022 168.26L247.535 168.504L226.586 156.895Z" fill="#EAFF06"/>
<path d="M248.097 168.823L248.585 168.579L302.521 198.467L302.034 198.73L248.097 168.823Z" fill="#EAFF06"/>
<path d="M174.957 183.175L174.675 183.006L175.182 182.762L175.463 182.912L196.411 194.522L195.924 194.785L174.957 183.175Z" fill="#EAFF06"/>
<path d="M323.826 210.809L323.545 210.658L302.596 199.03L303.103 198.786L324.051 210.395L324.332 210.564L323.826 210.809Z" fill="#EAFF06"/>
<path d="M196.486 195.104L196.974 194.841L250.91 224.747L250.423 224.991L196.486 195.104Z" fill="#EAFF06"/>
<path d="M123.27 209.475L122.989 209.325L123.495 209.062L123.777 209.231L144.725 220.84L144.219 221.103L123.27 209.475Z" fill="#EAFF06"/>
<path d="M272.215 237.07L271.934 236.92L250.985 225.311L251.492 225.067L272.421 236.676L272.721 236.826L272.215 237.07Z" fill="#EAFF06"/>
<path d="M144.781 221.404L145.288 221.159L199.224 251.047L198.718 251.31L144.781 221.404Z" fill="#EAFF06"/>
<path d="M71.5843 235.793L71.303 235.624L71.7906 235.38L72.0719 235.53L93.0202 247.158L92.5326 247.402L71.5843 235.793Z" fill="#EAFF06"/>
<path d="M220.529 263.389L220.248 263.238L199.299 251.629L199.806 251.366L220.735 262.975L221.035 263.144L220.529 263.389Z" fill="#EAFF06"/>
<path d="M93.095 247.722L93.5826 247.459L147.538 277.365L147.032 277.609L93.095 247.722Z" fill="#EAFF06"/>
<path d="M20.9483 261.548L20.6858 261.397L21.1734 261.153L21.4547 261.303L42.403 272.913L41.9154 273.176L20.9483 261.548Z" fill="#EAFF06"/>
<path d="M168.843 289.707L168.543 289.538L147.613 277.928L148.101 277.684L169.049 289.294L169.33 289.444L168.843 289.707Z" fill="#EAFF06"/>
<path d="M270.715 157.308L248.097 168.823L196.486 195.104L144.781 221.403L93.0951 247.722L42.4779 273.476L22.0735 283.865L20.7607 283.921L22.0173 283.301L42.4029 272.913L93.0201 247.158L144.725 220.84L196.411 194.522L248.022 168.26L270.715 157.308Z" fill="#EAFF06"/>
<path d="M42.478 273.476L42.9656 273.232L96.9023 303.12L96.4147 303.383L42.478 273.476Z" fill="#EAFF06"/>
<path d="M118.207 315.461L117.925 315.311L96.9771 303.702L97.4834 303.439L118.432 315.048L118.713 315.217L118.207 315.461Z" fill="#EAFF06"/>
<path d="M348 198.824L98.1024 326L22.5799 283.602L77.0791 313.827L98.0274 325.436L118.432 315.048L169.049 289.294L220.735 262.975L272.421 236.676L324.051 210.395L346.931 198.748L325.401 186.82L249.954 145.004L226.586 156.895L174.956 183.175L123.27 209.475L71.5842 235.793L20.9483 261.548L1.06898 271.673L21.5109 283.545L0 271.617L249.879 144.44L348 198.824Z" fill="#EAFF06"/>
<path d="M325.983 187.139L302.597 199.03L250.985 225.311L199.299 251.629L147.613 277.928L96.9773 303.702L76.5166 313.508L96.9022 303.119L147.538 277.365L199.224 251.047L250.91 224.747L302.522 198.467L325.983 187.139Z" fill="#EAFF06"/>
<path d="M298.227 172.28L274.859 184.19L223.248 210.452L171.543 236.77L119.857 263.069L69.2399 288.843L48.7605 298.649L69.1649 288.279L119.782 262.506L171.468 236.206L223.173 209.888L274.784 183.607L298.227 172.28Z" fill="#EAFF06"/>
<path d="M238.176 121.184L233.019 117.558L241.89 112.637L247.047 116.262L238.176 121.184Z" fill="url(#paint0_linear)"/>
<path d="M227.918 125.749L222.76 122.123L229.137 113.012L234.313 116.638L227.918 125.749Z" fill="url(#paint1_linear)"/>
<path d="M211.865 132.399L206.707 128.773L222.761 122.123L227.918 125.749L211.865 132.399Z" fill="url(#paint2_linear)"/>
<path d="M203.781 137.471L198.624 133.845L206.707 128.773L211.864 132.399L203.781 137.471Z" fill="url(#paint3_linear)"/>
<path d="M195.905 142.092L190.729 138.466L198.624 133.845L203.782 137.471L195.905 142.092Z" fill="url(#paint4_linear)"/>
<path d="M189.472 142.017L184.315 138.372L190.729 138.466L195.905 142.092L189.472 142.017Z" fill="url(#paint5_linear)"/>
<path d="M176.663 148.535L171.487 144.91L184.315 138.372L189.472 142.017L176.663 148.535Z" fill="url(#paint6_linear)"/>
<path d="M166.423 154.603L161.247 150.977L171.487 144.91L176.663 148.535L166.423 154.603Z" fill="url(#paint7_linear)"/>
<path d="M157.028 161.91L151.87 158.285L161.247 150.977L166.424 154.603L157.028 161.91Z" fill="url(#paint8_linear)"/>
<path d="M149.77 166.438L144.613 162.812L151.87 158.285L157.028 161.91L149.77 166.438Z" fill="url(#paint9_linear)"/>
<path d="M147.219 166.907L142.062 163.282L144.613 162.812L149.77 166.438L147.219 166.907Z" fill="url(#paint10_linear)"/>
<path d="M140.806 171.021L135.648 167.396L142.062 163.282L147.219 166.907L140.806 171.021Z" fill="url(#paint11_linear)"/>
<path d="M124.17 181.165L118.994 177.54L134.354 166.363L139.511 169.988L124.17 181.165Z" fill="url(#paint12_linear)"/>
<path d="M120.307 182.311L115.131 178.667L118.994 177.54L124.171 181.165L120.307 182.311Z" fill="url(#paint13_linear)"/>
<path d="M111.324 180.188L106.167 176.563L115.131 178.667L120.307 182.311L111.324 180.188Z" fill="url(#paint14_linear)"/>
<path d="M104.141 188.98L98.9651 185.354L106.167 176.563L111.324 180.188L104.141 188.98Z" fill="url(#paint15_linear)"/>
<path d="M97.2586 195.743L92.0825 192.098L98.9652 185.354L104.141 188.98L97.2586 195.743Z" fill="url(#paint16_linear)"/>
<path d="M85.7247 203.294L80.5674 199.669L92.0824 192.098L97.2585 195.743L85.7247 203.294Z" fill="url(#paint17_linear)"/>
<path d="M70.3275 204.44L65.1702 200.815L80.5672 199.669L85.7246 203.294L70.3275 204.44Z" fill="url(#paint18_linear)"/>
<path d="M61.3446 203.163L56.1873 199.537L65.1704 200.815L70.3278 204.44L61.3446 203.163Z" fill="url(#paint19_linear)"/>
<path d="M51.4425 217.609L46.2664 213.983L56.1872 199.537L61.3446 203.163L51.4425 217.609Z" fill="url(#paint20_linear)"/>
<path d="M234.313 116.638L238.176 121.184L247.047 116.262L247.572 123.213V168.279L42.3653 272.931L42.2903 208.536L51.4423 217.609L61.3444 203.163L70.3276 204.44L85.7246 203.294L97.2584 195.743L104.141 188.98L111.324 180.188L120.307 182.311L124.17 181.165L139.511 169.988L140.805 171.021L147.219 166.907L149.77 166.438L157.028 161.91L166.423 154.603L176.663 148.535L189.472 142.017L195.905 142.092L203.781 137.471L211.864 132.399L227.918 125.749L234.313 116.638Z" fill="url(#paint21_linear)"/>
<path d="M42.3654 272.931L37.1331 270.001V204.91L42.2904 208.536L42.3654 272.931Z" fill="url(#paint22_linear)"/>
<path d="M263.119 137.283L257.962 133.657L269.646 135.761L274.822 139.387L263.119 137.283Z" fill="url(#paint23_linear)"/>
<path d="M254.53 147.014L249.373 143.388L257.962 133.657L263.119 137.283L254.53 147.014Z" fill="url(#paint24_linear)"/>
<path d="M244.196 141.04L239.039 137.396L249.373 143.388L254.53 147.014L244.196 141.04Z" fill="url(#paint25_linear)"/>
<path d="M228.856 160.051L223.698 156.425L239.039 137.396L244.196 141.04L228.856 160.051Z" fill="url(#paint26_linear)"/>
<path d="M217.322 163.131L212.165 159.506L223.698 156.425L228.856 160.051L217.322 163.131Z" fill="url(#paint27_linear)"/>
<path d="M204.55 166.306L199.393 162.681L212.165 159.506L217.322 163.131L204.55 166.306Z" fill="url(#paint28_linear)"/>
<path d="M198.155 174.966L192.998 171.341L199.393 162.681L204.551 166.306L198.155 174.966Z" fill="url(#paint29_linear)"/>
<path d="M191.704 173.407L186.528 169.781L192.998 171.341L198.155 174.966L191.704 173.407Z" fill="url(#paint30_linear)"/>
<path d="M187.841 176.77L182.683 173.144L186.528 169.781L191.704 173.407L187.841 176.77Z" fill="url(#paint31_linear)"/>
<path d="M171.187 182.462L166.03 178.836L167.286 175.398L172.462 179.024L171.187 182.462Z" fill="url(#paint32_linear)"/>
<path d="M172.462 179.024L167.286 175.398L182.683 173.144L187.841 176.77L172.462 179.024Z" fill="url(#paint33_linear)"/>
<path d="M164.773 184.34L159.616 180.714L166.03 178.836L171.187 182.462L164.773 184.34Z" fill="url(#paint34_linear)"/>
<path d="M162.223 187.045L157.046 183.401L159.616 180.714L164.773 184.34L162.223 187.045Z" fill="url(#paint35_linear)"/>
<path d="M154.965 189.356L149.807 185.711L157.046 183.401L162.223 187.045L154.965 189.356Z" fill="url(#paint36_linear)"/>
<path d="M145.55 189.938L140.393 186.312L149.807 185.711L154.965 189.356L145.55 189.938Z" fill="url(#paint37_linear)"/>
<path d="M137.28 199.763L132.104 196.137L140.393 186.312L145.55 189.938L137.28 199.763Z" fill="url(#paint38_linear)"/>
<path d="M127.603 197.696L122.445 194.071L132.104 196.137L137.28 199.763L127.603 197.696Z" fill="url(#paint39_linear)"/>
<path d="M118.657 212.048L113.5 208.404L122.445 194.071L127.603 197.696L118.657 212.048Z" fill="url(#paint40_linear)"/>
<path d="M110.78 215.073L105.604 211.447L113.499 208.404L118.657 212.048L110.78 215.073Z" fill="url(#paint41_linear)"/>
<path d="M105.229 212.105L100.072 208.479L105.604 211.447L110.78 215.073L105.229 212.105Z" fill="url(#paint42_linear)"/>
<path d="M89.1942 226.212L84.0369 222.587L100.072 208.479L105.229 212.105L89.1942 226.212Z" fill="url(#paint43_linear)"/>
<path d="M82.818 235.605L77.6418 231.98L84.037 222.587L89.1943 226.212L82.818 235.605Z" fill="url(#paint44_linear)"/>
<path d="M69.6526 288.054L64.439 285.123V241.748L69.5963 245.373L69.6526 288.054Z" fill="url(#paint45_linear)"/>
<path d="M69.5963 245.373L64.439 241.748L64.9078 229.462L70.0652 233.088L69.5963 245.373Z" fill="url(#paint46_linear)"/>
<path d="M263.119 137.283L274.822 139.387L274.878 183.401L69.6525 288.054L69.5962 245.373L70.065 233.088L78.9357 229.181L82.8178 235.605L89.1942 226.212L105.229 212.105L110.78 215.073L118.657 212.048L127.602 197.696L137.28 199.763L145.55 189.938L154.965 189.356L162.222 187.045L164.773 184.34L171.187 182.462L172.462 179.024L187.84 176.77L191.704 173.407L198.155 174.966L204.55 166.306L217.322 163.131L228.856 160.051L244.196 141.04L254.53 147.014L263.119 137.283Z" fill="url(#paint47_linear)"/>
<path d="M70.0651 233.088L64.9077 229.462L73.7784 225.555L78.9357 229.181L70.0651 233.088Z" fill="url(#paint48_linear)"/>
<path d="M284.143 171.979L278.985 168.354L294.101 147.521L299.277 151.165L284.143 171.979Z" fill="url(#paint49_linear)"/>
<path d="M261.3 172.806L256.143 169.18L278.985 168.354L284.143 171.979L261.3 172.806Z" fill="url(#paint50_linear)"/>
<path d="M229.231 188.022L224.055 184.378L256.143 169.18L261.3 172.806L229.231 188.022Z" fill="url(#paint51_linear)"/>
<path d="M217.378 207.145L212.202 203.501L224.055 184.378L229.231 188.022L217.378 207.145Z" fill="url(#paint52_linear)"/>
<path d="M193.86 213.626L188.684 210.001L212.202 203.501L217.378 207.145L193.86 213.626Z" fill="url(#paint53_linear)"/>
<path d="M176.757 231.379L171.581 227.753L188.685 210.001L193.861 213.626L176.757 231.379Z" fill="url(#paint54_linear)"/>
<path d="M149.695 226.889L144.519 223.263L155.977 214.34L161.135 217.966L149.695 226.889Z" fill="url(#paint55_linear)"/>
<path d="M140.299 236.751L135.123 233.126L144.519 223.263L149.695 226.889L140.299 236.751Z" fill="url(#paint56_linear)"/>
<path d="M125.783 238.498L120.626 234.873L135.123 233.125L140.299 236.751L125.783 238.498Z" fill="url(#paint57_linear)"/>
<path d="M114.737 244.472L109.58 240.846L120.626 234.873L125.783 238.498L114.737 244.472Z" fill="url(#paint58_linear)"/>
<path d="M96.8646 303.157L91.6885 300.245L91.5947 246.482L96.7709 250.107L96.8646 303.157Z" fill="url(#paint59_linear)"/>
<path d="M299.277 151.165L302.015 156.763L302.072 198.504L96.8648 303.157L96.771 250.107L114.737 244.472L125.784 238.498L140.299 236.751L149.695 226.889L161.135 217.966L176.757 231.379L193.861 213.626L217.378 207.145L229.231 188.022L261.3 172.806L284.143 171.979L299.277 151.165Z" fill="url(#paint60_linear)"/>
<path d="M96.7708 250.107L91.5947 246.482L109.58 240.846L114.737 244.472L96.7708 250.107Z" fill="url(#paint61_linear)"/>
<path d="M234.519 18.7102L233.525 0L218.747 9.59929L222.817 11.9474L217.416 23.6695L225.33 28.2907L230.75 16.5311L234.519 18.7102Z" fill="url(#paint62_linear)"/>
<path d="M175.163 57.2952L167.23 52.6928L217.416 23.6695L225.33 28.2907L175.163 57.2952Z" fill="url(#paint63_linear)"/>
<path d="M140.655 107.809L132.722 103.206L167.23 52.6927L175.163 57.2951L140.655 107.809Z" fill="url(#paint64_linear)"/>
<path d="M104.216 131.422L96.302 126.801L132.722 103.206L140.655 107.809L104.216 131.422Z" fill="url(#paint65_linear)"/>
<path d="M66.4643 181.879L58.55 177.258L96.3019 126.801L104.216 131.422L66.4643 181.879Z" fill="url(#paint66_linear)"/>
<path d="M43.3219 193.827L35.3889 189.224L58.5502 177.258L66.4644 181.879L43.3219 193.827Z" fill="url(#paint67_linear)"/>
<g opacity="0.5">
<path opacity="0.5" d="M125.39 232.412C128.69 231.811 131.128 234.572 130.791 238.573C130.472 242.574 127.509 246.313 124.189 246.933C120.889 247.534 118.45 244.791 118.788 240.79C119.107 236.77 122.07 233.032 125.39 232.412ZM124.358 244.941C126.759 244.491 128.915 241.767 129.14 238.874C129.384 235.962 127.621 233.971 125.221 234.403C122.82 234.854 120.663 237.559 120.42 240.471C120.195 243.382 121.958 245.392 124.358 244.941Z" fill="#EAFF06"/>
</g>
<g opacity="0.5">
<path opacity="0.5" d="M261.9 165.893C265.201 165.292 267.639 168.053 267.301 172.054C266.964 176.056 264.019 179.794 260.7 180.414C257.399 181.015 254.961 178.272 255.299 174.271C255.618 170.251 258.581 166.494 261.9 165.893ZM260.869 178.423C263.269 177.972 265.426 175.248 265.651 172.355C265.895 169.443 264.132 167.452 261.731 167.884C259.331 168.335 257.174 171.04 256.93 173.952C256.705 176.845 258.468 178.855 260.869 178.423Z" fill="#EAFF06"/>
</g>
<g opacity="0.5">
<path opacity="0.5" d="M193.598 206.375C196.899 205.774 199.337 208.536 198.999 212.537C198.662 216.538 195.717 220.276 192.398 220.896C189.097 221.497 186.659 218.755 186.997 214.754C187.315 210.733 190.279 206.976 193.598 206.375ZM192.567 218.905C194.967 218.454 197.124 215.73 197.349 212.837C197.593 209.926 195.83 207.934 193.429 208.367C191.029 208.817 188.872 211.522 188.628 214.434C188.403 217.327 190.166 219.337 192.567 218.905Z" fill="#EAFF06"/>
</g>
<g opacity="0.5">
<path opacity="0.5" d="M106.204 204.516C109.505 203.914 111.943 206.676 111.605 210.677C111.287 214.678 108.323 218.435 105.004 219.037C101.703 219.638 99.2652 216.895 99.6028 212.894C99.9403 208.874 102.903 205.135 106.204 204.516ZM105.173 217.045C107.573 216.594 109.73 213.871 109.955 210.978C110.199 208.066 108.436 206.075 106.035 206.507C103.635 206.958 101.478 209.663 101.234 212.574C101.009 215.486 102.772 217.496 105.173 217.045Z" fill="#EAFF06"/>
</g>
<g opacity="0.5">
<path opacity="0.5" d="M229.137 152.8C232.437 152.198 234.876 154.96 234.538 158.961C234.219 162.962 231.256 166.701 227.937 167.321C224.636 167.922 222.198 165.179 222.535 161.178C222.873 157.158 225.817 153.401 229.137 152.8ZM228.105 165.329C230.506 164.879 232.663 162.155 232.888 159.262C233.131 156.35 231.369 154.359 228.968 154.791C226.567 155.242 224.411 157.947 224.167 160.858C223.942 163.751 225.705 165.761 228.105 165.329Z" fill="#EAFF06"/>
</g>
<g opacity="0.5">
<path opacity="0.5" d="M173.062 171.341C176.363 170.74 178.801 173.501 178.464 177.502C178.126 181.504 175.182 185.242 171.862 185.862C168.561 186.463 166.123 183.72 166.461 179.719C166.78 175.699 169.743 171.942 173.062 171.341ZM172.031 183.871C174.431 183.42 176.588 180.696 176.813 177.803C177.057 174.891 175.294 172.9 172.894 173.332C170.493 173.783 168.336 176.488 168.093 179.4C167.867 182.311 169.612 184.321 172.031 183.871Z" fill="#EAFF06"/>
</g>
<g opacity="0.5">
<path opacity="0.5" d="M61.9447 196.25C65.2454 195.649 67.6834 198.41 67.3458 202.412C67.027 206.413 64.0639 210.17 60.7444 210.771C57.4437 211.372 55.0057 208.63 55.3432 204.628C55.6808 200.608 58.6252 196.851 61.9447 196.25ZM60.9132 208.78C63.3137 208.329 65.4704 205.605 65.6955 202.712C65.9393 199.8 64.1764 197.809 61.7759 198.241C59.3754 198.692 57.2187 201.397 56.9748 204.309C56.7498 207.221 58.5127 209.231 60.9132 208.78Z" fill="#EAFF06"/>
</g>
<g opacity="0.5">
<path opacity="0.5" d="M234.894 110.044C238.195 109.443 240.633 112.205 240.296 116.206C239.977 120.207 237.014 123.945 233.694 124.565C230.393 125.166 227.955 122.424 228.293 118.423C228.631 114.402 231.594 110.664 234.894 110.044ZM233.882 122.574C236.282 122.123 238.439 119.399 238.664 116.506C238.908 113.595 237.145 111.603 234.744 112.036C232.344 112.486 230.187 115.191 229.943 118.103C229.718 121.015 231.462 123.025 233.882 122.574Z" fill="#EAFF06"/>
</g>
<g opacity="0.5">
<path opacity="0.5" d="M147.819 159.111C151.12 158.51 153.558 161.272 153.221 165.273C152.902 169.274 149.939 173.013 146.619 173.632C143.318 174.234 140.88 171.491 141.218 167.49C141.537 163.47 144.5 159.713 147.819 159.111ZM146.788 171.641C149.188 171.19 151.345 168.467 151.57 165.574C151.814 162.662 150.051 160.671 147.651 161.103C145.25 161.554 143.093 164.259 142.85 167.17C142.625 170.082 144.387 172.092 146.788 171.641Z" fill="#EAFF06"/>
</g>
<g opacity="0.5">
<path opacity="0.5" d="M125.783 239.062C125.615 239.062 125.446 238.987 125.333 238.836L104.91 212.612L61.232 203.708C60.9319 203.651 60.7256 203.351 60.8006 203.05C60.8569 202.75 61.157 202.543 61.457 202.618L105.341 211.56C105.473 211.579 105.585 211.654 105.679 211.767L126.233 238.16C126.421 238.404 126.384 238.761 126.14 238.949C126.027 239.024 125.915 239.062 125.783 239.062Z" fill="#EAFF06"/>
</g>
<g opacity="0.5">
<path opacity="0.5" d="M193.861 214.19C193.673 214.19 193.486 214.096 193.373 213.927L172.069 179.456L146.976 167.415C146.694 167.283 146.582 166.945 146.713 166.663C146.844 166.381 147.182 166.269 147.463 166.4L172.706 178.517C172.8 178.554 172.894 178.629 172.95 178.723L194.348 213.326C194.517 213.589 194.423 213.946 194.161 214.096C194.067 214.152 193.954 214.19 193.861 214.19Z" fill="#EAFF06"/>
</g>
<g opacity="0.5">
<path opacity="0.5" d="M261.3 173.369C261.225 173.369 261.169 173.351 261.094 173.332L228.649 160.577C228.405 160.483 228.274 160.239 228.293 159.976L233.731 116.563C233.769 116.262 234.05 116.037 234.35 116.074C234.65 116.112 234.875 116.394 234.838 116.694L229.474 159.675L261.506 172.28C261.787 172.393 261.938 172.712 261.825 173.013C261.731 173.238 261.525 173.369 261.3 173.369Z" fill="#EAFF06"/>
</g>
<defs>
<linearGradient id="paint0_linear" x1="233.013" y1="116.909" x2="247.056" y2="116.909" gradientUnits="userSpaceOnUse">
<stop stop-color="#A3E6E8"/>
<stop offset="1" stop-color="#06C9D1"/>
</linearGradient>
<linearGradient id="paint1_linear" x1="222.764" y1="119.381" x2="234.308" y2="119.381" gradientUnits="userSpaceOnUse">
<stop stop-color="#252353"/>
<stop offset="1" stop-color="#06C9D1"/>
</linearGradient>
<linearGradient id="paint2_linear" x1="206.705" y1="127.263" x2="227.927" y2="127.263" gradientUnits="userSpaceOnUse">
<stop stop-color="#A3E6E8"/>
<stop offset="1" stop-color="#06C9D1"/>
</linearGradient>
<linearGradient id="paint3_linear" x1="198.618" y1="133.124" x2="211.868" y2="133.124" gradientUnits="userSpaceOnUse">
<stop stop-color="#A3E6E8"/>
<stop offset="1" stop-color="#06C9D1"/>
</linearGradient>
<linearGradient id="paint4_linear" x1="190.733" y1="137.969" x2="203.783" y2="137.969" gradientUnits="userSpaceOnUse">
<stop stop-color="#A3E6E8"/>
<stop offset="1" stop-color="#06C9D1"/>
</linearGradient>
<linearGradient id="paint5_linear" x1="184.31" y1="140.234" x2="195.896" y2="140.234" gradientUnits="userSpaceOnUse">
<stop stop-color="#A3E6E8"/>
<stop offset="1" stop-color="#06C9D1"/>
</linearGradient>
<linearGradient id="paint6_linear" x1="171.494" y1="143.461" x2="189.474" y2="143.461" gradientUnits="userSpaceOnUse">
<stop stop-color="#A3E6E8"/>
<stop offset="1" stop-color="#06C9D1"/>
</linearGradient>
<linearGradient id="paint7_linear" x1="161.253" y1="149.762" x2="176.656" y2="149.762" gradientUnits="userSpaceOnUse">
<stop stop-color="#A3E6E8"/>
<stop offset="1" stop-color="#06C9D1"/>
</linearGradient>
<linearGradient id="paint8_linear" x1="151.863" y1="156.448" x2="166.416" y2="156.448" gradientUnits="userSpaceOnUse">
<stop stop-color="#A3E6E8"/>
<stop offset="1" stop-color="#06C9D1"/>
</linearGradient>
<linearGradient id="paint9_linear" x1="144.611" y1="162.366" x2="157.027" y2="162.366" gradientUnits="userSpaceOnUse">
<stop stop-color="#A3E6E8"/>
<stop offset="1" stop-color="#06C9D1"/>
</linearGradient>
<linearGradient id="paint10_linear" x1="142.055" y1="164.863" x2="149.775" y2="164.863" gradientUnits="userSpaceOnUse">
<stop stop-color="#A3E6E8"/>
<stop offset="1" stop-color="#06C9D1"/>
</linearGradient>
<linearGradient id="paint11_linear" x1="135.643" y1="167.149" x2="147.217" y2="167.149" gradientUnits="userSpaceOnUse">
<stop stop-color="#A3E6E8"/>
<stop offset="1" stop-color="#06C9D1"/>
</linearGradient>
<linearGradient id="paint12_linear" x1="118.999" y1="173.769" x2="139.52" y2="173.769" gradientUnits="userSpaceOnUse">
<stop stop-color="#A3E6E8"/>
<stop offset="1" stop-color="#06C9D1"/>
</linearGradient>
<linearGradient id="paint13_linear" x1="115.139" y1="179.926" x2="124.163" y2="179.926" gradientUnits="userSpaceOnUse">
<stop stop-color="#A3E6E8"/>
<stop offset="1" stop-color="#06C9D1"/>
</linearGradient>
<linearGradient id="paint14_linear" x1="106.169" y1="179.433" x2="120.303" y2="179.433" gradientUnits="userSpaceOnUse">
<stop stop-color="#A3E6E8"/>
<stop offset="1" stop-color="#06C9D1"/>
</linearGradient>
<linearGradient id="paint15_linear" x1="98.9715" y1="182.772" x2="111.332" y2="182.772" gradientUnits="userSpaceOnUse">
<stop stop-color="#A3E6E8"/>
<stop offset="1" stop-color="#06C9D1"/>
</linearGradient>
<linearGradient id="paint16_linear" x1="92.087" y1="190.545" x2="104.136" y2="190.545" gradientUnits="userSpaceOnUse">
<stop stop-color="#A3E6E8"/>
<stop offset="1" stop-color="#06C9D1"/>
</linearGradient>
<linearGradient id="paint17_linear" x1="80.5621" y1="197.697" x2="97.2508" y2="197.697" gradientUnits="userSpaceOnUse">
<stop stop-color="#A3E6E8"/>
<stop offset="1" stop-color="#06C9D1"/>
</linearGradient>
<linearGradient id="paint18_linear" x1="65.1705" y1="202.053" x2="85.7255" y2="202.053" gradientUnits="userSpaceOnUse">
<stop stop-color="#A3E6E8"/>
<stop offset="1" stop-color="#06C9D1"/>
</linearGradient>
<linearGradient id="paint19_linear" x1="56.1801" y1="201.986" x2="70.3338" y2="201.986" gradientUnits="userSpaceOnUse">
<stop stop-color="#A3E6E8"/>
<stop offset="1" stop-color="#06C9D1"/>
</linearGradient>
<linearGradient id="paint20_linear" x1="46.272" y1="208.568" x2="61.3435" y2="208.568" gradientUnits="userSpaceOnUse">
<stop stop-color="#A3E6E8"/>
<stop offset="1" stop-color="#06C9D1"/>
</linearGradient>
<linearGradient id="paint21_linear" x1="145.884" y1="197.906" x2="131.6" y2="157.719" gradientUnits="userSpaceOnUse">
<stop stop-color="#A3E6E8"/>
<stop offset="1" stop-color="#06C9D1"/>
</linearGradient>
<linearGradient id="paint22_linear" x1="37.1359" y1="238.917" x2="42.3701" y2="238.917" gradientUnits="userSpaceOnUse">
<stop stop-color="#A3E6E8"/>
<stop offset="1" stop-color="#06C9D1"/>
</linearGradient>
<linearGradient id="paint23_linear" x1="257.964" y1="136.518" x2="274.814" y2="136.518" gradientUnits="userSpaceOnUse">
<stop stop-color="#A4294A"/>
<stop offset="1" stop-color="#FF6678"/>
</linearGradient>
<linearGradient id="paint24_linear" x1="249.369" y1="140.337" x2="263.129" y2="140.337" gradientUnits="userSpaceOnUse">
<stop stop-color="#A4294A"/>
<stop offset="1" stop-color="#FF6678"/>
</linearGradient>
<linearGradient id="paint25_linear" x1="239.031" y1="142.211" x2="254.534" y2="142.211" gradientUnits="userSpaceOnUse">
<stop stop-color="#A4294A"/>
<stop offset="1" stop-color="#FF6678"/>
</linearGradient>
<linearGradient id="paint26_linear" x1="223.699" y1="148.724" x2="244.194" y2="148.724" gradientUnits="userSpaceOnUse">
<stop stop-color="#A4294A"/>
<stop offset="1" stop-color="#FF6678"/>
</linearGradient>
<linearGradient id="paint27_linear" x1="212.162" y1="159.779" x2="228.863" y2="159.779" gradientUnits="userSpaceOnUse">
<stop stop-color="#A4294A"/>
<stop offset="1" stop-color="#FF6678"/>
</linearGradient>
<linearGradient id="paint28_linear" x1="199.387" y1="162.911" x2="217.327" y2="162.911" gradientUnits="userSpaceOnUse">
<stop stop-color="#A4294A"/>
<stop offset="1" stop-color="#FF6678"/>
</linearGradient>
<linearGradient id="paint29_linear" x1="192.995" y1="168.825" x2="204.55" y2="168.825" gradientUnits="userSpaceOnUse">
<stop stop-color="#A4294A"/>
<stop offset="1" stop-color="#FF6678"/>
</linearGradient>
<linearGradient id="paint30_linear" x1="186.533" y1="172.375" x2="198.158" y2="172.375" gradientUnits="userSpaceOnUse">
<stop stop-color="#A4294A"/>
<stop offset="1" stop-color="#FF6678"/>
</linearGradient>
<linearGradient id="paint31_linear" x1="182.682" y1="173.279" x2="191.696" y2="173.279" gradientUnits="userSpaceOnUse">
<stop stop-color="#A4294A"/>
<stop offset="1" stop-color="#FF6678"/>
</linearGradient>
<linearGradient id="paint32_linear" x1="166.025" y1="178.928" x2="172.458" y2="178.928" gradientUnits="userSpaceOnUse">
<stop stop-color="#A4294A"/>
<stop offset="1" stop-color="#FF6678"/>
</linearGradient>
<linearGradient id="paint33_linear" x1="167.295" y1="176.083" x2="187.845" y2="176.083" gradientUnits="userSpaceOnUse">
<stop stop-color="#A4294A"/>
<stop offset="1" stop-color="#FF6678"/>
</linearGradient>
<linearGradient id="paint34_linear" x1="159.607" y1="181.586" x2="171.188" y2="181.586" gradientUnits="userSpaceOnUse">
<stop stop-color="#A4294A"/>
<stop offset="1" stop-color="#FF6678"/>
</linearGradient>
<linearGradient id="paint35_linear" x1="157.05" y1="183.872" x2="164.77" y2="183.872" gradientUnits="userSpaceOnUse">
<stop stop-color="#A4294A"/>
<stop offset="1" stop-color="#FF6678"/>
</linearGradient>
<linearGradient id="paint36_linear" x1="149.798" y1="186.378" x2="162.215" y2="186.378" gradientUnits="userSpaceOnUse">
<stop stop-color="#A4294A"/>
<stop offset="1" stop-color="#FF6678"/>
</linearGradient>
<linearGradient id="paint37_linear" x1="140.387" y1="187.832" x2="154.961" y2="187.832" gradientUnits="userSpaceOnUse">
<stop stop-color="#A4294A"/>
<stop offset="1" stop-color="#FF6678"/>
</linearGradient>
<linearGradient id="paint38_linear" x1="132.112" y1="193.044" x2="145.55" y2="193.044" gradientUnits="userSpaceOnUse">
<stop stop-color="#A4294A"/>
<stop offset="1" stop-color="#FF6678"/>
</linearGradient>
<linearGradient id="paint39_linear" x1="122.441" y1="196.917" x2="137.276" y2="196.917" gradientUnits="userSpaceOnUse">
<stop stop-color="#A4294A"/>
<stop offset="1" stop-color="#FF6678"/>
</linearGradient>
<linearGradient id="paint40_linear" x1="113.5" y1="203.052" x2="127.604" y2="203.052" gradientUnits="userSpaceOnUse">
<stop stop-color="#A4294A"/>
<stop offset="1" stop-color="#FF6678"/>
</linearGradient>
<linearGradient id="paint41_linear" x1="105.61" y1="211.744" x2="118.663" y2="211.744" gradientUnits="userSpaceOnUse">
<stop stop-color="#A4294A"/>
<stop offset="1" stop-color="#FF6678"/>
</linearGradient>
<linearGradient id="paint42_linear" x1="100.07" y1="211.778" x2="110.774" y2="211.778" gradientUnits="userSpaceOnUse">
<stop stop-color="#A4294A"/>
<stop offset="1" stop-color="#FF6678"/>
</linearGradient>
<linearGradient id="paint43_linear" x1="84.0359" y1="217.35" x2="105.232" y2="217.35" gradientUnits="userSpaceOnUse">
<stop stop-color="#A4294A"/>
<stop offset="1" stop-color="#FF6678"/>
</linearGradient>
<linearGradient id="paint44_linear" x1="77.649" y1="229.097" x2="89.1996" y2="229.097" gradientUnits="userSpaceOnUse">
<stop stop-color="#A4294A"/>
<stop offset="1" stop-color="#FF6678"/>
</linearGradient>
<linearGradient id="paint45_linear" x1="64.4339" y1="264.895" x2="69.6511" y2="264.895" gradientUnits="userSpaceOnUse">
<stop stop-color="#A4294A"/>
<stop offset="1" stop-color="#FF6678"/>
</linearGradient>
<linearGradient id="paint46_linear" x1="64.4339" y1="237.415" x2="70.0625" y2="237.415" gradientUnits="userSpaceOnUse">
<stop stop-color="#A4294A"/>
<stop offset="1" stop-color="#FF6678"/>
</linearGradient>
<linearGradient id="paint47_linear" x1="183.793" y1="244.445" x2="150.628" y2="156.578" gradientUnits="userSpaceOnUse">
<stop stop-color="#A4294A"/>
<stop offset="1" stop-color="#FF6678"/>
</linearGradient>
<linearGradient id="paint48_linear" x1="64.8991" y1="229.322" x2="78.9389" y2="229.322" gradientUnits="userSpaceOnUse">
<stop stop-color="#A4294A"/>
<stop offset="1" stop-color="#FF6678"/>
</linearGradient>
<linearGradient id="paint49_linear" x1="278.982" y1="159.754" x2="299.269" y2="159.754" gradientUnits="userSpaceOnUse">
<stop stop-color="#EDD26D"/>
<stop offset="1" stop-color="#FFD024"/>
</linearGradient>
<linearGradient id="paint50_linear" x1="256.134" y1="170.577" x2="284.144" y2="170.577" gradientUnits="userSpaceOnUse">
<stop stop-color="#EDD26D"/>
<stop offset="1" stop-color="#FFD024"/>
</linearGradient>
<linearGradient id="paint51_linear" x1="224.062" y1="178.595" x2="261.298" y2="178.595" gradientUnits="userSpaceOnUse">
<stop stop-color="#EDD26D"/>
<stop offset="1" stop-color="#FFD024"/>
</linearGradient>
<linearGradient id="paint52_linear" x1="212.206" y1="195.762" x2="229.227" y2="195.762" gradientUnits="userSpaceOnUse">
<stop stop-color="#EDD26D"/>
<stop offset="1" stop-color="#FFD024"/>
</linearGradient>
<linearGradient id="paint53_linear" x1="188.692" y1="208.565" x2="217.37" y2="208.565" gradientUnits="userSpaceOnUse">
<stop stop-color="#EDD26D"/>
<stop offset="1" stop-color="#FFD024"/>
</linearGradient>
<linearGradient id="paint54_linear" x1="171.589" y1="220.69" x2="193.855" y2="220.69" gradientUnits="userSpaceOnUse">
<stop stop-color="#EDD26D"/>
<stop offset="1" stop-color="#FFD024"/>
</linearGradient>
<linearGradient id="paint55_linear" x1="144.528" y1="220.62" x2="161.133" y2="220.62" gradientUnits="userSpaceOnUse">
<stop stop-color="#EDD26D"/>
<stop offset="1" stop-color="#FFD024"/>
</linearGradient>
<linearGradient id="paint56_linear" x1="135.129" y1="230.014" x2="149.691" y2="230.014" gradientUnits="userSpaceOnUse">
<stop stop-color="#EDD26D"/>
<stop offset="1" stop-color="#FFD024"/>
</linearGradient>
<linearGradient id="paint57_linear" x1="120.625" y1="235.815" x2="140.292" y2="235.815" gradientUnits="userSpaceOnUse">
<stop stop-color="#EDD26D"/>
<stop offset="1" stop-color="#FFD024"/>
</linearGradient>
<linearGradient id="paint58_linear" x1="109.581" y1="239.673" x2="125.789" y2="239.673" gradientUnits="userSpaceOnUse">
<stop stop-color="#EDD26D"/>
<stop offset="1" stop-color="#FFD024"/>
</linearGradient>
<linearGradient id="paint59_linear" x1="91.6" y1="274.817" x2="96.8648" y2="274.817" gradientUnits="userSpaceOnUse">
<stop stop-color="#EDD26D"/>
<stop offset="1" stop-color="#FFD024"/>
</linearGradient>
<linearGradient id="paint60_linear" x1="202.372" y1="238.103" x2="184.519" y2="188.655" gradientUnits="userSpaceOnUse">
<stop stop-color="#E8F371"/>
<stop offset="1" stop-color="#EDFF24"/>
</linearGradient>
<linearGradient id="paint61_linear" x1="91.6" y1="245.48" x2="114.744" y2="245.48" gradientUnits="userSpaceOnUse">
<stop stop-color="#EDD26D"/>
<stop offset="1" stop-color="#FFD024"/>
</linearGradient>
<linearGradient id="paint62_linear" x1="215.053" y1="38.2373" x2="241.353" y2="-16.297" gradientUnits="userSpaceOnUse">
<stop stop-color="#9AA529"/>
<stop offset="1" stop-color="#F3FF74"/>
</linearGradient>
<linearGradient id="paint63_linear" x1="297.709" y1="-13.3069" x2="172.548" y2="52.852" gradientUnits="userSpaceOnUse">
<stop stop-color="#A0AB2A"/>
<stop offset="1" stop-color="#F2FF69"/>
</linearGradient>
<linearGradient id="paint64_linear" x1="122.638" y1="125.916" x2="182.902" y2="38.2956" gradientUnits="userSpaceOnUse">
<stop stop-color="#899228"/>
<stop offset="1" stop-color="#F3FF6C"/>
</linearGradient>
<linearGradient id="paint65_linear" x1="185.289" y1="78.7091" x2="98.4562" y2="128.706" gradientUnits="userSpaceOnUse">
<stop stop-color="#929C21"/>
<stop offset="1" stop-color="#F4FF7D"/>
</linearGradient>
<linearGradient id="paint66_linear" x1="52.4057" y1="194.392" x2="113.068" y2="110.817" gradientUnits="userSpaceOnUse">
<stop stop-color="#A1AC2A"/>
<stop offset="1" stop-color="#F4FF79"/>
</linearGradient>
<linearGradient id="paint67_linear" x1="114.817" y1="152.538" x2="38.0917" y2="192.047" gradientUnits="userSpaceOnUse">
<stop stop-color="#EAFF06"/>
<stop offset="1" stop-color="#F4FF77"/>
</linearGradient>
</defs>
</svg>
