<svg width="104" height="30" viewBox="0 0 104 30" fill="none" xmlns="http://www.w3.org/2000/svg">
<path fill-rule="evenodd" clip-rule="evenodd" d="M0 15.2136H1.70868V0.919722H0V15.2136ZM1.67582 0.919722H3.48309L7.22907 15.2136H5.4218L1.67582 0.919722ZM12.8152 15.2136H14.5238V0.919722H12.8152V15.2136ZM7.26192 15.1807H9.06919L12.8152 0.886865H11.0079L7.26192 15.1807ZM22.2458 13.7349C20.2085 13.7349 18.5327 12.0591 18.5327 10.0218C18.5327 7.9845 20.2085 6.30866 22.2458 6.30866C23.6588 6.30866 24.9403 7.09729 25.5646 8.41167L27.109 7.6559C26.1889 5.78291 24.316 4.59998 22.2458 4.59998C19.2556 4.59998 16.824 7.03157 16.824 10.0218C16.824 13.012 19.2556 15.4436 22.2458 15.4436C24.316 15.4436 26.1889 14.2935 27.109 12.3876L25.5646 11.6319C24.9731 12.9463 23.6916 13.7349 22.2458 13.7349ZM33.6152 8.05021L40.7785 0.886865H38.3798L31.2821 7.95163V0.854004H29.5735V15.1478H31.2821V8.05021L38.3798 15.1478H40.7785L33.6152 8.05021ZM52.3122 10.0218C52.3122 7.03157 49.8806 4.59998 46.8904 4.59998C43.9002 4.59998 41.4686 7.03157 41.4686 10.0218C41.4686 13.012 43.9002 15.4436 46.8904 15.4436C48.9605 15.4436 50.8335 14.2935 51.7536 12.3876L50.2092 11.6319C49.5848 12.9134 48.3033 13.7349 46.8904 13.7349C44.9845 13.7349 43.4401 12.2891 43.2101 10.4489H52.3122V10.0218ZM43.3744 8.90456C43.8344 7.39303 45.2474 6.30866 46.8904 6.30866C48.5333 6.30866 49.9463 7.39303 50.4063 8.90456H43.3744ZM59.9684 4.59998C58.4569 4.59998 57.1425 5.35574 56.321 6.53868V4.82999H54.6123V15.1807H56.321V9.49603C56.321 7.75448 57.734 6.37438 59.4427 6.37438C61.1842 6.37438 62.5643 7.78734 62.5643 9.49603V15.2136H64.3058V9.00314C64.3387 6.57154 62.3671 4.59998 59.9684 4.59998ZM66.9017 2.59555H78.1396V0.886865H66.9017V2.59555ZM66.9017 15.2136H78.1396V13.5049H66.9017V15.2136ZM66.9017 13.5049V11.3362L78.1396 2.59555V4.73141L66.9017 13.5049ZM91.3163 10.0218C91.3163 7.03157 88.8847 4.59998 85.8945 4.59998C82.9043 4.59998 80.4727 7.03157 80.4727 10.0218C80.4727 13.012 82.9043 15.4436 85.8945 15.4436C87.9646 15.4436 89.8376 14.2935 90.7577 12.3876L89.2133 11.6319C88.5889 12.9134 87.3074 13.7349 85.8945 13.7349C83.9886 13.7349 82.4442 12.2891 82.2142 10.4489H91.3163V10.0218ZM82.3785 8.90456C82.8386 7.39303 84.2515 6.30866 85.8945 6.30866C87.5374 6.30866 88.9504 7.39303 89.4104 8.90456H82.3785ZM104 10.0218C104 7.03157 101.568 4.59998 98.5782 4.59998C95.588 4.59998 93.1564 7.03157 93.1564 10.0218C93.1564 13.012 95.588 15.4436 98.5782 15.4436C100.648 15.4436 102.521 14.2935 103.441 12.3876L101.897 11.6319C101.273 12.9134 99.9912 13.7349 98.5782 13.7349C96.6724 13.7349 95.128 12.2891 94.8979 10.4489H104V10.0218ZM95.0622 8.90456C95.5223 7.39303 96.9352 6.30866 98.6111 6.30866C100.254 6.30866 101.667 7.39303 102.127 8.90456H95.0622Z" fill="black"/>
<path fill-rule="evenodd" clip-rule="evenodd" d="M33.3196 25.4658L31.9395 25.1043C31.6438 25.0058 31.5781 24.7429 31.6109 24.5457C31.6767 24.2171 32.0053 23.8885 32.6625 23.8885C33.0239 23.8885 33.3196 23.9871 33.4839 24.1843C33.6811 24.3814 33.7139 24.6772 33.7139 24.7757L34.2397 24.6772C34.2068 24.4472 34.1411 24.1186 33.8782 23.8228C33.5825 23.5271 33.1882 23.3628 32.6625 23.3628C31.7095 23.3628 31.1838 23.9214 31.0852 24.48C30.9866 25.0058 31.2495 25.4658 31.7752 25.6301L33.1553 26.0244C33.6154 26.1558 33.8783 26.4516 33.8454 26.813C33.8125 27.1745 33.4182 27.5359 32.6953 27.5359C32.2681 27.5359 31.9395 27.4374 31.7095 27.2073C31.5452 27.043 31.4795 26.813 31.4467 26.6487L30.9209 26.7473C30.9538 26.9773 31.0523 27.3059 31.3152 27.5688C31.6438 27.8974 32.1038 28.0617 32.6953 28.0617C33.7468 28.0617 34.2726 27.4374 34.3711 26.8459C34.4369 26.2873 34.1411 25.6629 33.3196 25.4658ZM34.864 23.4285V23.9543H36.4084V27.8974H36.9342V23.9543H38.4786V23.4285H34.864ZM41.0745 23.4285L42.6188 27.8974H42.0602L41.6002 26.5501H39.4315L38.9715 27.8974H38.4128L39.9572 23.4285H40.5158L39.5958 26.0573H41.4359L40.5158 23.4285H41.0745ZM42.5531 23.4285V23.9543H44.0975V27.8974H44.6233V23.9543H46.1677V23.4285H42.5531ZM51.8852 23.4285H51.3266L52.2467 26.0573H50.4065L51.3266 23.4285H50.768L49.2236 27.8974H49.7822L50.2422 26.5501H52.411L52.871 27.8974H53.4296L51.8852 23.4285ZM57.0441 24.6443V25.0386C56.7484 24.7429 56.3212 24.5786 55.894 24.5786C54.974 24.5786 54.2182 25.3344 54.2182 26.2544C54.2182 27.1745 54.974 27.9302 55.894 27.9302C56.3541 27.9302 56.7484 27.766 57.0441 27.4702V28.3903C57.0441 28.4889 56.9784 28.5546 56.8798 28.5546H54.8425V29.0803H56.8798C57.2741 29.0803 57.5699 28.7517 57.5699 28.3903V24.6114H57.0441V24.6443ZM55.8612 27.4374C55.204 27.4374 54.7111 26.9116 54.7111 26.2873C54.7111 25.6629 55.2369 25.1372 55.8612 25.1372C56.4855 25.1372 57.0113 25.6629 57.0113 26.2873C57.0441 26.9116 56.5184 27.4374 55.8612 27.4374ZM61.6116 26.2873C61.6116 25.3672 60.8558 24.6114 59.9358 24.6114C59.0157 24.6114 58.2599 25.3672 58.2599 26.2873C58.2599 27.2073 59.0157 27.9631 59.9358 27.9631C60.5929 27.9631 61.1844 27.6016 61.4473 27.0102L60.9544 26.7802C60.7572 27.1745 60.3629 27.4374 59.9029 27.4374C59.3114 27.4374 58.8185 26.9773 58.7528 26.4187H61.5787V26.2873H61.6116ZM58.8185 25.9258C58.9828 25.4658 59.41 25.1043 59.9358 25.1043C60.4615 25.1043 60.8887 25.4329 61.053 25.9258H58.8185ZM64.0103 24.5786C63.5503 24.5786 63.1231 24.8086 62.8602 25.1701V24.6443H62.3345V27.8974H62.8602V26.123C62.8602 25.5972 63.2874 25.1372 63.846 25.1372C64.3718 25.1372 64.8318 25.5644 64.8318 26.123V27.8974H65.3904V25.9587C65.3576 25.2029 64.7661 24.5786 64.0103 24.5786ZM67.7892 27.4374C67.1648 27.4374 66.6391 26.9116 66.6391 26.2873C66.6391 25.6629 67.1648 25.1372 67.7892 25.1372C68.2492 25.1372 68.6435 25.4001 68.8407 25.7944L69.3335 25.5644C69.0378 24.9729 68.4792 24.6114 67.822 24.6114C66.9019 24.6114 66.1133 25.3672 66.1133 26.2873C66.1133 27.2073 66.8691 27.9631 67.822 27.9631C68.4792 27.9631 69.0707 27.6016 69.3335 27.0102L68.8407 26.7802C68.6435 27.1745 68.2492 27.4374 67.7892 27.4374ZM72.488 24.6443L71.4037 27.8974L70.3193 24.6772H69.7607L70.8451 27.8974H71.4037L70.9765 29.146H71.5351L73.0467 24.6443H72.488Z" fill="black"/>
</svg>
