<svg width="134" height="37" viewBox="0 0 134 37" fill="none" xmlns="http://www.w3.org/2000/svg">
<path fill-rule="evenodd" clip-rule="evenodd" d="M0 19.0488H2.20157V0.631718H0V19.0488ZM2.15923 0.631718H4.48783L9.31438 19.0488H6.98578L2.15923 0.631718ZM16.5118 19.0488H18.7134V0.631718H16.5118V19.0488ZM9.3567 19.0064H11.6853L16.5118 0.589383H14.1833L9.3567 19.0064ZM28.6629 17.1436C26.0379 17.1436 23.8787 14.9843 23.8787 12.3594C23.8787 9.73441 26.0379 7.57516 28.6629 7.57516C30.4834 7.57516 32.1346 8.59128 32.939 10.2848L34.9289 9.31102C33.7434 6.89775 31.3302 5.37359 28.6629 5.37359C24.8101 5.37359 21.6771 8.5066 21.6771 12.3594C21.6771 16.2121 24.8101 19.3451 28.6629 19.3451C31.3302 19.3451 33.7434 17.8633 34.9289 15.4077L32.939 14.4339C32.1769 16.1275 30.5257 17.1436 28.6629 17.1436ZM43.3118 9.81908L52.5415 0.589383H49.4509L40.3058 9.69206V0.547043H38.1043V18.9641H40.3058V9.81908L49.4509 18.9641H52.5415L43.3118 9.81908ZM67.4022 12.3594C67.4022 8.5066 64.2692 5.37359 60.4164 5.37359C56.5637 5.37359 53.4306 8.5066 53.4306 12.3594C53.4306 16.2121 56.5637 19.3451 60.4164 19.3451C63.0837 19.3451 65.497 17.8633 66.6825 15.4077L64.6926 14.4339C63.8881 16.0851 62.237 17.1436 60.4164 17.1436C57.9608 17.1436 55.9709 15.2807 55.6746 12.9098H67.4022V12.3594ZM55.8863 10.9199C56.479 8.97232 58.2995 7.57516 60.4164 7.57516C62.5333 7.57516 64.3539 8.97232 64.9466 10.9199H55.8863ZM77.267 5.37359C75.3194 5.37359 73.6259 6.34736 72.5675 7.87153V5.66995H70.3659V19.0064H72.5675V11.682C72.5675 9.43804 74.388 7.65984 76.5896 7.65984C78.8335 7.65984 80.6117 9.48038 80.6117 11.682V19.0488H82.8556V11.0469C82.8979 7.91387 80.3577 5.37359 77.267 5.37359ZM86.2003 2.79096H100.68V0.589383H86.2003V2.79096ZM86.2003 19.0488H100.68V16.8472H86.2003V19.0488ZM86.2003 16.8472V14.0529L100.68 2.79096V5.54294L86.2003 16.8472ZM117.657 12.3594C117.657 8.5066 114.524 5.37359 110.672 5.37359C106.819 5.37359 103.686 8.5066 103.686 12.3594C103.686 16.2121 106.819 19.3451 110.672 19.3451C113.339 19.3451 115.752 17.8633 116.938 15.4077L114.948 14.4339C114.143 16.0851 112.492 17.1436 110.672 17.1436C108.216 17.1436 106.226 15.2807 105.93 12.9098H117.657V12.3594ZM106.142 10.9199C106.734 8.97232 108.555 7.57516 110.672 7.57516C112.789 7.57516 114.609 8.97232 115.202 10.9199H106.142ZM134 12.3594C134 8.5066 130.867 5.37359 127.014 5.37359C123.161 5.37359 120.028 8.5066 120.028 12.3594C120.028 16.2121 123.161 19.3451 127.014 19.3451C129.682 19.3451 132.095 17.8633 133.28 15.4077L131.29 14.4339C130.486 16.0851 128.835 17.1436 127.014 17.1436C124.559 17.1436 122.569 15.2807 122.272 12.9098H134V12.3594ZM122.484 10.9199C123.077 8.97232 124.897 7.57516 127.057 7.57516C129.173 7.57516 130.994 8.97232 131.587 10.9199H122.484Z" fill="white"/>
<path fill-rule="evenodd" clip-rule="evenodd" d="M42.931 32.2581L41.1528 31.7924C40.7718 31.6654 40.6871 31.3267 40.7294 31.0727C40.8141 30.6493 41.2375 30.2259 42.0843 30.2259C42.55 30.2259 42.931 30.3529 43.1427 30.607C43.3967 30.861 43.4391 31.242 43.4391 31.369L44.1165 31.242C44.0741 30.9457 43.9895 30.5223 43.6508 30.1412C43.2697 29.7602 42.7617 29.5485 42.0843 29.5485C40.8565 29.5485 40.179 30.2683 40.052 30.988C39.925 31.6654 40.2637 32.2581 40.9411 32.4698L42.7193 32.9779C43.3121 33.1472 43.6508 33.5283 43.6084 33.994C43.5661 34.4597 43.058 34.9254 42.1266 34.9254C41.5762 34.9254 41.1528 34.7984 40.8565 34.5021C40.6448 34.2904 40.5601 33.994 40.5177 33.7823L39.8403 33.9093C39.8827 34.2057 40.0097 34.6291 40.3484 34.9678C40.7718 35.3912 41.3645 35.6029 42.1266 35.6029C43.4814 35.6029 44.1588 34.7984 44.2858 34.0363C44.3705 33.3166 43.9895 32.5122 42.931 32.2581ZM44.9209 29.6332V30.3106H46.9108V35.3912H47.5882V30.3106H49.5781V29.6332H44.9209ZM52.9228 29.6332L54.9127 35.3912H54.1929L53.6002 33.6553H50.8059L50.2132 35.3912H49.4934L51.4833 29.6332H52.2031L51.0176 33.0202H53.3885L52.2031 29.6332H52.9228ZM54.828 29.6332V30.3106H56.8179V35.3912H57.4953V30.3106H59.4852V29.6332H54.828ZM66.852 29.6332H66.1323L67.3178 33.0202H64.9468L66.1323 29.6332H65.4125L63.4226 35.3912H64.1424L64.7351 33.6553H67.5294L68.1222 35.3912H68.8419L66.852 29.6332ZM73.4991 31.1997V31.7077C73.1181 31.3267 72.5677 31.115 72.0173 31.115C70.8318 31.115 69.858 32.0888 69.858 33.2743C69.858 34.4597 70.8318 35.4335 72.0173 35.4335C72.61 35.4335 73.1181 35.2218 73.4991 34.8408V36.0262C73.4991 36.1532 73.4144 36.2379 73.2874 36.2379H70.6625V36.9153H73.2874C73.7955 36.9153 74.1765 36.492 74.1765 36.0262V31.1574H73.4991V31.1997ZM71.9749 34.7984C71.1282 34.7984 70.4931 34.121 70.4931 33.3166C70.4931 32.5122 71.1705 31.8348 71.9749 31.8348C72.7794 31.8348 73.4568 32.5122 73.4568 33.3166C73.4991 34.121 72.8217 34.7984 71.9749 34.7984ZM79.3841 33.3166C79.3841 32.1311 78.4103 31.1574 77.2249 31.1574C76.0394 31.1574 75.0656 32.1311 75.0656 33.3166C75.0656 34.5021 76.0394 35.4758 77.2249 35.4758C78.0716 35.4758 78.8337 35.0101 79.1724 34.248L78.5373 33.9517C78.2833 34.4597 77.7752 34.7984 77.1825 34.7984C76.4204 34.7984 75.7854 34.2057 75.7007 33.4859H79.3418V33.3166H79.3841ZM75.7854 32.8509C75.9971 32.2581 76.5475 31.7924 77.2249 31.7924C77.9023 31.7924 78.4527 32.2158 78.6643 32.8509H75.7854ZM82.4748 31.115C81.882 31.115 81.3316 31.4114 80.9929 31.8771V31.1997H80.3155V35.3912H80.9929V33.1049C80.9929 32.4275 81.5433 31.8348 82.2631 31.8348C82.9405 31.8348 83.5332 32.3852 83.5332 33.1049V35.3912H84.253V32.8932C84.2106 31.9194 83.4486 31.115 82.4748 31.115ZM87.3437 34.7984C86.5392 34.7984 85.8618 34.121 85.8618 33.3166C85.8618 32.5122 86.5392 31.8348 87.3437 31.8348C87.9364 31.8348 88.4445 32.1735 88.6985 32.6815L89.3335 32.3852C88.9525 31.6231 88.2328 31.1574 87.386 31.1574C86.2005 31.1574 85.1844 32.1311 85.1844 33.3166C85.1844 34.5021 86.1582 35.4758 87.386 35.4758C88.2328 35.4758 88.9948 35.0101 89.3335 34.248L88.6985 33.9517C88.4445 34.4597 87.9364 34.7984 87.3437 34.7984ZM93.398 31.1997L92.0008 35.3912L90.6037 31.242H89.8839L91.2811 35.3912H92.0008L91.4505 37H92.1702L94.1177 31.1997H93.398Z" fill="white"/>
</svg>
